<?xml version="1.0" standalone="no"?>
<!DOCTYPE svg PUBLIC "-//W3C//DTD SVG 1.1//EN" "http://www.w3.org/Graphics/SVG/1.1/DTD/svg11.dtd" >
<svg xmlns="http://www.w3.org/2000/svg">
<metadata></metadata>
<defs>
<font id="pf_beausans_probold" horiz-adv-x="1337" >
<font-face units-per-em="2048" ascent="1536" descent="-512" />
<missing-glyph horiz-adv-x="587" />
<glyph unicode="&#xfb01;" horiz-adv-x="1290" d="M25 887v117q0 18 6 27t28 16l146 34v66q0 74 19.5 143.5t68.5 122.5t135 86t219 33q49 -2 147.5 -9t215.5 -38q16 -4 23 -14.5t3 -32.5l-30 -144q-4 -16 -12.5 -24t-30.5 -4q-82 14 -148.5 19t-109.5 5q-115 0 -159 -42t-44 -115v-58h612q29 0 36 -8t7 -29v-1001 q0 -23 -8 -30t-37 -7h-211q-23 0 -33 7t-10 30v815h-356v-815q0 -25 -10.5 -31t-30.5 -6h-213q-23 0 -33 6t-10 33v813h-146q-25 0 -29.5 9t-4.5 26z" />
<glyph unicode="&#xfb02;" horiz-adv-x="1402" d="M25 889v115q0 18 6 27t28 16l146 34v68q0 74 19.5 142.5t68.5 122.5t135 87t219 33q45 -2 132 -8t188 -29l161 33q23 2 33 -6t10 -31v-1165q0 -53 15.5 -74t62.5 -21q16 0 38 1.5t36 3.5q20 4 25.5 1t9.5 -22l20 -160q4 -20 -2 -27t-28 -18q-43 -16 -105.5 -24t-109.5 -8 q-61 0 -109.5 13t-81.5 46t-50.5 87t-17.5 138v1010q-51 8 -96 11t-73 3q-115 0 -159 -40t-44 -113v-60h229q25 0 29 -8t4 -25v-147q0 -20 -4 -29.5t-29 -9.5h-229v-819q0 -25 -10.5 -31t-30.5 -6h-213q-23 0 -33 6t-10 33v817h-146q-25 0 -29.5 9t-4.5 24z" />
<glyph horiz-adv-x="0" />
<glyph horiz-adv-x="682" />
<glyph unicode=" "  horiz-adv-x="587" />
<glyph unicode="&#x09;" horiz-adv-x="587" />
<glyph unicode="&#xa0;" horiz-adv-x="587" />
<glyph unicode="!" horiz-adv-x="616" d="M125 158q0 37 14.5 69.5t40 56t59 38t70.5 14.5q78 0 131.5 -51t53.5 -127q0 -74 -53.5 -126t-131.5 -52t-131 51t-53 127zM152 1391q-2 20 8 31.5t39 11.5h217q33 0 41 -13.5t6 -29.5l-47 -887q0 -25 -11.5 -32t-35.5 -7h-123q-29 0 -38 7t-11 30z" />
<glyph unicode="&#x22;" horiz-adv-x="983" d="M139 1391q-6 45 47 45h209q35 0 42 -13.5t5 -31.5l-49 -537q-2 -25 -12 -31t-35 -6h-108q-29 0 -38.5 6t-11.5 29zM537 1391q-4 45 49 45h209q35 0 42 -13.5t5 -31.5l-49 -537q-2 -25 -12.5 -31t-37.5 -6h-108q-27 0 -37 6t-12 29z" />
<glyph unicode="#" d="M119 313l22 115q4 16 9.5 23.5t27.5 7.5h156l59 289h-157q-20 0 -25.5 8t-1.5 24l24 111q4 14 9.5 23.5t27.5 9.5h160l55 254q4 16 11.5 21t29.5 5h119q23 0 31 -5t4 -28l-51 -247h239l54 254q4 16 11 21t30 5h118q23 0 30 -5t3 -28l-51 -247h162q18 0 23 -9.5t1 -25.5 l-26 -109q-4 -20 -11.5 -26t-23.5 -6h-160l-59 -289h161q29 0 23 -35l-27 -111q-4 -18 -11 -24t-21 -6h-160l-55 -254q-4 -16 -9.5 -22.5t-27.5 -6.5h-131q-16 0 -24.5 5t-4.5 26l53 252h-239l-54 -254q-4 -16 -9 -22.5t-27 -6.5h-130q-18 0 -26 5t-4 26l53 252h-156 q-33 0 -24 30zM530 459h240l61 289h-239z" />
<glyph unicode="$" d="M152 160q4 12 12 32.5t17 44t18.5 46t13.5 34.5q10 20 20.5 23.5t28.5 -2.5q55 -25 124 -45.5t140 -34.5v377q-74 33 -137 67.5t-109.5 78.5t-73 100.5t-26.5 132.5q-2 139 82 242.5t264 132.5v174q0 23 8.5 24.5t24.5 1.5h45q20 0 28.5 -2t8.5 -24v-1768q0 -23 -8 -24.5 t-29 -1.5h-45q-16 0 -24.5 2t-8.5 24v193q-92 10 -188 38.5t-176 77.5q-25 14 -10 56zM457 1022q0 -33 15 -59.5t54 -53.5v213q-37 -16 -53 -43.5t-16 -56.5zM709 -205v1768q0 23 9 24.5t27 1.5h37q20 0 28.5 -2t8.5 -24v-177q70 -10 141.5 -29.5t126.5 -47.5 q16 -8 19.5 -20.5t-6.5 -35.5l-53 -149q-8 -25 -16.5 -28t-29.5 1q-43 14 -92 25.5t-90 19.5v-336q74 -35 139.5 -72.5t114.5 -86.5t78 -110.5t29 -139.5q0 -174 -99.5 -268.5t-261.5 -118.5v-195q0 -23 -8 -24.5t-29 -1.5h-37q-18 0 -27 2t-9 24zM819 256q47 18 69.5 52 t24.5 75q0 41 -22.5 72.5t-71.5 62.5v-262z" />
<glyph unicode="%" horiz-adv-x="1986" d="M74 961q0 98 24.5 177t73.5 136t123 88t172 31q199 0 294 -116.5t95 -313.5q0 -96 -24.5 -174t-73.5 -135.5t-123 -88t-172 -30.5q-195 0 -292 115.5t-97 310.5zM311 963q0 -51 8.5 -95.5t27 -77t48 -51t72.5 -18.5q84 0 117.5 69t33.5 171q0 104 -33.5 173.5 t-121.5 69.5q-84 0 -118 -68.5t-34 -172.5zM470 -54.5q-5 11.5 5 27.5l848 1442q10 16 18.5 23.5t30.5 7.5h121q18 0 25.5 -10.5t-5.5 -30.5l-841 -1434q-10 -18 -25.5 -27.5t-44.5 -9.5h-104q-23 0 -28 11.5zM1130 414q0 98 25 177t74 136t122.5 88t172.5 31 q199 0 294 -116.5t95 -313.5q0 -96 -24.5 -174t-74 -135.5t-123 -88t-171.5 -30.5q-195 0 -292.5 115.5t-97.5 310.5zM1368 416q0 -51 8 -95.5t26.5 -77t48.5 -51t73 -18.5q84 0 117.5 69t33.5 171q0 104 -33.5 173.5t-121.5 69.5q-84 0 -118 -68.5t-34 -172.5z" />
<glyph unicode="&#x26;" horiz-adv-x="1570" d="M131 360q0 74 23.5 140.5t63.5 124t92 105.5t112 85q-51 59 -89 136t-38 157t30.5 145.5t83 110.5t123 69.5t148.5 24.5q80 0 148.5 -22.5t118.5 -64.5t79 -101.5t29 -132.5q0 -72 -22.5 -130.5t-57.5 -105.5t-80 -85t-90 -66q37 -49 67.5 -84t63.5 -72q55 92 136 164.5 t190 101.5q68 20 124 23q16 0 21.5 -5.5t9.5 -17.5l27 -178q2 -16 -5 -21.5t-24 -9.5q-63 -12 -110.5 -36.5t-84 -57.5t-64.5 -75t-50 -87q33 -37 86 -96t104 -117q59 -68 125 -139q10 -10 7 -26.5t-29 -16.5h-223q-29 0 -49.5 6t-36.5 25q-29 29 -52 55q-20 23 -40.5 45.5 t-30.5 34.5q-76 -82 -176.5 -136.5t-241.5 -54.5q-94 0 -171 27t-132.5 76t-85 120.5t-29.5 161.5zM414 379q0 -61 35.5 -103.5t121.5 -42.5q31 0 63 10.5t61.5 29t56 42t45.5 50.5l-107.5 129t-105.5 129q-70 -45 -120 -105.5t-50 -138.5zM567 1106q0 -45 27 -90t61 -84 q47 29 88 73t41 99q0 43 -26.5 78t-75.5 35q-53 0 -84 -31t-31 -80z" />
<glyph unicode="'" horiz-adv-x="583" d="M139 1391q-4 45 47 45h209q35 0 42 -13.5t5 -31.5l-49 -537q-2 -25 -12 -31t-35 -6h-108q-29 0 -38.5 6t-11.5 29z" />
<glyph unicode="(" horiz-adv-x="714" d="M98 655q0 131 30 247t80 219.5t117.5 192.5t143.5 169q20 23 31.5 21.5t31.5 -17.5l109 -74q16 -12 18.5 -19.5t-10.5 -23.5q-123 -160 -186.5 -328t-63.5 -374q0 -109 16.5 -202t48.5 -177t78 -163t107 -157q23 -31 -8 -51l-109 -78q-20 -16 -31.5 -11t-29.5 26 q-76 80 -143.5 165.5t-118.5 184t-81 210t-30 240.5z" />
<glyph unicode=")" horiz-adv-x="731" d="M98.5 1393.5q1.5 7.5 18.5 17.5l108 76q23 16 34 17t30 -19q76 -80 142.5 -170t117.5 -192.5t80.5 -217t29.5 -243.5q0 -131 -29.5 -244t-79.5 -211t-117.5 -185.5t-143.5 -164.5q-18 -23 -29.5 -27t-34.5 10l-108 76q-31 24 -8 51q61 80 108 160t79 164t47 175t15 196 q0 109 -16 202.5t-48 179.5t-78 166t-107 160q-12 16 -10.5 23.5z" />
<glyph unicode="*" horiz-adv-x="1038" d="M138 1063q-5 6 3 35l37 116q12 43 47 25l215 -94l-24 231q-6 35 41 35h127q23 0 30 -6t2 -29l-22 -235l207 94q23 10 34 3t17 -30l41 -118q10 -41 -25 -43l-229 -56q10 -10 32.5 -33.5t46 -50t45 -51.5t32.5 -35q16 -18 12 -30.5t-23 -26.5l-100 -74q-23 -16 -31 -13 t-20 25l-121 201l-115 -203q-12 -23 -24.5 -23.5t-30.5 13.5q-8 6 -22.5 16.5t-30 22.5t-29.5 22.5l-22 16.5q-16 14 -19.5 24.5t12.5 26.5l156 176l-221 56q-23 6 -28 12z" />
<glyph unicode="+" d="M150 625v157q0 29 7 37t29 8h344v361q0 23 10.5 30t32.5 7h191q29 0 36 -7.5t7 -29.5v-361h344q23 0 30 -8t7 -37v-157q0 -25 -7 -34t-30 -9h-344v-361q0 -23 -7 -30t-36 -7h-191q-23 0 -33 7.5t-10 29.5v361h-344q-23 0 -29.5 9t-6.5 34z" />
<glyph unicode="," horiz-adv-x="577" d="M131 -233l25 524q2 23 11 34t38 11h233q35 0 41 -13.5t2 -31.5l-147 -522q-6 -23 -14.5 -30t-30.5 -7h-111q-49 0 -47 35z" />
<glyph unicode="-" horiz-adv-x="813" d="M104 514v184q0 27 7.5 35t29.5 8h521q23 0 29.5 -8t6.5 -35v-184q0 -23 -7 -33t-29 -10h-521q-23 0 -30 10.5t-7 32.5z" />
<glyph unicode="." horiz-adv-x="610" d="M119 160q0 39 15.5 72.5t41 58t60 39t73.5 14.5q80 0 134.5 -53t54.5 -131t-54.5 -131.5t-134.5 -53.5q-39 0 -73.5 14.5t-60 39t-41 58.5t-15.5 73z" />
<glyph unicode="/" horiz-adv-x="944" d="M25 -160l641 1721q6 18 17 25t40 7h172q18 0 28.5 -7t2.5 -30l-639 -1718q-8 -20 -21.5 -27.5t-44.5 -7.5h-164q-45 0 -32 37z" />
<glyph unicode="0" d="M82 686q0 162 37 293t110.5 225t183 145.5t257.5 51.5q150 0 259 -50.5t182 -143.5t107.5 -224t34.5 -293q0 -160 -35.5 -291t-109.5 -225t-184.5 -145.5t-257.5 -51.5t-257 50.5t-182.5 143.5t-108.5 224t-36 291zM389 690q0 -98 14.5 -182t47 -146.5t87 -97.5 t132.5 -35t131 35t86 96.5t47 144.5t14 181q0 100 -15 185t-49 146.5t-87.5 96.5t-130.5 35q-78 0 -130.5 -34t-85 -95.5t-47 -145t-14.5 -184.5z" />
<glyph unicode="1" d="M268 1100v149q0 18 5.5 30.5t31.5 20.5l340 93q35 10 67.5 11t57.5 -10.5t39 -36t14 -63.5v-1050h236q23 0 30 -6.5t7 -34.5v-162q0 -23 -7.5 -32t-29.5 -9h-750q-23 0 -30 9t-7 32v162q0 29 7.5 35t29.5 6h217v860l-217 -37q-25 -4 -33 3t-8 30z" />
<glyph unicode="2" d="M143 190q0 76 52.5 164t142.5 174q84 82 174 145.5t158 106.5q59 37 97 67t59.5 55.5t29.5 50t8 53.5q0 25 -10 49t-32.5 42.5t-60.5 31t-95 12.5q-78 0 -157 -25.5t-163 -81.5q-16 -10 -30.5 -10t-26.5 16l-94 144q-20 33 8 53q219 164 487 164q102 0 190.5 -23.5 t154 -72t102.5 -120t37 -167.5q0 -76 -25 -138.5t-70 -114.5t-105.5 -96t-133.5 -87q-51 -29 -104.5 -67t-101.5 -81t-88 -91t-61 -99h645q23 0 30 -6.5t7 -34.5v-162q0 -23 -7 -32t-30 -9h-800q-90 0 -138.5 38t-48.5 152z" />
<glyph unicode="3" d="M124 146.5q-1 9.5 9 27.5l90 148q14 23 27.5 25.5t40.5 -13.5q74 -53 157.5 -74.5t155.5 -21.5q123 0 187.5 56t64.5 155q0 66 -53 115.5t-166 49.5h-53q-49 0 -61.5 12.5t-12.5 55.5v82q0 47 11 60.5t46 13.5h60q96 0 148 45t52 114q0 39 -16 66t-44 43t-62.5 24.5 t-71.5 8.5q-72 0 -155 -22.5t-152 -69.5q-27 -16 -40.5 -14.5t-25.5 24.5l-82 137q-12 18 -12 29.5t16 25.5q49 39 107.5 68t121 47t126 27.5t122.5 9.5q92 0 177.5 -19.5t151 -62.5t104 -111.5t38.5 -165.5q0 -49 -15 -96t-44 -88t-68.5 -72.5t-87.5 -50.5v-10 q133 -35 191.5 -124t58.5 -193q0 -98 -40 -178t-110.5 -136.5t-171 -86.5t-218.5 -30q-143 0 -264 33t-220 111q-16 16 -17 25.5z" />
<glyph unicode="4" d="M88 387v51q0 39 11.5 79t39.5 75l553 708q14 18 30.5 37t38 34t49.5 24.5t64 9.5h99q63 0 88.5 -28.5t25.5 -100.5v-762h132q23 0 34 -6t11 -35v-160q0 -23 -10.5 -31t-32.5 -8h-134v-235q0 -23 -8 -31t-37 -8h-208q-43 0 -43 39v233h-574q-25 0 -48.5 4.5t-40.5 16.5 t-28.5 34.5t-11.5 59.5zM393 522l4 -10h391v498l-8 6z" />
<glyph unicode="5" d="M115 174q8 12 22.5 34.5t29.5 47.5t29.5 46.5t22.5 33.5q14 20 29.5 19t40.5 -17q76 -53 163 -75.5t164 -22.5q139 0 214 58t75 161q0 96 -63.5 145t-155.5 49q-45 0 -80 -6t-66.5 -15t-62.5 -22.5t-63 -27.5q-25 -10 -57.5 -13.5t-61.5 6.5l-72 21q-47 16 -62.5 44 t-10.5 75l53 512q8 80 47 115.5t104 35.5h715q27 0 36 -6t9 -39v-162q0 -27 -10 -36t-35 -9h-598l-31 -266q68 23 137.5 30t131.5 7q109 0 200.5 -29.5t158.5 -85t104.5 -135.5t37.5 -180q0 -121 -44 -213t-120.5 -153.5t-181 -93.5t-223.5 -32q-133 0 -265 28t-249 122 q-29 23 -12 49z" />
<glyph unicode="6" d="M102 625q0 166 41 308t126 247.5t214 165t308 59.5q68 0 147.5 -9.5t142.5 -31.5q14 -4 22.5 -13.5t-1.5 -41.5l-45 -162q-8 -25 -22.5 -26t-30.5 3q-45 12 -97.5 19.5t-103.5 7.5q-154 0 -250 -77t-127 -222q29 8 66.5 15t77.5 13.5t80 9.5t73 3q109 0 205 -24.5 t167.5 -78t112.5 -135t41 -198.5q0 -123 -46 -213t-122.5 -149.5t-176 -88.5t-206.5 -29q-152 0 -263 45.5t-185 130.5t-111 204.5t-37 267.5zM410 559q0 -152 77.5 -240t210.5 -88q106 0 176 54.5t70 160.5q0 96 -58.5 150.5t-174.5 54.5q-80 0 -148.5 -11t-152.5 -34v-47z " />
<glyph unicode="7" d="M123 1174v157q0 31 8 40t35 9h903q106 0 107 -92v-63q0 -63 -33 -129l-580 -1051q-16 -27 -32.5 -36t-51.5 -9h-225q-25 0 -33 16.5t2 34.5l596 1075h-653q-25 0 -34 9.5t-9 38.5z" />
<glyph unicode="8" d="M111 401q0 55 16 107.5t47 97.5t72 80t90 53v6q-49 18 -82 49t-52.5 67t-28.5 72t-9 66q0 98 41 174t109.5 127.5t158.5 78t189 26.5q115 0 205.5 -27.5t155 -78t98.5 -122t34 -157.5q0 -31 -9 -69t-29.5 -75.5t-53.5 -72.5t-80 -60v-4q61 -20 103 -56t70 -81t40 -94 t12 -94q0 -94 -36.5 -174t-107.5 -138.5t-173.5 -91.5t-233.5 -33q-129 0 -230 31t-172 86.5t-107.5 133t-36.5 173.5zM418 420q0 -35 12 -71t41 -63.5t74 -45t112 -17.5q70 0 116 18.5t75 47t41 64.5t12 71q0 94 -68.5 146.5t-173.5 52.5q-104 0 -172.5 -55.5t-68.5 -147.5 zM461 979q0 -61 54 -105.5t140 -44.5q90 0 146.5 47.5t56.5 108.5q0 68 -48 117t-153 49q-104 0 -150 -52t-46 -120z" />
<glyph unicode="9" d="M92 928q0 123 46 212t123 148.5t175.5 88t204.5 28.5q150 0 261.5 -45t186 -130t111.5 -205t37 -267q0 -166 -41 -308.5t-126 -247t-215 -165t-308 -60.5q-66 0 -144.5 9.5t-142.5 31.5q-14 6 -23.5 14.5t1.5 41.5l45 164q6 23 20 24.5t33 -2.5q41 -10 96 -18.5t105 -8.5 q152 0 249 77t127 222q-29 -10 -64.5 -17t-74.5 -13t-78 -9.5t-71 -3.5q-109 0 -206 25t-170 78t-115 136t-42 200zM397 938q0 -96 60.5 -150.5t171.5 -54.5q82 0 150.5 10.5t148.5 32.5q4 18 4 28.5v20.5q0 74 -22.5 134.5t-60.5 103.5t-91 66.5t-115 23.5q-49 0 -93 -14.5 t-78 -41t-54.5 -67.5t-20.5 -92z" />
<glyph unicode=":" horiz-adv-x="610" d="M119 162q0 37 15.5 70.5t41 58t60 39t73.5 14.5q80 0 134.5 -52t54.5 -130q0 -39 -14.5 -72t-40 -57.5t-60.5 -38.5t-74 -14t-73.5 13t-60 37.5t-41 58.5t-15.5 73zM119 889q0 39 15.5 71.5t41 57t60 39t73.5 14.5q80 0 134.5 -52t54.5 -130q0 -39 -14.5 -72t-40 -57.5 t-60.5 -38.5t-74 -14t-73.5 13t-60 37.5t-41 58.5t-15.5 73z" />
<glyph unicode=";" horiz-adv-x="606" d="M131 889q0 78 54.5 130t133.5 52q80 0 134.5 -52t54.5 -130t-54.5 -130t-134.5 -52t-134 52t-54 130zM135 -229l27 516q2 23 11 36t38 13h233q35 0 40 -15.5t1 -33.5l-145 -514q-6 -23 -14.5 -32t-32.5 -9h-109q-51 0 -49 39z" />
<glyph unicode="&#x3c;" d="M152 664v67q0 43 18 60.5t53 33.5l916 432q31 16 39 2t8 -36v-158q0 -29 -6 -42t-39 -30l-623 -284l619 -285q35 -16 42 -29.5t7 -46.5v-162q0 -20 -8.5 -33.5t-38.5 3.5l-916 430q-35 16 -52 33.5t-19 44.5z" />
<glyph unicode="=" d="M172 399v162q0 23 6 31t29 8h923q23 0 29 -9t6 -32v-156q0 -23 -7 -34t-30 -11h-917q-39 0 -39 41zM172 827v158q0 27 7 35t32 8h915q23 0 30 -8t7 -35v-158q0 -23 -7 -33t-30 -10h-915q-39 0 -39 43z" />
<glyph unicode="&#x3e;" d="M154 186v162q0 33 7 46.5t42 29.5l616 285l-622 284q-31 16 -37 29.5t-6 42.5v158q0 23 8 37t39 -3l913 -432q35 -16 54.5 -33.5t19.5 -60.5v-67q-2 -27 -19.5 -44.5t-54.5 -33.5l-915 -430q-29 -16 -37 -3t-8 33z" />
<glyph unicode="?" horiz-adv-x="1185" d="M116 1270.5q1 11.5 19 23.5q55 41 115.5 70t122 47.5t121 27.5t112.5 9q94 0 181 -19.5t154 -62.5t106.5 -110.5t39.5 -163.5q0 -53 -17 -99.5t-45 -87.5t-62.5 -79t-71.5 -72q-37 -37 -73 -71t-63.5 -66.5t-45 -66.5t-17.5 -71v-47q0 -16 -6 -23.5t-27 -7.5h-223 q-23 0 -26.5 9.5t-3.5 25.5v66q0 57 19 105t49 89t67 77t73 71q53 49 93.5 100t40.5 117q0 47 -41 83t-127 36q-152 0 -314 -99q-16 -10 -28.5 -11t-24.5 17l-90 158q-8 14 -7 25.5zM352 143q0 37 15.5 70t41 57.5t60.5 39t74 14.5q33 0 65.5 -11.5t59 -34t43 -56.5 t16.5 -79q0 -76 -54.5 -126t-131.5 -50q-78 0 -133.5 49.5t-55.5 126.5z" />
<glyph unicode="@" horiz-adv-x="2011" d="M152 664q0 180 68.5 333.5t190 265t286.5 175t356 63.5q186 0 335.5 -55t254 -158.5t161 -249t56.5 -323.5q0 -115 -32 -207t-89.5 -156.5t-137 -99.5t-178.5 -35q-102 0 -169.5 34t-90.5 87q-49 -35 -115.5 -57.5t-132.5 -22.5q-158 0 -239.5 66.5t-81.5 201.5 q0 125 84 208t258 83h172v21q0 20 -4 40.5t-18.5 35t-40 23.5t-70.5 9q-47 0 -107.5 -8t-109.5 -18q-29 -6 -39 -3t-14 23l-23 109q-6 23 0 32t29 19q68 20 140.5 31.5t156.5 11.5q176 0 257 -76t81 -223v-324q0 -14 3 -33.5t14 -38t32.5 -30.5t60.5 -12q102 0 151.5 84.5 t49.5 218.5q0 135 -42 245.5t-121 190.5t-190.5 123t-250.5 43q-158 0 -286 -50.5t-218 -138.5t-140.5 -204.5t-50.5 -251.5q0 -141 47.5 -258t134.5 -201t208.5 -130t273.5 -46q51 0 121.5 11t148.5 40q16 6 26.5 6t16.5 -16l43 -117q6 -16 1 -24.5t-21 -18.5 q-37 -18 -82 -32.5t-91 -23t-90 -12.5t-79 -4q-201 0 -360.5 60.5t-271.5 170t-172 260t-60 333.5zM838 543q0 -53 35.5 -72.5t87.5 -19.5q23 0 67.5 8t77.5 30v164h-129q-23 0 -46.5 -3t-45 -15t-34.5 -33.5t-13 -58.5z" />
<glyph unicode="A" horiz-adv-x="1341" d="M29 41l426 1284q10 35 23.5 56.5t30.5 33.5t40.5 17.5t54.5 5.5h123q35 0 59.5 -3t43 -15.5t31.5 -35t26 -59.5l426 -1284q2 -6 2 -12.5t-2 -14.5q-4 -14 -27 -14h-244q-23 0 -38 5t-21 28l-80 266h-469l-80 -260q-6 -20 -17 -29.5t-40 -9.5h-240q-23 0 -27 12 q-2 7 -3 15q0 6 2 14zM508 553h321l-77 260l-76 293h-12l-78 -293z" />
<glyph unicode="B" horiz-adv-x="1392" d="M154 125v1184q0 66 24.5 96.5t97.5 30.5h502q92 0 173 -20.5t140.5 -64.5t93.5 -113t34 -165q0 -86 -44.5 -160.5t-113.5 -113.5v-15q57 -23 99 -60.5t68.5 -83.5t39 -99.5t12.5 -104.5q0 -98 -38 -178t-104.5 -137.5t-155.5 -89t-191 -31.5h-515q-74 0 -98 29.5 t-24 95.5zM465 274h295q57 0 96 17.5t61.5 44t31.5 59.5t9 62q0 82 -50 133t-148 51h-295v-367zM465 891h278q25 0 52.5 6t50 21.5t37 43t14.5 70.5q0 61 -39 96t-104 35h-289v-272z" />
<glyph unicode="C" horiz-adv-x="1316" d="M113 709q0 168 48 305t134 235.5t208 151.5t269 53q104 0 204.5 -17.5t197.5 -70.5q23 -12 26.5 -24.5t-10.5 -47.5l-64 -141q-10 -29 -21 -35t-40 4q-74 27 -137.5 40.5t-141.5 13.5q-84 0 -148.5 -36t-108.5 -98.5t-66.5 -147.5t-22.5 -185t17.5 -182.5t59.5 -141.5 t110 -92t168 -33q98 0 173.5 23.5t141.5 48.5q29 12 41 5t23 -30l69 -147q11 -23 11 -36q0 -4 -1 -8q-4 -14 -22 -24q-111 -68 -232.5 -91.5t-240.5 -23.5q-168 0 -290 50.5t-201 144.5t-116.5 230.5t-37.5 306.5z" />
<glyph unicode="D" horiz-adv-x="1427" d="M154 125v1184q0 66 24.5 96.5t97.5 30.5h383q180 0 305.5 -57.5t203 -154t112.5 -226.5t35 -273q0 -141 -31 -272t-104.5 -231.5t-195.5 -161t-302 -60.5h-406q-74 0 -98 29.5t-24 95.5zM465 274h166q106 0 177 34t112 93.5t57 142.5t16 181q0 94 -16 174t-58 138.5 t-114 92t-180 33.5h-160v-889z" />
<glyph unicode="E" horiz-adv-x="1255" d="M154 377v680q0 74 20.5 141.5t64.5 120.5t115.5 85t175.5 32h588q25 0 32 -10.5t7 -39.5v-174q0 -27 -8 -36t-31 -9h-520q-80 0 -106.5 -36.5t-26.5 -90.5v-157h588q25 0 32 -10.5t7 -38.5v-160q0 -25 -7.5 -36t-31.5 -11h-588v-234q0 -72 33.5 -97.5t99.5 -25.5h541 q27 0 34 -9t7 -40v-174q0 -25 -8.5 -36t-32.5 -11h-607q-115 0 -187.5 33t-115.5 86t-59 120.5t-16 137.5z" />
<glyph unicode="F" horiz-adv-x="1210" d="M154 43v1014q0 74 19.5 141.5t63.5 120.5t115.5 85t177.5 32h598q27 0 34 -10.5t7 -39.5v-174q0 -27 -9 -36t-32 -9h-530q-80 0 -106.5 -35.5t-26.5 -91.5v-188h582q25 0 31.5 -9t6.5 -40v-160q0 -25 -8 -36t-30 -11h-582v-553q0 -29 -8 -36t-39 -7h-217q-25 0 -36 9 t-11 34z" />
<glyph unicode="G" horiz-adv-x="1417" d="M113 711q0 168 43 305t128 234.5t208.5 150.5t283.5 53q106 0 211 -17.5t201 -70.5q23 -12 27 -24.5t-13 -47.5l-63 -145q-10 -29 -21.5 -35t-40.5 4q-74 27 -142.5 39t-146.5 12q-90 0 -155.5 -34.5t-108.5 -96t-63.5 -145.5t-20.5 -184q0 -102 16.5 -185.5t56.5 -141.5 t106.5 -91t166.5 -33q39 0 98.5 5t114.5 26l2 303q-17 1 -35 1q-54 0 -108 -9q-72 -13 -139 -41q-29 -10 -40 -10.5t-22 22.5l-53 166q-6 16 -4 28.5t25 22.5q72 35 169 58.5t195 23.5q53 0 98.5 -3t79.5 -11q45 -10 72 -29.5t41 -49.5t18.5 -68t4.5 -83v-430 q0 -29 -8.5 -52.5t-41.5 -43.5q-61 -37 -132.5 -57.5t-140.5 -31.5t-128 -14.5t-94 -3.5q-168 0 -290 50.5t-201 145.5t-116.5 230.5t-37.5 307.5z" />
<glyph unicode="H" horiz-adv-x="1486" d="M154 43v1348q0 25 11 34t36 9h217q31 0 40 -8.5t9 -34.5v-510h555v510q0 25 10 34t37 9h215q31 0 40 -8.5t9 -34.5v-1348q0 -27 -9 -35t-40 -8h-215q-27 0 -37 9t-10 34v573h-555v-573q0 -27 -9 -35t-40 -8h-217q-25 0 -36 9t-11 34z" />
<glyph unicode="I" horiz-adv-x="673" d="M180 43v1348q0 25 11.5 34t35.5 9h217q31 0 40.5 -8.5t9.5 -34.5v-1348q0 -27 -9.5 -35t-40.5 -8h-217q-25 0 -36 9t-11 34z" />
<glyph unicode="J" horiz-adv-x="1208" d="M18 100q-1 2 -1 5q0 10 10 32l73 168q10 23 19.5 24t30.5 -7q70 -29 151.5 -47.5t163.5 -18.5q86 0 139 24.5t84 70.5t41 110.5t10 142.5v789q0 29 12.5 35t34.5 6h218q27 0 37 -6.5t10 -34.5v-840q0 -133 -30 -238.5t-95.5 -181.5t-171.5 -116t-262 -40 q-43 0 -101.5 5.5t-121 17.5t-123 32.5t-109.5 49.5q-16 10 -19 18z" />
<glyph unicode="K" horiz-adv-x="1398" d="M154 43v1348q0 25 11 34t36 9h215q31 0 39 -7.5t8 -35.5v-549l8 -4l193 243l256 320q18 20 36.5 26.5t59.5 6.5h264q18 0 25.5 -11.5t-7.5 -27.5l-405 -482l477 -862q10 -16 10 -28q0 -5 -2 -9q-6 -14 -28 -14h-238q-43 0 -62.5 5t-39.5 42l-330 612l-217 -260v-356 q0 -29 -8.5 -36t-38.5 -7h-215q-25 0 -36 9t-11 34z" />
<glyph unicode="L" horiz-adv-x="1183" d="M154 377v1016q0 25 11 34t36 9h217q31 0 40 -8.5t9 -34.5v-994q0 -78 38 -104.5t99 -26.5h520q23 0 31 -7t8 -36v-182q0 -43 -39 -43h-592q-115 0 -187.5 33t-115.5 86t-59 120.5t-16 137.5z" />
<glyph unicode="M" horiz-adv-x="1781" d="M154 41v1251q0 78 29.5 111t101.5 33h118q57 0 85 -21.5t53 -75.5l223 -499l127 -291h8l139 319l209 467q25 55 54.5 78t95.5 23h100q66 0 98.5 -28t32.5 -105v-1262q0 -29 -10 -35t-37 -6h-203q-23 0 -34 6t-11 35v784h-12l-84 -190l-170 -377q-23 -53 -46.5 -71.5 t-70.5 -18.5h-112q-51 0 -70.5 18.5t-44.5 71.5l-127 266l-127 277h-12v-760q0 -29 -10.5 -35t-36.5 -6h-209q-23 0 -35 6t-12 35z" />
<glyph unicode="N" horiz-adv-x="1523" d="M154 43v1249q0 80 28.5 112t104.5 32h86q31 0 52 -3t37.5 -13.5t31 -29t32.5 -47.5l348 -530l177 -276h10v856q0 25 9 34t38 9h215q47 0 47 -43v-1252q0 -66 -26.5 -103.5t-106.5 -37.5h-86q-31 0 -52.5 3t-38 13.5t-30.5 27.5t-33 46l-327 496l-197 305h-10v-848 q0 -27 -9.5 -35t-37.5 -8h-215q-25 0 -36 9t-11 34z" />
<glyph unicode="O" horiz-adv-x="1495" d="M113 715q0 172 44 310t126 233.5t198.5 146.5t263.5 51q160 0 280 -51t199 -146.5t118.5 -231.5t39.5 -306q0 -176 -37.5 -313.5t-117.5 -233.5t-201 -146.5t-287 -50.5q-317 0 -471.5 192.5t-154.5 545.5zM438 727q0 -109 15.5 -195t51.5 -147t95 -94t150 -33 q88 0 147 38t94 100.5t50.5 145.5t15.5 173q0 92 -13.5 176t-48 147.5t-94 101.5t-153.5 38q-78 0 -136.5 -36t-97.5 -97.5t-57.5 -143.5t-18.5 -174z" />
<glyph unicode="P" horiz-adv-x="1318" d="M154 43v1268q0 57 24.5 91t97.5 34h502q111 0 200 -34t151.5 -93.5t95 -141.5t32.5 -180q0 -53 -16 -132t-70.5 -153.5t-158 -128t-275.5 -53.5h-272v-477q0 -29 -9.5 -36t-39.5 -7h-215q-25 0 -36 9t-11 34zM465 772h268q104 0 153.5 56.5t49.5 138.5q0 29 -8 62.5 t-32 63t-63.5 49t-101.5 19.5h-266v-389z" />
<glyph unicode="Q" horiz-adv-x="1495" d="M113 715q0 172 44 310t126 233.5t198.5 146.5t263.5 51q160 0 280 -51t199 -146.5t118.5 -231.5t39.5 -306q0 -176 -37.5 -313.5t-117.5 -233.5t-201 -146.5t-287 -50.5q-317 0 -471.5 192.5t-154.5 545.5zM438 727q0 -109 15.5 -195t51.5 -147t95 -94t150 -33 q88 0 147 38t94 100.5t50.5 145.5t15.5 173q0 92 -13.5 176t-48 147.5t-94 101.5t-153.5 38q-78 0 -136.5 -36t-97.5 -97.5t-57.5 -143.5t-18.5 -174zM645 -137q0 23 6 31t29 8h231q182 0 318.5 -39t208.5 -92q16 -12 20 -23q1 -2 1 -6q0 -9 -7 -23l-76 -139 q-10 -20 -24 -23q-2 -1 -5 -1q-13 0 -34 12q-80 41 -192.5 69.5t-266.5 28.5h-174q-23 0 -29 9.5t-6 29.5v158z" />
<glyph unicode="R" horiz-adv-x="1370" d="M154 43v1268q0 61 24.5 93t97.5 32h502q223 0 345 -113t122 -303q0 -104 -49 -196.5t-141 -141.5l2 -10q70 -31 98.5 -87.5t46.5 -127.5l105 -410q2 -5 2 -11q1 -8 -3 -18q-6 -18 -30 -18h-215q-23 0 -47.5 5t-34.5 36l-90 362q-27 100 -79 139.5t-144 39.5h-199v-539 q0 -29 -8 -36t-39 -7h-219q-25 0 -36 9t-11 34zM469 834h272q90 0 137.5 45.5t47.5 119.5q0 27 -8.5 55.5t-28 52t-54 39t-87.5 15.5h-279v-327z" />
<glyph unicode="S" horiz-adv-x="1228" d="M71 128q-1 3 -1 7q0 12 8 33l69 164q10 25 22.5 29t35.5 -7q41 -16 90 -33.5t101.5 -31t106.5 -22.5t107 -9q63 0 106.5 12.5t70 32t37 45t10.5 53.5q0 31 -11.5 55.5t-37 48t-69.5 45t-110 46.5q-109 41 -196.5 84t-151 95t-97.5 116.5t-34 150.5t29.5 162t89 132.5 t151.5 89t217 32.5q57 0 120 -6t123.5 -18.5t115.5 -30t100 -39.5q25 -12 28 -23.5t-7 -42.5l-54 -153q-10 -29 -20 -33t-35 2q-96 29 -191.5 47.5t-179.5 18.5q-90 0 -126.5 -33t-36.5 -80q0 -27 12 -49.5t39.5 -44t74 -44t113.5 -48.5q104 -41 192.5 -83t151 -95.5 t98 -125t35.5 -171.5q0 -109 -38.5 -189t-108.5 -133t-169 -80t-218 -27q-66 0 -137.5 7.5t-142 23t-138.5 40t-125 58.5q-16 10 -19 22z" />
<glyph unicode="T" horiz-adv-x="1175" d="M25 1208v183q0 27 8 35t30 8h1049q25 0 33 -8.5t8 -34.5v-183q0 -41 -41 -41h-371v-1124q0 -27 -9 -35t-40 -8h-219q-25 0 -36 9t-11 34v1124h-363q-39 0 -38 41z" />
<glyph unicode="U" horiz-adv-x="1468" d="M152 1391q0 25 12 34t35 9h219q31 0 40 -8.5t9 -34.5v-813q0 -84 14.5 -146.5t51 -103.5t99 -60.5t161.5 -19.5q14 0 38.5 1t54 2t61.5 4t59 9v1127q0 25 11 34t36 9h217q31 0 38 -8.5t7 -34.5v-1192q0 -72 -32 -123t-118 -74q-41 -10 -90 -15t-98 -7.5t-92 -3.5t-70 -1 q-176 0 -302 30t-206 101.5t-116.5 190.5t-36.5 299z" />
<glyph unicode="V" horiz-adv-x="1359" d="M29 1401q-2 6 -2 12q0 7 3 13q5 10 23 10h246q29 0 39 -9.5t16 -27.5l215 -694l105 -363h14l96 358l220 705q6 20 19 25.5t36 5.5h250q20 0 23 -12q1 -5 1 -11q0 -7 -2 -12l-440 -1292q-12 -37 -25.5 -57.5t-31 -32t-40 -15.5t-51.5 -4h-127q-31 0 -53 4t-39.5 16.5 t-32 34t-26.5 56.5z" />
<glyph unicode="W" horiz-adv-x="1851" d="M29 1397q-3 12 -3 21q0 11 5 14q8 6 30 6h250q29 0 44.5 -7.5t21.5 -37.5l102 -594l62 -367h14l78 371l110 516q16 66 43 91.5t93 25.5h118q61 0 83 -26t36 -83l115 -539l74 -348h12l57 348l105 601q4 31 15 39t38 8h264q18 0 26 -8q4 -4 5 -12q0 -8 -4 -21l-291 -1291 q-10 -39 -21.5 -60t-28 -32.5t-39 -13.5t-50.5 -2h-113q-31 0 -53.5 3t-39 15.5t-28.5 35t-22 59.5l-119 544l-80 377h-12l-86 -377l-125 -544q-16 -72 -46 -92.5t-91 -20.5h-119q-29 0 -51.5 2t-39 12t-28.5 30.5t-21 59.5z" />
<glyph unicode="X" horiz-adv-x="1265" d="M18 14q-2 6 -3 11q0 8 5 16l437 704l-400 652q-10 12 -4 25.5t29 13.5h240q41 0 56 -8.5t32 -36.5l225 -400l223 400q16 29 31.5 37t56.5 8h236q23 0 27.5 -13.5t-5.5 -27.5l-395 -647l436 -707q5 -8 5 -16q0 -5 -3 -11q-6 -14 -22 -14h-256q-37 0 -54.5 9t-33.5 38 l-250 445l-248 -445q-18 -29 -34.5 -38t-55.5 -9h-252q-17 0 -23 14z" />
<glyph unicode="Y" horiz-adv-x="1280" d="M20 1422q5 14 27 14h258q29 0 40 -10.5t22 -34.5l137 -285l131 -293h12l135 303l136 281q10 20 21 29.5t34 9.5h260q30 0 30 -16q0 -10 -6 -21l-456 -871v-487q0 -23 -8.5 -32t-36.5 -9h-224q-43 0 -43 41v483l-469 873q-3 5 -3 12q0 6 3 13z" />
<glyph unicode="Z" horiz-adv-x="1288" d="M61 111v49q0 49 17.5 85t48.5 72l692 840l-2 12h-622q-39 0 -39 43v179q0 29 7 37t32 8h895q66 0 94 -25t28 -92v-68q0 -47 -22.5 -87t-48.5 -72l-668 -811l4 -15h705q23 0 30 -8t7 -37v-178q0 -25 -7.5 -34t-29.5 -9h-1002q-59 0 -89 25.5t-30 85.5z" />
<glyph unicode="[" horiz-adv-x="747" d="M156 -141v1573q0 20 8 31.5t31 11.5h446q20 0 25.5 -8.5t5.5 -24.5v-156q0 -16 -5 -23.5t-30 -7.5h-199v-1220h203q20 0 25.5 -7.5t5.5 -23.5v-154q0 -20 -5 -27t-26 -7h-446q-23 0 -31 11t-8 32z" />
<glyph unicode="\" horiz-adv-x="944" d="M25 1554q-10 20 1 29.5t29 9.5h170q29 0 40 -9t20 -28l639 -1714q12 -39 -33 -39h-164q-29 0 -43 7.5t-22 29.5z" />
<glyph unicode="]" horiz-adv-x="759" d="M135 4q0 16 6 23.5t27 7.5h201v1220h-201q-20 0 -26.5 7.5t-6.5 23.5v152q0 23 6 30t27 7h442q25 0 34 -11.5t9 -31.5v-1573q0 -20 -9 -31.5t-34 -11.5h-444q-20 0 -25.5 7t-5.5 30v151z" />
<glyph unicode="^" horiz-adv-x="1193" d="M77 785.5q-5 11.5 5 27.5l375 617q14 23 35.5 42t56.5 19h78q47 0 64.5 -15.5t33.5 -43.5l373 -615q12 -18 4 -29.5t-25 -11.5h-192q-20 0 -34.5 6t-25.5 25l-233 405h-6l-228 -397q-14 -25 -27.5 -33t-39.5 -8h-189q-20 0 -25 11.5z" />
<glyph unicode="_" horiz-adv-x="1024" d="M-35 -190q0 29 6 37t29 8h1024q23 0 30 -8.5t7 -36.5v-68q0 -23 -7 -33t-30 -10h-1024q-23 0 -29 10t-6 33v68z" />
<glyph unicode="`" horiz-adv-x="1120" d="M265 1563.5q3 11.5 20 15.5l213 53q23 4 32 -2t15 -20l141 -359q10 -20 4 -27t-22 -12l-113 -41q-16 -4 -25.5 -0.5t-21.5 19.5l-238 352q-8 10 -5 21.5z" />
<glyph unicode="a" horiz-adv-x="1179" d="M92 319q0 80 26.5 146.5t80 116t134.5 77t191 27.5h226v33q0 29 -6.5 55.5t-26 46t-54 31.5t-92.5 12q-31 0 -69.5 -3t-77.5 -8t-76 -12t-65 -16q-27 -6 -37 0t-15 27l-32 143q-6 23 -1 32t21 15q92 33 193.5 47.5t201.5 14.5q223 0 328 -95.5t105 -281.5v-594 q0 -27 -7.5 -45t-35.5 -35q-47 -23 -101.5 -37t-111 -22t-113.5 -12.5t-109 -4.5q-139 0 -230 27t-146.5 73t-78 108.5t-22.5 133.5zM399 342q0 -72 48.5 -100.5t130.5 -28.5q12 0 32.5 1t44 4t48 8t45.5 14v247h-162q-29 0 -61.5 -4t-60.5 -19t-46.5 -44t-18.5 -78z" />
<glyph unicode="b" horiz-adv-x="1236" d="M133 119v1337q0 25 10.5 33t34.5 8h211q23 0 33 -7t10 -34v-385q53 16 116.5 24.5t125.5 8.5q125 0 214 -43t146.5 -118t84 -177t26.5 -219q0 -119 -30 -222.5t-94.5 -180t-166.5 -122t-246 -45.5q-111 0 -227.5 18.5t-210.5 61.5q-25 10 -31 24.5t-6 37.5zM432 252 q41 -12 86 -16.5t74 -4.5q113 0 178.5 70t65.5 240q0 156 -59.5 231.5t-166.5 75.5q-27 0 -78 -5t-100 -22v-569z" />
<glyph unicode="c" horiz-adv-x="1046" d="M92 535q0 131 36 236.5t101.5 179t160.5 112.5t212 39q86 0 170 -17.5t154 -52.5q27 -12 29.5 -22.5t-7.5 -34.5l-57 -158q-10 -23 -22.5 -24.5t-41.5 6.5q-53 16 -104 26.5t-98 10.5q-61 0 -103.5 -25t-69 -65.5t-39 -95t-12.5 -115.5q0 -63 10.5 -116.5t37 -92.5 t70.5 -60.5t112 -21.5q66 0 128 15t107 32q27 10 36 7t18 -26l57 -153q9 -18 9 -30q0 -14 -23 -28q-90 -49 -192.5 -66.5t-186.5 -17.5q-242 0 -367 139.5t-125 418.5z" />
<glyph unicode="d" horiz-adv-x="1236" d="M92 528q0 115 29 219.5t88 183.5t153.5 125t223.5 46q53 0 103 -4t114 -19v375q0 25 9 33t36 8h209q23 0 34 -7t11 -34v-1261v-46.5t-4 -46.5q-2 -23 -31 -41t-73 -31.5t-98 -23.5t-107.5 -15t-100.5 -8.5t-78 -3.5q-147 0 -246.5 41t-160 115t-86 174t-25.5 221z M401 524q0 -164 64.5 -229.5t179.5 -65.5q29 0 77 6.5t81 18.5v571q-53 12 -94 16.5t-74 4.5q-104 0 -169 -76t-65 -246z" />
<glyph unicode="e" horiz-adv-x="1163" d="M92 532q0 135 36 241t102.5 179.5t159.5 111.5t210 38q240 0 359.5 -120t119.5 -343q0 -106 -41 -145t-112 -39h-525q2 -66 21.5 -109t52.5 -69.5t77 -37t95 -10.5q59 0 120.5 14.5t115.5 37.5q25 8 34 5t17 -20l65 -147q8 -18 3 -28.5t-21 -20.5q-76 -49 -176 -71 t-187 -22q-268 0 -397 133.5t-129 421.5zM408 645h383q0 45 -9.5 84t-30 66.5t-55.5 44t-90 16.5q-84 0 -137 -59.5t-61 -151.5z" />
<glyph unicode="f" horiz-adv-x="827" d="M23 887v117q0 18 7 27t29 16l144 32v117q0 141 78.5 231.5t255.5 90.5q14 0 44.5 -1t67.5 -4.5t77 -10.5t77 -17q23 -8 25 -17v-6q0 -8 -3 -20l-34 -170q-4 -18 -13.5 -22.5t-25.5 -0.5q-35 6 -75 10.5t-65 4.5q-70 0 -91 -28t-21 -69v-92h245q18 0 24.5 -6t6.5 -27v-157 q0 -16 -5 -24.5t-30 -8.5h-241v-815q0 -25 -9.5 -31t-31.5 -6h-213q-20 0 -31.5 6t-11.5 33v813h-150q-23 0 -26.5 9t-3.5 26z" />
<glyph unicode="g" horiz-adv-x="1236" d="M92 539q0 117 32 219t97.5 178t166.5 119t243 43q111 0 224.5 -17.5t207.5 -60.5q27 -14 34 -27.5t7 -36.5v-845q0 -145 -38 -247t-110.5 -169.5t-179 -106.5t-244.5 -57q-10 -2 -17 -2q-9 0 -13 3q-8 5 -13 26l-26 196q-4 23 3 28t23 9q57 10 113.5 24.5t101 40t72 65.5 t27.5 99v13q-53 -16 -115.5 -23.5t-124.5 -7.5q-123 0 -212 39t-146.5 109.5t-85 169t-27.5 219.5zM401 545q0 -158 60.5 -223.5t167.5 -65.5q25 0 76 5t100 22v540q-41 12 -85 17.5t-73 5.5q-55 0 -101 -16.5t-78 -51.5t-49.5 -92t-17.5 -141z" />
<glyph unicode="h" horiz-adv-x="1247" d="M133 37v1421q0 39 41 39h213q29 0 36 -8t7 -31v-387q53 16 122 24.5t118 8.5q223 0 334.5 -119t111.5 -336v-612q0 -25 -8 -31t-37 -6h-213q-23 0 -33 7t-10 30v573q0 53 -9 97.5t-32.5 75t-62.5 48t-99 17.5q-41 0 -92 -6t-90 -21v-784q0 -25 -7 -31t-36 -6h-211 q-23 0 -33 7t-10 30z" />
<glyph unicode="i" horiz-adv-x="638" d="M154 1356q0 37 13 67.5t36.5 53t54.5 36t66 13.5t66.5 -13.5t55 -36t37 -53t13.5 -67.5q0 -72 -50.5 -120t-121.5 -48q-70 0 -120 48t-50 120zM172 37v1001q0 23 10.5 30t32.5 7h209q29 0 37 -7t8 -30v-1001q0 -23 -8 -30t-37 -7h-209q-23 0 -33 7t-10 30z" />
<glyph unicode="j" horiz-adv-x="653" d="M-49 -222q6 9 29 21q61 31 100 66t62.5 78t31.5 94t8 117v884q0 23 9.5 30t31.5 7h215q29 0 35 -7t6 -30v-882q0 -147 -30.5 -250t-85 -173.5t-126 -113.5t-151.5 -70q-24 -8 -36 -8q-4 0 -7 1q-12 3 -20 24l-68 176q-6 17 -6 27q0 6 2 9zM164 1356q0 37 13 67.5t37 53 t55.5 36t66.5 13.5q72 0 121 -49t49 -121t-49 -120t-121 -48t-122 48t-50 120z" />
<glyph unicode="k" horiz-adv-x="1130" d="M131 39v1421q0 23 10.5 30t32.5 7h213q29 0 35 -6t6 -31v-758l8 -4l293 349q16 16 27.5 22t40.5 6h250q29 0 31.5 -13t-11.5 -30l-274 -319l317 -672q4 -10 4 -18q0 -23 -35 -23h-237q-25 0 -38 7t-24 32l-194 438l-156 -176v-52v-72t-1 -74.5t-1 -63.5q0 -23 -7 -31 t-36 -8h-211q-43 0 -43 39z" />
<glyph unicode="l" horiz-adv-x="675" d="M147 262v1196q0 29 11.5 34t34.5 5h208q23 0 34 -7t11 -30v-1136q0 -51 14.5 -73t61.5 -22q16 0 39 2t37 5q18 2 25.5 -3.5t9.5 -21.5l18 -156q2 -9 2 -16q0 -10 -4 -14q-6 -7 -28 -17q-43 -16 -105.5 -23.5t-109.5 -7.5q-61 0 -109.5 13.5t-81.5 45.5t-50.5 87 t-17.5 139z" />
<glyph unicode="m" horiz-adv-x="1908" d="M133 37v874q0 70 22.5 111t104.5 59q18 4 52 7.5t74 6.5t81 5t70 2q127 0 220 -22.5t163 -73.5q68 45 165 71.5t195 26.5q133 0 227.5 -37t153.5 -104.5t87 -160.5t28 -204v-561q0 -23 -8.5 -30t-36.5 -7h-209q-23 0 -33 7t-10 30v526q0 139 -49.5 213t-182.5 74 q-39 0 -95 -10.5t-89 -26.5q18 -51 25.5 -109.5t7.5 -125.5v-541q0 -23 -8.5 -30t-36.5 -7h-211q-23 0 -33 7t-10 30v553q0 63 -10.5 112.5t-36 83t-71.5 52t-118 18.5q-23 0 -62.5 -2t-68.5 -8v-809q0 -23 -7 -30t-36 -7h-211q-23 0 -33 7t-10 30z" />
<glyph unicode="n" horiz-adv-x="1247" d="M133 37v878q0 70 24.5 110t102.5 56q20 4 58 7.5t81 6.5t85 5t73 2q143 0 247.5 -29t173.5 -91t102.5 -163.5t33.5 -247.5v-534q0 -23 -7 -30t-36 -7h-213q-23 0 -33 7t-10 30v553q0 68 -11 117t-39 82.5t-76 50t-120 16.5q-20 0 -58 -1t-81 -9v-809q0 -23 -7 -30t-36 -7 h-211q-23 0 -33 7t-10 30z" />
<glyph unicode="o" horiz-adv-x="1218" d="M92 539q0 131 36 236.5t102.5 177t161.5 110.5t216 39q258 0 388 -148.5t130 -410.5q0 -270 -129 -418t-393 -148q-266 0 -389 147.5t-123 414.5zM399 543q0 -154 48.5 -234t158.5 -80q57 0 97 23.5t66 65.5t37 97.5t11 121.5q0 70 -10 127t-34.5 98t-63.5 64.5t-97 23.5 q-109 0 -161 -83t-52 -224z" />
<glyph unicode="p" horiz-adv-x="1236" d="M133 -383v1335q0 23 7 36t34 28q98 45 220 63.5t233 18.5q145 0 244.5 -44t160 -119t87 -177.5t26.5 -218.5q0 -115 -29 -216.5t-88 -177t-150.5 -119.5t-213.5 -44q-61 0 -113.5 5t-118.5 19v-389q0 -23 -7 -29t-36 -6h-213q-23 0 -33 6t-10 29zM432 260q53 -14 95 -18 t75 -4q102 0 167 69.5t65 237.5q0 84 -16.5 141t-48.5 92t-78 49.5t-103 14.5q-29 0 -75 -6.5t-81 -16.5v-559z" />
<glyph unicode="q" horiz-adv-x="1236" d="M92 522q0 123 31 227.5t95.5 182.5t166.5 122t246 44q111 0 224.5 -18.5t207.5 -61.5q27 -12 34 -26.5t7 -35.5v-1339q0 -23 -7 -31t-36 -8h-213q-43 0 -43 39v397q-53 -16 -116.5 -24t-125.5 -8q-125 0 -214 39.5t-146.5 112.5t-84 172.5t-26.5 215.5zM401 539 q0 -158 60.5 -229.5t167.5 -71.5q25 0 76 5t100 21v557q-41 12 -85 17.5t-73 5.5q-113 -2 -179.5 -69.5t-66.5 -235.5z" />
<glyph unicode="r" horiz-adv-x="956" d="M147 37v872q0 80 28 122t118 56q37 4 76 7.5t80 3.5q135 0 267 -35t234 -111q16 -12 16 -22.5t-8 -24.5l-106 -170q-12 -20 -22.5 -18t-32.5 16q-57 43 -123 70.5t-148 30.5q-43 0 -82 -7v-790q0 -25 -8 -31t-37 -6h-209q-23 0 -33 7t-10 30z" />
<glyph unicode="s" horiz-adv-x="1017" d="M66 100q-1 3 0 6q0 10 8 25l59 141q10 23 21.5 28t33.5 -5q33 -14 74 -27.5t85 -24t85 -16.5t74 -6q74 0 103.5 25.5t29.5 64.5q0 41 -42 70t-144 68q-82 31 -144.5 63.5t-105.5 70.5t-65.5 86t-22.5 111q0 68 24.5 126.5t73.5 101.5t124 68.5t177 25.5q92 0 187.5 -17.5 t172.5 -52.5q23 -10 25 -21.5t-6 -35.5l-51 -131q-8 -23 -18.5 -26t-32.5 5q-76 23 -139.5 35t-131.5 12q-55 0 -79.5 -25.5t-24.5 -51.5q0 -41 38 -68t132 -61q74 -29 139.5 -59t113.5 -69.5t76.5 -95t28.5 -133.5q0 -166 -117.5 -248t-308.5 -82q-106 0 -224 24t-208 77 q-16 10 -20 22z" />
<glyph unicode="t" horiz-adv-x="862" d="M31 895v111q0 20 5 27t27 14l152 34l14 193q2 25 13.5 35t33.5 16l189 61q6 1 11 1q10 0 18 -5q12 -8 12 -32v-275h225q23 0 28 -9t5 -26v-145q0 -20 -4 -29.5t-29 -9.5h-225v-520q0 -59 29.5 -82t89.5 -23q14 0 34.5 2.5t42 4.5t42 4t34.5 4q33 6 35 -21l25 -172 q2 -14 2 -23.5t-23 -17.5q-76 -23 -151.5 -29t-128.5 -6q-176 0 -252 75t-76 220v584h-143q-23 0 -29 11.5t-6 27.5z" />
<glyph unicode="u" horiz-adv-x="1228" d="M133 508v530q0 23 7 31t36 8h213q43 0 43 -39v-549q0 -68 8.5 -117.5t33 -83.5t69 -50.5t116.5 -16.5q20 0 58.5 2t81.5 8v807q0 23 7 31t36 8h211q43 0 43 -39v-874q0 -70 -28 -111t-99 -57q-25 -4 -62 -8t-79 -7.5t-82.5 -4.5t-71.5 -1q-147 0 -251 29t-168.5 92.5 t-93 164.5t-28.5 247z" />
<glyph unicode="v" horiz-adv-x="1140" d="M28 1068q7 7 27 7h232q33 0 43 -7t18 -30l131 -420l94 -346h13l94 349l125 415q6 23 15 31t42 8h228q26 0 26 -18q0 -7 -4 -15l-319 -944q-23 -70 -53.5 -89t-88.5 -19h-153q-49 0 -79 20.5t-54 87.5l-336 940q-4 12 -4 20q0 7 3 10z" />
<glyph unicode="w" horiz-adv-x="1626" d="M31 1040q-3 10 -3 17q0 9 5 13q8 7 28 7h232q25 0 36 -4t17 -29l70 -364l55 -332h12l72 258l92 320q16 51 41 74.5t82 23.5h107q53 0 71.5 -26.5t34.5 -71.5l94 -316l74 -264h12l49 326l68 370q4 23 12 28t33 5l240 2q20 0 27 -7q4 -4 4 -15q0 -6 -1 -15l-235 -940 q-18 -70 -49 -90t-80 -20h-107q-29 0 -48 3t-34.5 14t-26.5 32.5t-24 56.5l-90 295l-80 279h-10l-84 -283l-92 -291q-25 -66 -50.5 -86t-80.5 -20h-113q-49 0 -78.5 20.5t-48.5 89.5z" />
<glyph unicode="x" horiz-adv-x="1071" d="M16 12q-2 4 -2 9q0 10 9 24l346 522l-310 471q-8 10 -5 23.5t24 13.5h246q29 0 44 -8t25 -31l144 -264l145 264q12 23 26.5 31t43.5 8h241q23 0 25 -12t-2 -23l-316 -469l349 -528q7 -11 7 -22q0 -3 -1 -7q-4 -14 -29 -14h-240q-35 0 -48 11.5t-25 33.5l-178 315 l-183 -315q-12 -23 -27.5 -34t-45.5 -11h-234q-23 0 -29 12z" />
<glyph unicode="y" horiz-adv-x="1144" d="M25 1036q-4 11 -4 18q0 9 5 13q9 8 25 8h240q31 0 42 -7t17 -30l117 -413l96 -357h12l105 363l123 403q6 23 16 32t41 9h244q26 0 26 -18q0 -6 -4 -15l-413 -1222v2q-47 -141 -135.5 -201.5t-233.5 -60.5q-41 0 -95 6t-108 22q-25 6 -32 14.5t0 30.5l34 162q6 25 14.5 27 t30.5 -2q33 -6 55.5 -8t45.5 -2q72 0 112.5 23.5t63.5 94.5l37 111h-60q-47 0 -67.5 16.5t-38.5 71.5z" />
<glyph unicode="z" horiz-adv-x="1032" d="M47 88v62q0 31 9.5 61.5t39.5 64.5l490 553l-4 9h-447q-25 0 -31 8t-6 31v159q0 39 39 39h729q51 0 77 -15.5t26 -66.5v-71q0 -31 -9.5 -61t-31.5 -56l-492 -553l4 -10h500q23 0 31 -7.5t8 -29.5v-166q0 -23 -7 -31t-30 -8h-797q-51 0 -74.5 23.5t-23.5 64.5z" />
<glyph unicode="{" horiz-adv-x="860" d="M135 594v139q0 14 6 19.5t25 9.5q49 4 81 39t32 110v164q0 205 105 299t337 99q29 2 29 -27v-158q0 -27 -27 -31q-55 -2 -88 -15t-50.5 -36.5t-21.5 -55.5t-4 -73v-139q0 -225 -149 -281v-6q76 -29 112.5 -94t36.5 -182v-172q0 -41 5 -73t22.5 -55.5t49.5 -37.5t85 -17 q29 -2 29 -24v-164q0 -29 -27 -29q-225 4 -334.5 100.5t-109.5 301.5v209q0 74 -32 109.5t-81 39.5q-16 4 -23.5 9.5t-7.5 21.5z" />
<glyph unicode="|" horiz-adv-x="548" d="M160 -295v1872q0 43 41 43h157q29 0 36 -9t7 -34v-1872q0 -25 -7 -34t-36 -9h-157q-41 0 -41 43z" />
<glyph unicode="}" horiz-adv-x="860" d="M139 -2q0 23 27 25q53 2 85 16t49 37.5t22.5 55.5t5.5 73v172q0 117 37.5 182.5t113.5 93.5v6q-152 53 -151 281v139q0 41 -4.5 74t-20.5 55.5t-49 35.5t-88 18q-27 0 -27 28v158q0 27 27 27q233 -4 338.5 -98.5t105.5 -299.5v-164q0 -76 32 -111.5t79 -39.5 q20 -2 26.5 -8t6.5 -21v-137q0 -29 -31 -31q-47 -4 -80 -41t-33 -110v-209q0 -205 -109.5 -299t-336.5 -101q-16 0 -20.5 6.5t-4.5 22.5v164z" />
<glyph unicode="~" d="M143.5 570.5q-0.5 9.5 8.5 21.5q66 96 140.5 140t166.5 44q57 0 111.5 -18.5t105.5 -41t98 -41t90 -18.5q47 0 81 25t71 68q18 27 43 10l123 -90q14 -10 14 -20.5t-8 -24.5q-53 -86 -136 -139.5t-178 -53.5q-55 0 -108 18.5t-104.5 41t-100.5 41t-92 18.5 q-47 0 -83 -17.5t-73 -58.5q-10 -12 -19 -16t-24 6l-114 86q-12 10 -12.5 19.5z" />
<glyph unicode="&#xa1;" horiz-adv-x="616" d="M129 901q0 76 53.5 127t130.5 51q78 0 131.5 -51t53.5 -127t-53.5 -127t-131.5 -51t-131 51t-53 127zM156 -328l45 879q2 25 13 34t40 9h123q41 0 43 -39l45 -883q2 -18 -5 -32.5t-40 -14.5h-215q-31 0 -41 13.5t-8 33.5z" />
<glyph unicode="&#xa2;" d="M199 535q0 252 125 400t342 165v168q0 18 7 23t21 5h64q16 0 21 -5t5 -23v-170q66 -6 130.5 -22.5t117.5 -43.5q27 -12 30 -22.5t-7 -34.5l-58 -158q-10 -23 -22 -24.5t-41 6.5q-39 12 -77 20t-73 12v-585q53 4 102.5 17t86.5 28q27 10 36 7t17 -26l57 -153 q10 -20 9.5 -32.5t-23.5 -25.5q-66 -37 -140.5 -55t-144.5 -24v-177q0 -18 -5 -23t-21 -5h-64q-14 0 -21 5t-7 23v172q-229 8 -348 146.5t-119 411.5zM508 535q0 -109 32.5 -185t125.5 -98v573q-86 -25 -122 -105.5t-36 -184.5z" />
<glyph unicode="&#xa3;" d="M162 629v112q0 23 7 32t30 9h110q-10 47 -23.5 105.5t-13.5 118.5q0 100 39 173.5t106.5 121t161 71t201.5 23.5q104 0 196.5 -20.5t170.5 -63.5q27 -16 27 -27.5t-15 -42.5l-55 -127q-10 -27 -21.5 -32t-42.5 5q-66 23 -124 34.5t-121 11.5q-82 0 -141.5 -37t-59.5 -115 q0 -35 8 -89t25 -110h321q23 0 29 -6t6 -35v-112q0 -23 -6 -30t-29 -7h-307q4 -51 0 -98q-4 -59 -17.5 -124t-56.5 -118h580q23 0 30 -6t7 -35v-174q0 -23 -7.5 -30t-29.5 -7h-879q-43 0 -71.5 19.5t-28.5 60.5v59q0 41 12.5 66.5t44.5 60.5q57 53 78 108.5t29 114.5 q6 39 4 103h-137q-23 0 -30 7t-7 30z" />
<glyph unicode="&#xa4;" horiz-adv-x="1077" d="M20.5 197.5q2.5 17.5 20.5 35.5l104 103q-35 51 -51 110.5t-16 124.5q0 66 14 123.5t47 104.5l-94 96q-18 18 -21.5 35.5t19.5 40.5q8 6 33.5 31.5l58.5 58.5q20 20 36.5 20t33.5 -16l98 -102q102 57 223 57q125 0 226 -59q8 10 24.5 25t31.5 31.5t28.5 29t17.5 16.5 q35 37 74 -2l90 -84q39 -41 6 -76l-111 -108q59 -100 60 -222q0 -125 -60 -225q6 -8 21.5 -22.5t32 -29.5t31 -30.5t22.5 -23.5q37 -31 -4 -76l-88 -90q-37 -33 -74 4l-104 104q-49 -29 -106.5 -45t-117.5 -16q-59 0 -112.5 15.5t-100.5 41.5l-23.5 -23.5t-31.5 -33 t-31.5 -33.5t-23.5 -22q-37 -33 -72 4q-4 4 -17.5 17t-28.5 27.5t-28.5 28t-15.5 17.5q-23 20 -20.5 37.5zM307 565q0 -45 17.5 -85t46 -69.5t68.5 -47t85 -17.5t85 17.5t70 47t47 69.5t17 85t-17 85t-47 70t-70 47t-85 17t-85 -17t-69.5 -47t-46 -70t-16.5 -85z" />
<glyph unicode="&#xa5;" d="M89 1362.5q5 13.5 30 13.5h246q31 0 41 -8t20 -31l127 -282l113 -275h10l112 277l125 284q8 18 19.5 26.5t34.5 8.5h256q27 0 27.5 -12t-5.5 -25l-262 -524h191q23 0 26.5 -9t3.5 -28v-90q0 -20 -4 -28.5t-26 -8.5h-996q-23 0 -27 8.5t-4 28.5v90q0 18 4.5 27.5t26.5 9.5 h178l-266 524q-6 10 -1 23.5zM147 426v90q0 18 4.5 27.5t26.5 9.5h996q23 0 26.5 -9t3.5 -28v-90q0 -20 -4 -28.5t-26 -8.5h-349v-354q0 -23 -7 -29t-36 -6h-217q-41 0 -41 35v354h-346q-23 0 -27 8.5t-4 28.5z" />
<glyph unicode="&#xa6;" horiz-adv-x="548" d="M160 -295v838q0 39 41 39h157q29 0 36 -8.5t7 -30.5v-838q0 -25 -7 -34t-36 -9h-157q-41 0 -41 43zM160 729v842q0 41 41 41h157q29 0 36 -9.5t7 -31.5v-842q0 -23 -7 -32t-36 -9h-157q-41 0 -41 41z" />
<glyph unicode="&#xa7;" horiz-adv-x="1275" d="M158 743q0 72 40 151t128 130q-25 37 -40.5 77t-15.5 81q0 63 24.5 122.5t75 104.5t125 71.5t177.5 26.5q86 0 171 -12t169 -51q20 -10 22 -21.5t-8 -36.5l-49 -122q-8 -23 -17.5 -28t-33.5 5q-53 20 -108.5 31.5t-104.5 11.5q-160 0 -160 -92q0 -27 17.5 -54.5t45 -55 t62.5 -56.5t72 -59q84 -68 152.5 -127.5t116.5 -114.5t74.5 -110.5t26.5 -114.5q0 -72 -44 -143.5t-122 -120.5q29 -43 45.5 -83t16.5 -85q0 -61 -25.5 -120t-80 -104t-140.5 -71.5t-207 -26.5q-90 0 -172 16.5t-160 57.5q-31 18 -12 51l57 133q8 20 17.5 24.5t32.5 -5.5 l94 -32t119 -16q88 0 125.5 33t37.5 72q0 43 -49 94t-114 105q-76 57 -145.5 113.5t-122 112.5t-83 115.5t-30.5 122.5zM438 766q0 -27 11.5 -51.5t37 -53t65.5 -64.5t97 -85q31 -29 74 -66.5t74 -60.5q43 43 43 90q0 33 -12.5 60.5t-37 56.5t-62.5 62.5t-87 76.5 q-45 41 -83 72.5t-73 62.5q-20 -16 -33.5 -42.5t-13.5 -57.5z" />
<glyph unicode="&#xa8;" horiz-adv-x="1157" d="M246 1364q0 31 12 58.5t33.5 48t48.5 33t57 12.5q31 0 58.5 -12.5t49 -33t34 -48t12.5 -58.5t-12.5 -57.5t-34 -47t-49 -33t-58.5 -12.5t-57.5 12.5t-48 33t-33.5 47t-12 57.5zM666 1364q0 61 46 106.5t107 45.5q31 0 57.5 -12.5t48 -33t34 -48t12.5 -58.5t-12.5 -57.5 t-34 -47t-48 -33t-57.5 -12.5t-58.5 12.5t-49 33t-33.5 47t-12 57.5z" />
<glyph unicode="&#xa9;" horiz-adv-x="1712" d="M113 717q0 158 56 293t156.5 234t235.5 155.5t295 56.5t296 -56.5t235.5 -155.5t157 -234t57.5 -293t-57.5 -293t-157 -234.5t-235.5 -156t-296 -56.5t-295 56.5t-235.5 156t-156.5 234.5t-56 293zM258 717q0 -131 45 -241.5t125 -190.5t189.5 -124t238.5 -44t238.5 44 t189.5 124t125 190.5t45 241.5q0 129 -45 238.5t-125 189.5t-189.5 125t-238.5 45t-238.5 -45t-189.5 -125t-125 -189.5t-45 -238.5zM469 702q0 102 28.5 186.5t81 145t125 93t160.5 32.5q92 0 171 -37t122 -90q10 -16 8 -21t-14 -18l-61 -65q-10 -10 -19.5 -14.5 t-26.5 12.5q-37 33 -83 53t-95 20q-106 0 -157.5 -80.5t-51.5 -216.5q0 -129 51.5 -210.5t155.5 -81.5q51 0 95.5 20.5t76.5 50.5q20 20 27.5 17.5t23.5 -17.5l72 -65q18 -16 0 -39q-41 -49 -120 -89t-173 -40q-92 0 -164.5 33.5t-125 95t-80 144.5t-27.5 181z" />
<glyph unicode="&#xaa;" horiz-adv-x="815" d="M55 762q0 109 75 174t230 65h138v11q0 37 -19.5 58.5t-85.5 21.5q-39 0 -96 -5.5t-96 -15.5q-18 -4 -31.5 -2t-19.5 23l-23 102q-4 18 2 27.5t27 17.5q57 20 126.5 28.5t139.5 8.5q158 0 232.5 -64.5t74.5 -189.5v-379q0 -23 -6 -37t-31 -26q-66 -29 -147.5 -40.5 t-155.5 -11.5q-96 0 -160.5 18.5t-103.5 49.5t-54.5 74t-15.5 92zM289 776q0 -37 28.5 -51t79.5 -14q12 0 43 1t58 9v135h-97q-16 0 -35.5 -2t-37 -10t-28.5 -24.5t-11 -43.5z" />
<glyph unicode="&#xab;" horiz-adv-x="1179" d="M119 520q0 25 9 47.5t24 44.5l180 306q16 27 32.5 37t59.5 10h188q18 0 25.5 -13.5t-2.5 -31.5l-238 -402l252 -416q14 -23 5 -34t-31 -11h-187q-43 0 -59.5 10.5t-28.5 32.5l-198 332q-12 23 -21.5 46.5t-9.5 41.5zM551 520q0 25 10 47.5t23 44.5l182 306q16 27 32.5 37 t59.5 10h186q20 0 27.5 -13.5t-4.5 -31.5l-236 -402l252 -416q14 -23 5 -34t-31 -11h-189q-41 0 -57 10.5t-29 32.5l-198 332q-12 23 -22.5 46.5t-10.5 41.5z" />
<glyph unicode="&#xac;" d="M150 625v157q0 29 9 37t31 8h957q20 0 30.5 -8t10.5 -37v-557q0 -23 -8.5 -32t-36.5 -9h-168q-43 0 -43 41v357h-742q-23 0 -31.5 9t-8.5 34z" />
<glyph unicode="&#xad;" horiz-adv-x="813" d="M104 514v184q0 27 7.5 35t29.5 8h521q23 0 29.5 -8t6.5 -35v-184q0 -23 -7 -33t-29 -10h-521q-23 0 -30 10.5t-7 32.5z" />
<glyph unicode="&#xae;" horiz-adv-x="1191" d="M109 979q0 104 37.5 192.5t104 154t157 102t192.5 36.5q104 0 192.5 -36.5t153 -102t101 -155t36.5 -191.5t-38.5 -189.5t-104.5 -152t-155 -100t-189 -35.5q-104 0 -193.5 35.5t-155 100t-102 152t-36.5 189.5zM219 981q0 -80 28.5 -149.5t79 -121t120 -81t149.5 -29.5 t148.5 28.5t118.5 79t79 120t29 153.5q0 80 -29 150.5t-79 122t-118.5 81t-148.5 29.5t-148.5 -29.5t-120 -81t-80 -122t-28.5 -150.5zM395 737v469q0 51 54 51h180q86 0 131 -44t45 -115q0 -41 -20.5 -78t-59.5 -53v-2q33 -10 46 -31t20 -47l38 -148q2 -8 1 -14t-13 -6h-88 q-10 0 -17 2t-12 16q-2 8 -7 26.5t-10 38t-10 38t-7 28.5q-16 66 -80 66h-68v-197q0 -12 -4 -15t-16 -3h-84q-18 0 -19 18zM518 1032h98q33 0 49.5 16.5t16.5 41.5q0 23 -13.5 41t-50.5 18h-100v-117z" />
<glyph unicode="&#xaf;" horiz-adv-x="813" d="M92 1237v123q0 29 9.5 36t31.5 7h555q23 0 32 -7t9 -36v-123q0 -43 -41 -43h-555q-41 0 -41 43z" />
<glyph unicode="&#xb0;" horiz-adv-x="944" d="M135 1104q0 72 25.5 133t72 105t108.5 70t136 26q72 0 134.5 -26t108.5 -70t72.5 -105t26.5 -133q0 -74 -26.5 -135.5t-72.5 -106.5t-109.5 -69.5t-135.5 -24.5t-134 24.5t-108.5 69.5t-72 106.5t-25.5 135.5zM311 1104q0 -78 47.5 -126t118.5 -48q74 0 121 48t47 126 q0 74 -47 121t-121 47q-72 0 -119 -47t-47 -121z" />
<glyph unicode="&#xb1;" d="M150 39v166q0 27 9 34t34 7h948q23 0 32 -7.5t9 -33.5v-166q0 -41 -41 -41h-948q-43 0 -43 41zM152 754v159q0 29 9 37t32 8h339v355q0 43 43 43h189q29 0 37 -9.5t8 -33.5v-355h338q25 0 34 -8t9 -37v-159q0 -43 -43 -43h-338v-355q0 -25 -8 -34t-37 -9h-189 q-43 0 -43 43v355h-339q-41 0 -41 43z" />
<glyph unicode="&#xb2;" horiz-adv-x="870" d="M82 852q0 47 36 105.5t95 109.5q53 47 105.5 82t95.5 61q72 39 93 64.5t21 52.5q0 23 -21.5 40t-72.5 17t-104.5 -17t-104.5 -46q-16 -10 -29.5 -10t-23.5 18l-55 96q-10 16 -9 28.5t19 25.5q66 47 150.5 72.5t164.5 25.5q70 0 130.5 -14.5t104.5 -43t68.5 -73.5 t24.5 -107q0 -94 -62.5 -155.5t-154.5 -114.5q-51 -29 -105.5 -70t-87.5 -86h373q29 0 34 -6t5 -28v-109q0 -23 -6 -31t-29 -8h-528q-59 0 -93 25.5t-34 95.5z" />
<glyph unicode="&#xb3;" horiz-adv-x="870" d="M68.5 827.5q-0.5 10.5 9.5 30.5l57 105q10 12 20.5 12t32.5 -10q47 -25 97.5 -39.5t97.5 -14.5q76 0 111.5 28t35.5 71q0 35 -24.5 57.5t-87.5 22.5h-45q-35 0 -44.5 9t-9.5 42v57q0 27 11.5 36t38.5 9h43q102 0 102 76q0 35 -30.5 49t-69.5 14q-88 0 -183 -45 q-29 -12 -42 -16t-25 18l-51 95q-10 18 -8.5 28.5t20.5 26.5q68 47 155 67.5t162 20.5q61 0 116.5 -12.5t98.5 -40t69 -69.5t26 -103q0 -49 -26 -97.5t-79 -76.5v-7q70 -27 95.5 -80t25.5 -106q0 -123 -99.5 -193.5t-262.5 -70.5q-78 0 -165 19.5t-149 60.5 q-23 16 -23.5 26.5z" />
<glyph unicode="&#xb4;" horiz-adv-x="1075" d="M350.5 1225.5q-2.5 9.5 3.5 25.5l144 357q10 29 25.5 28.5t37.5 -6.5l195 -51q33 -8 16 -37l-240 -352q-12 -18 -21 -20.5t-26 1.5l-114 39q-18 6 -20.5 15.5z" />
<glyph unicode="&#xb6;" horiz-adv-x="1196" d="M115 1044q0 80 27.5 152t78.5 125t124 85t163 32h174q29 0 29 -31v-719q0 -18 -6.5 -24.5t-22.5 -6.5h-174q-92 0 -166 30t-124 82t-76.5 123t-26.5 152zM539 -133q-4 29 26 35q76 8 124 27.5t77 49t40 69.5t11 93v1268q0 14 10.5 21.5t24.5 7.5h178q35 0 35 -29v-1298 q0 -217 -123 -316.5t-346 -113.5q-14 0 -23.5 3t-13.5 25z" />
<glyph unicode="&#xb7;" horiz-adv-x="606" d="M115 600q0 39 14 73t40 58.5t60.5 38.5t73.5 14q80 0 134.5 -53t54.5 -131q0 -76 -54.5 -129t-134.5 -53q-39 0 -73.5 14t-60.5 39t-40 57.5t-14 71.5z" />
<glyph unicode="&#xb8;" horiz-adv-x="1054" d="M294 -459q-1 8 5 29l25 74q8 23 14 23.5t22 -3.5q41 -14 76 -21.5t74 -7.5q49 0 77.5 16.5t28.5 53.5q0 35 -34.5 49.5t-85.5 14.5q-35 0 -46.5 1t-21.5 11q-12 10 -10 26.5t8 34.5l84 215q4 4 8 10.5t19 6.5h94q16 0 16 -7.5t-4 -11.5l-65 -166q76 -4 126 -22.5 t80.5 -45t43 -58t12.5 -64.5q0 -41 -15.5 -80t-49.5 -69.5t-87 -49t-131 -18.5q-33 0 -67.5 4t-67.5 10t-61.5 14.5t-49.5 16.5q-16 6 -17 14z" />
<glyph unicode="&#xb9;" horiz-adv-x="870" d="M160 1366v104q0 18 5 29.5t30 18.5l229 57q55 14 93 2t38 -76v-588h133q27 0 33 -6t6 -28v-109q0 -23 -6 -31t-33 -8h-487q-25 0 -31 7t-6 30v111q0 23 6 28.5t31 5.5h121v447l-121 -23q-25 -4 -33 4.5t-8 24.5z" />
<glyph unicode="&#xba;" horiz-adv-x="841" d="M55 903q0 174 96.5 273.5t268.5 99.5q180 0 273 -99.5t93 -273.5q0 -178 -91 -276.5t-277 -98.5q-188 0 -275.5 97.5t-87.5 277.5zM295 905q0 -90 28.5 -137t94.5 -47q70 0 98.5 51t28.5 129q0 82 -26.5 132t-96.5 50q-66 0 -96.5 -48t-30.5 -130z" />
<glyph unicode="&#xbb;" horiz-adv-x="1179" d="M95 68.5q-9 11.5 5 33.5l254 416l-237 402q-12 18 -5 31.5t27 13.5h189q41 0 57 -10.5t33 -36.5l182 -306q12 -23 22.5 -45t10.5 -47q0 -18 -10.5 -41.5t-22.5 -46.5l-199 -332q-10 -23 -27.5 -33t-58.5 -10h-188q-23 0 -32 11.5zM529 68.5q-9 11.5 6 33.5l251 416 l-235 402q-12 18 -5 31.5t27 13.5h187q43 0 59.5 -10.5t32.5 -36.5l180 -306q14 -23 24.5 -45t10.5 -47q0 -18 -10 -41.5t-23 -46.5l-198 -332q-12 -23 -28.5 -33t-57.5 -10h-189q-23 0 -32 11.5z" />
<glyph unicode="&#xbc;" horiz-adv-x="1986" d="M186 1182v104q0 18 5.5 29.5t29.5 17.5l230 58q55 14 93 1.5t38 -75.5v-588h133q27 0 33 -6t6 -29v-108q0 -23 -6.5 -31t-32.5 -8h-488q-25 0 -31 7t-6 30v110q0 23 6.5 29t30.5 6h121v447l-121 -23q-25 -4 -33 4t-8 25zM466 -54.5q-5 11.5 5 27.5l848 1442 q10 16 18.5 23.5t30.5 7.5h121q18 0 25.5 -10.5t-5.5 -30.5l-841 -1434q-10 -18 -25.5 -27.5t-44.5 -9.5h-104q-23 0 -28 11.5zM1016 233v43q0 51 35 93l350 411q23 25 50.5 45.5t80.5 20.5h74q47 0 65.5 -17.5t18.5 -64.5v-426h75q27 0 31 -8t4 -27v-110q0 -16 -4 -25.5 t-29 -9.5h-77v-121q0 -27 -10.5 -32t-30.5 -5h-154q-18 0 -27.5 7t-9.5 30v119h-350q-16 0 -32.5 1t-30 9t-21.5 23.5t-8 43.5zM1268 346l2 -8h188v223l-8 2z" />
<glyph unicode="&#xbd;" horiz-adv-x="1986" d="M147 1182v104q0 18 5.5 29.5t29.5 17.5l230 58q55 14 93 1.5t38 -75.5v-588h133q27 0 33 -6t6 -29v-108q0 -23 -6.5 -31t-32.5 -8h-488q-25 0 -30.5 7t-5.5 30v110q0 23 6 29t30 6h121v447l-121 -23q-25 -4 -33 4t-8 25zM435 -54.5q-5 11.5 5 27.5l848 1442 q10 16 18.5 23.5t30.5 7.5h121q18 0 25.5 -10.5t-4.5 -30.5l-842 -1434q-10 -18 -25.5 -27.5t-44.5 -9.5h-104q-23 0 -28 11.5zM1147 121q0 47 36 105.5t95 109.5q53 47 105.5 82t95.5 61q72 39 93 64.5t21 52.5q0 23 -21.5 40t-72.5 17t-104.5 -17.5t-104.5 -45.5 q-16 -10 -29.5 -10t-23.5 18l-55 96q-10 16 -9 28.5t19 25.5q66 47 150.5 72.5t164.5 25.5q70 0 130.5 -14.5t104.5 -43t68.5 -73.5t24.5 -107q0 -94 -62.5 -155.5t-154.5 -114.5q-51 -29 -105.5 -70t-87.5 -86h373q29 0 34 -6t5 -29v-108q0 -23 -6 -31t-29 -8h-528 q-59 0 -93 25.5t-34 95.5z" />
<glyph unicode="&#xbe;" horiz-adv-x="1986" d="M109.5 642.5q-0.5 10.5 9.5 31.5l57 104q10 12 20.5 12.5t32.5 -10.5q47 -25 97.5 -39t97.5 -14q76 0 111.5 27.5t35.5 70.5q0 35 -24.5 57.5t-87.5 22.5h-45q-35 0 -44.5 9.5t-9.5 41.5v58q0 27 11.5 36t38.5 9h43q102 0 102 76q0 35 -30.5 49t-69.5 14q-88 0 -183 -45 q-29 -12 -42 -16t-25 18l-51 94q-10 18 -8.5 28.5t20.5 27.5q68 47 155 67.5t162 20.5q61 0 116.5 -12.5t98.5 -40t69 -69.5t26 -104q0 -49 -26 -97t-79 -77v-6q70 -27 95.5 -80t25.5 -106q0 -123 -99.5 -193.5t-263.5 -70.5q-78 0 -164.5 19t-148.5 60q-23 16 -23.5 26.5z M492 -54.5q-5 11.5 6 27.5l848 1442q10 16 18 23.5t31 7.5h121q18 0 25 -10.5t-5 -30.5l-842 -1434q-10 -18 -25.5 -27.5t-43.5 -9.5h-105q-23 0 -28 11.5zM1092 233v43q0 51 34 93l351 411q23 25 50 45.5t81 20.5h73q47 0 65.5 -17.5t18.5 -64.5v-426h76q27 0 31 -8t4 -27 v-110q0 -16 -4 -25.5t-29 -9.5h-78v-121q0 -27 -10 -32t-31 -5h-153q-18 0 -27.5 7t-9.5 30v119h-350q-16 0 -32.5 1t-30 9t-21.5 23.5t-8 43.5zM1343 346l3 -8h188v223l-8 2z" />
<glyph unicode="&#xbf;" horiz-adv-x="1161" d="M104 -47q0 55 18.5 102t48.5 90t67.5 81t74.5 75q37 33 71 65.5t59.5 65.5t42 65.5t16.5 67.5v45q0 18 6 24.5t27 6.5h221q23 0 27.5 -8t4.5 -23v-65q0 -59 -19 -108.5t-50 -90.5t-69 -77t-75 -68q-53 -51 -91 -101.5t-38 -115.5q0 -45 41 -82t127 -37q78 0 151 22.5 t155 75.5q18 10 31.5 13.5t23.5 -15.5l96 -162q8 -14 7 -25.5t-19 -23.5q-55 -41 -115.5 -69.5t-122 -47t-122 -27.5t-111.5 -9q-94 0 -181.5 19t-155 62t-107.5 111t-40 164zM465 901q0 37 14.5 70t40 56.5t60 36.5t73.5 13q78 0 132.5 -49t54.5 -127q0 -39 -15.5 -71.5 t-41 -57t-60.5 -38t-74 -13.5q-33 0 -65.5 11t-59 33.5t-43 56.5t-16.5 79z" />
<glyph unicode="&#xc0;" horiz-adv-x="1341" d="M29 41l426 1284q10 35 23.5 56.5t30.5 33.5t40.5 17.5t54.5 5.5h123q35 0 59.5 -3t43 -15.5t31.5 -35t26 -59.5l426 -1284q4 -12 0 -26.5t-27 -14.5h-244q-23 0 -38 5t-21 28l-80 266h-469l-80 -260q-6 -20 -17 -29.5t-40 -9.5h-240q-23 0 -27.5 12.5t-0.5 28.5z M293 1733.5q-2 11.5 10 23.5l141 162q16 16 26.5 12t23.5 -14l331 -258q16 -14 15.5 -22.5t-11.5 -20.5l-77 -94q-10 -10 -19.5 -13.5t-30.5 7.5l-395 202q-12 4 -14 15.5zM508 553h321l-77 260l-76 293h-12l-78 -293z" />
<glyph unicode="&#xc1;" horiz-adv-x="1341" d="M29 41l426 1284q10 35 23.5 56.5t30.5 33.5t40.5 17.5t54.5 5.5h123q35 0 59.5 -3t43 -15.5t31.5 -35t26 -59.5l426 -1284q4 -12 0 -26.5t-27 -14.5h-244q-23 0 -38 5t-21 28l-80 266h-469l-80 -260q-6 -20 -17 -29.5t-40 -9.5h-240q-23 0 -27.5 12.5t-0.5 28.5z M507 1636.5q-1 8.5 15 22.5l332 258q12 10 22.5 14t26.5 -12l141 -162q12 -12 10.5 -23.5t-14.5 -15.5l-395 -202q-20 -10 -29.5 -7.5t-19.5 13.5l-78 94q-10 12 -11 20.5zM508 553h321l-77 260l-76 293h-12l-78 -293z" />
<glyph unicode="&#xc2;" horiz-adv-x="1341" d="M29 41l426 1284q10 35 23.5 56.5t30.5 33.5t40.5 17.5t54.5 5.5h123q35 0 59.5 -3t43 -15.5t31.5 -35t26 -59.5l426 -1284q4 -12 0 -26.5t-27 -14.5h-244q-23 0 -38 5t-21 28l-80 266h-469l-80 -260q-6 -20 -17 -29.5t-40 -9.5h-240q-23 0 -27.5 12.5t-0.5 28.5z M249 1604.5q-1 9.5 13 23.5l273 236q29 25 60.5 39t57.5 14q59 0 125 -53l277 -234q18 -16 18 -27.5t-14 -25.5l-58 -64q-12 -14 -26 -11t-31 14l-291 157l-282 -153q-16 -10 -28.5 -11.5t-27.5 15.5l-53 55q-12 16 -13 25.5zM508 553h321l-77 260l-76 293h-12l-78 -293z " />
<glyph unicode="&#xc3;" horiz-adv-x="1341" d="M29 41l426 1284q10 35 23.5 56.5t30.5 33.5t40.5 17.5t54.5 5.5h123q35 0 59.5 -3t43 -15.5t31.5 -35t26 -59.5l426 -1284q4 -12 0 -26.5t-27 -14.5h-244q-23 0 -38 5t-21 28l-80 266h-469l-80 -260q-6 -20 -17 -29.5t-40 -9.5h-240q-23 0 -27.5 12.5t-0.5 28.5z M267.5 1603.5q-1.5 10.5 6.5 26.5q39 78 95.5 126t148.5 48q39 0 74 -13t68.5 -28.5t66.5 -28t66 -12.5t54 15.5t42 50.5q12 23 18 25t25 -5l102 -34q20 -6 22.5 -15.5t-5.5 -29.5q-39 -86 -95.5 -142.5t-148.5 -56.5q-37 0 -74 13t-71.5 28.5t-69.5 29t-72 13.5 q-55 0 -96 -64q-12 -18 -21.5 -23t-25.5 5l-90 51q-18 10 -19.5 20.5zM508 553h321l-77 260l-76 293h-12l-78 -293z" />
<glyph unicode="&#xc4;" horiz-adv-x="1341" d="M29 41l426 1284q10 35 23.5 56.5t30.5 33.5t40.5 17.5t54.5 5.5h123q35 0 59.5 -3t43 -15.5t31.5 -35t26 -59.5l426 -1284q4 -12 0 -26.5t-27 -14.5h-244q-23 0 -38 5t-21 28l-80 266h-469l-80 -260q-6 -20 -17 -29.5t-40 -9.5h-240q-23 0 -27.5 12.5t-0.5 28.5z M305 1663q0 31 12.5 58.5t34 48t48 33t57.5 12.5t58.5 -12.5t49 -33t33.5 -48t12 -58.5t-12 -57.5t-33.5 -47t-49.5 -33t-58 -12.5q-31 0 -57.5 12.5t-48 33t-34 47t-12.5 57.5zM508 553h321l-77 260l-76 293h-12l-78 -293zM725 1663q0 61 46 106.5t108 45.5 q31 0 57.5 -12.5t48 -33t33.5 -48t12 -58.5t-12 -57.5t-33.5 -47t-48.5 -33t-57 -12.5q-31 0 -58.5 12.5t-49 33t-34 47t-12.5 57.5z" />
<glyph unicode="&#xc5;" horiz-adv-x="1341" d="M29 41l426 1284q10 35 23.5 56.5t30.5 33.5t40.5 17.5t54.5 5.5h123q35 0 59.5 -3t43 -15.5t31.5 -35t26 -59.5l426 -1284q4 -12 0 -26.5t-27 -14.5h-244q-23 0 -38 5t-21 28l-80 266h-469l-80 -260q-6 -20 -17 -29.5t-40 -9.5h-240q-23 0 -27.5 12.5t-0.5 28.5z M416 1710q0 51 19.5 96t53 77t79.5 50.5t100 18.5q53 0 100 -17.5t81 -50.5t53.5 -77t19.5 -97t-19.5 -97t-53.5 -77t-81 -50.5t-100 -17.5q-106 0 -179 67t-73 175zM508 553h321l-77 260l-76 293h-12l-78 -293zM569 1710q0 -47 28 -74.5t71 -27.5q41 0 70.5 27.5t29.5 74.5 q0 43 -28.5 71.5t-71.5 28.5t-71 -28.5t-28 -71.5z" />
<glyph unicode="&#xc6;" horiz-adv-x="1894" d="M32 10q-9 10 1 31l377 1108q27 80 62.5 134t85.5 88t115.5 49.5t151.5 15.5h942q23 0 30 -8.5t7 -36.5v-183q0 -23 -7 -32t-30 -9h-483q-82 0 -109.5 -37.5t-27.5 -95.5v-151h559q23 0 30 -8.5t7 -36.5v-168q0 -23 -7 -33t-30 -10h-559v-228q0 -72 36 -100.5t101 -28.5 h508q23 0 30 -8t7 -37v-182q0 -23 -7 -33t-30 -10h-594q-94 0 -159.5 17.5t-107.5 54.5t-64.5 94t-28.5 135h-394l-86 -262q-6 -20 -16 -29.5t-37 -9.5h-248q-16 0 -25 10zM516 545h322v514q0 35 3 68.5t13 56.5q-84 0 -118 -28t-48 -71l-72 -217z" />
<glyph unicode="&#xc7;" horiz-adv-x="1316" d="M113 709q0 168 48 305t134 235.5t208 151.5t269 53q104 0 204.5 -17.5t197.5 -70.5q23 -12 26.5 -24.5t-10.5 -47.5l-64 -141q-10 -29 -21 -35t-40 4q-74 27 -137.5 40.5t-141.5 13.5q-84 0 -148.5 -36t-108.5 -98.5t-66.5 -147.5t-22.5 -185t17.5 -182.5t59.5 -141.5 t110 -92t168 -33q98 0 173.5 23.5t141.5 48.5q29 12 41 5t23 -30l69 -147q14 -29 10 -43.5t-22 -24.5q-100 -61 -210 -85.5t-218 -29.5l-35 -88q76 -4 126 -22.5t81 -45t43 -58t12 -64.5q0 -41 -15.5 -80t-49 -69.5t-87 -49t-130.5 -18.5q-33 0 -68 4t-67.5 10t-61.5 14.5 t-49 16.5q-16 6 -17.5 14t4.5 29l25 74q8 23 14.5 23.5t22.5 -3.5q41 -14 76 -21.5t73 -7.5q49 0 78 16.5t29 53.5q0 35 -35 49.5t-86 14.5q-35 0 -46 1t-22 11q-12 10 -10 26.5t8 34.5l54 140q-145 12 -250 68t-173.5 149.5t-101 221.5t-32.5 288z" />
<glyph unicode="&#xc8;" horiz-adv-x="1255" d="M154 377v680q0 74 20.5 141.5t64.5 120.5t115.5 85t175.5 32h588q25 0 32 -10.5t7 -39.5v-174q0 -27 -8 -36t-31 -9h-520q-80 0 -106.5 -36.5t-26.5 -90.5v-157h588q25 0 32 -10.5t7 -38.5v-160q0 -25 -7.5 -36t-31.5 -11h-588v-234q0 -72 33.5 -97.5t99.5 -25.5h541 q27 0 34 -9t7 -40v-174q0 -25 -8.5 -36t-32.5 -11h-607q-115 0 -187.5 33t-115.5 86t-59 120.5t-16 137.5zM348 1733.5q-2 11.5 10 23.5l142 162q16 16 26.5 12t22.5 -14l332 -258q16 -14 15 -22.5t-11 -20.5l-78 -94q-10 -10 -19.5 -13.5t-29.5 7.5l-396 202 q-12 4 -14 15.5z" />
<glyph unicode="&#xc9;" horiz-adv-x="1255" d="M154 377v680q0 74 20.5 141.5t64.5 120.5t115.5 85t175.5 32h588q25 0 32 -10.5t7 -39.5v-174q0 -27 -8 -36t-31 -9h-520q-80 0 -106.5 -36.5t-26.5 -90.5v-157h588q25 0 32 -10.5t7 -38.5v-160q0 -25 -7.5 -36t-31.5 -11h-588v-234q0 -72 33.5 -97.5t99.5 -25.5h541 q27 0 34 -9t7 -40v-174q0 -25 -8.5 -36t-32.5 -11h-607q-115 0 -187.5 33t-115.5 86t-59 120.5t-16 137.5zM515 1636.5q-1 8.5 15 22.5l332 258q12 10 22.5 14t26.5 -12l142 -162q12 -12 10 -23.5t-14 -15.5l-396 -202q-20 -10 -29.5 -7.5t-19.5 13.5l-78 94 q-10 12 -11 20.5z" />
<glyph unicode="&#xca;" horiz-adv-x="1255" d="M154 377v680q0 74 20.5 141.5t64.5 120.5t115.5 85t175.5 32h588q25 0 32 -10.5t7 -39.5v-174q0 -27 -8 -36t-31 -9h-520q-80 0 -106.5 -36.5t-26.5 -90.5v-157h588q25 0 32 -10.5t7 -38.5v-160q0 -25 -7.5 -36t-31.5 -11h-588v-234q0 -72 33.5 -97.5t99.5 -25.5h541 q27 0 34 -9t7 -40v-174q0 -25 -8.5 -36t-32.5 -11h-607q-115 0 -187.5 33t-115.5 86t-59 120.5t-16 137.5zM298 1604.5q-1 9.5 13 23.5l273 236q29 25 60.5 39t57.5 14q59 0 125 -53l277 -234q18 -16 18 -27.5t-14 -25.5l-57 -64q-12 -14 -26.5 -11t-31.5 14l-291 157 l-282 -153q-16 -10 -28.5 -11.5t-26.5 15.5l-54 55q-12 16 -13 25.5z" />
<glyph unicode="&#xcb;" horiz-adv-x="1255" d="M154 377v680q0 74 20.5 141.5t64.5 120.5t115.5 85t175.5 32h588q25 0 32 -10.5t7 -39.5v-174q0 -27 -8 -36t-31 -9h-520q-80 0 -106.5 -36.5t-26.5 -90.5v-157h588q25 0 32 -10.5t7 -38.5v-160q0 -25 -7.5 -36t-31.5 -11h-588v-234q0 -72 33.5 -97.5t99.5 -25.5h541 q27 0 34 -9t7 -40v-174q0 -25 -8.5 -36t-32.5 -11h-607q-115 0 -187.5 33t-115.5 86t-59 120.5t-16 137.5zM362 1663q0 31 12.5 58.5t34 48t48 33t57.5 12.5t58.5 -12.5t49 -33t34 -48t12.5 -58.5t-12.5 -57.5t-34 -47t-49 -33t-58.5 -12.5t-57.5 12.5t-48 33t-34 47 t-12.5 57.5zM782 1663q0 61 46 106.5t108 45.5q31 0 57.5 -12.5t48 -33t33.5 -48t12 -58.5t-12 -57.5t-33.5 -47t-48 -33t-57.5 -12.5t-58.5 12.5t-49 33t-34 47t-12.5 57.5z" />
<glyph unicode="&#xcc;" horiz-adv-x="673" d="M-57 1733.5q-2 11.5 10 23.5l141 162q16 16 26.5 12t22.5 -14l332 -258q16 -14 15 -22.5t-11 -20.5l-78 -94q-10 -10 -19 -13.5t-30 7.5l-395 202q-12 4 -14 15.5zM180 43v1348q0 25 11.5 34t35.5 9h217q31 0 40.5 -8.5t9.5 -34.5v-1348q0 -27 -9.5 -35t-40.5 -8h-217 q-25 0 -36 9t-11 34z" />
<glyph unicode="&#xcd;" horiz-adv-x="673" d="M167 1636.5q-1 8.5 15 22.5l332 258q12 10 22.5 14t26.5 -12l142 -162q12 -12 10 -23.5t-15 -15.5l-395 -202q-20 -10 -29.5 -7.5t-19.5 13.5l-78 94q-10 12 -11 20.5zM180 43v1348q0 25 11.5 34t35.5 9h217q31 0 40.5 -8.5t9.5 -34.5v-1348q0 -27 -9.5 -35t-40.5 -8 h-217q-25 0 -36 9t-11 34z" />
<glyph unicode="&#xce;" horiz-adv-x="673" d="M-68.5 1604.5q-1.5 9.5 13.5 23.5l272 236q29 25 60.5 39t58.5 14q59 0 125 -53l276 -234q18 -16 18.5 -27.5t-14.5 -25.5l-57 -64q-12 -14 -26.5 -11t-30.5 14l-291 157l-283 -153q-16 -10 -28.5 -11.5t-26.5 15.5l-53 55q-12 16 -13.5 25.5zM180 43v1348q0 25 11.5 34 t35.5 9h217q31 0 40.5 -8.5t9.5 -34.5v-1348q0 -27 -9.5 -35t-40.5 -8h-217q-25 0 -36 9t-11 34z" />
<glyph unicode="&#xcf;" horiz-adv-x="673" d="M-23 1669q0 31 12.5 58.5t34 48t48 33t57.5 12.5t58.5 -12.5t49 -33t34 -48t12.5 -58.5t-12.5 -57.5t-34 -47t-49 -32.5t-58.5 -12t-57.5 12t-48 32.5t-34 47t-12.5 57.5zM180 43v1348q0 25 11.5 34t35.5 9h217q31 0 40.5 -8.5t9.5 -34.5v-1348q0 -27 -9.5 -35t-40.5 -8 h-217q-25 0 -36 9t-11 34zM397 1669q0 61 46 106.5t108 45.5q31 0 57.5 -12.5t48 -33t33.5 -48t12 -58.5t-12 -57.5t-33.5 -47t-48 -32.5t-57.5 -12t-58.5 12t-49 32.5t-34 47t-12.5 57.5z" />
<glyph unicode="&#xd0;" horiz-adv-x="1427" d="M29 672v110q0 27 9 35t32 8h84v484q0 66 30.5 96.5t104.5 30.5h370q180 0 305.5 -57.5t203 -154t112.5 -226.5t35 -273q0 -141 -31 -272t-104.5 -231.5t-195.5 -161t-302 -60.5h-393q-74 0 -104.5 29.5t-30.5 95.5v504h-84q-41 0 -41 43zM467 274h164q106 0 177 34 t112 93.5t57 142.5t16 181q0 94 -16 174t-58 138.5t-114 92t-180 33.5h-158v-338h238q23 0 30.5 -8t7.5 -35v-110q0 -43 -38 -43h-238v-355z" />
<glyph unicode="&#xd1;" horiz-adv-x="1523" d="M154 43v1249q0 80 28.5 112t104.5 32h86q31 0 52 -3t37.5 -13.5t31 -29t32.5 -47.5l348 -530l177 -276h10v856q0 25 9 34t38 9h215q47 0 47 -43v-1252q0 -66 -26.5 -103.5t-106.5 -37.5h-86q-31 0 -52.5 3t-38 13.5t-30.5 27.5t-33 46l-327 496l-197 305h-10v-848 q0 -27 -9.5 -35t-37.5 -8h-215q-25 0 -36 9t-11 34zM368 1617.5q-1 10.5 7 27.5q39 78 95 126t148 48q39 0 74 -13.5t69 -29t66.5 -27.5t65.5 -12t54.5 15t41.5 50q12 23 18.5 25t24.5 -4l103 -35q20 -6 22 -15.5t-6 -29.5q-39 -86 -95.5 -142.5t-148.5 -56.5 q-37 0 -73.5 13.5t-71.5 29t-70 28.5t-71 13q-55 0 -97 -63q-12 -18 -21 -23.5t-26 4.5l-90 51q-18 10 -19 20.5z" />
<glyph unicode="&#xd2;" horiz-adv-x="1495" d="M113 715q0 172 44 310t126 233.5t198.5 146.5t263.5 51q160 0 280 -51t199 -146.5t118.5 -231.5t39.5 -306q0 -176 -37.5 -313.5t-117.5 -233.5t-201 -146.5t-287 -50.5q-317 0 -471.5 192.5t-154.5 545.5zM381 1739.5q-2 11.5 10 23.5l141 162q16 16 26.5 12t23.5 -14 l331 -258q16 -14 15.5 -22.5t-10.5 -20.5l-78 -94q-10 -10 -19.5 -13.5t-29.5 7.5l-396 202q-12 4 -14 15.5zM438 727q0 -109 15.5 -195t51.5 -147t95 -94t150 -33q88 0 147 38t94 100.5t50.5 145.5t15.5 173q0 92 -13.5 176t-48 147.5t-94 101.5t-153.5 38 q-78 0 -136.5 -36t-97.5 -97.5t-57.5 -143.5t-18.5 -174z" />
<glyph unicode="&#xd3;" horiz-adv-x="1495" d="M113 715q0 172 44 310t126 233.5t198.5 146.5t263.5 51q160 0 280 -51t199 -146.5t118.5 -231.5t39.5 -306q0 -176 -37.5 -313.5t-117.5 -233.5t-201 -146.5t-287 -50.5q-317 0 -471.5 192.5t-154.5 545.5zM438 727q0 -109 15.5 -195t51.5 -147t95 -94t150 -33 q88 0 147 38t94 100.5t50.5 145.5t15.5 173q0 92 -13.5 176t-48 147.5t-94 101.5t-153.5 38q-78 0 -136.5 -36t-97.5 -97.5t-57.5 -143.5t-18.5 -174zM611.5 1648.5q-1.5 8.5 15.5 22.5l331 258q12 10 22.5 14.5t27.5 -12.5l141 -162q12 -12 10 -23t-14 -15l-395 -203 q-20 -10 -29.5 -7t-20.5 13l-77 94q-10 12 -11.5 20.5z" />
<glyph unicode="&#xd4;" horiz-adv-x="1495" d="M113 715q0 172 44 310t126 233.5t198.5 146.5t263.5 51q160 0 280 -51t199 -146.5t118.5 -231.5t39.5 -306q0 -176 -37.5 -313.5t-117.5 -233.5t-201 -146.5t-287 -50.5q-317 0 -471.5 192.5t-154.5 545.5zM331 1604.5q-1 9.5 13 23.5l272 236q29 25 61 39t58 14 q59 0 125 -53l277 -234q18 -16 18 -27.5t-14 -25.5l-58 -64q-12 -14 -26.5 -11t-30.5 14l-291 157l-282 -153q-16 -10 -28.5 -11.5t-27.5 15.5l-53 55q-12 16 -13 25.5zM438 727q0 -109 15.5 -195t51.5 -147t95 -94t150 -33q88 0 147 38t94 100.5t50.5 145.5t15.5 173 q0 92 -13.5 176t-48 147.5t-94 101.5t-153.5 38q-78 0 -136.5 -36t-97.5 -97.5t-57.5 -143.5t-18.5 -174z" />
<glyph unicode="&#xd5;" horiz-adv-x="1495" d="M113 715q0 172 44 310t126 233.5t198.5 146.5t263.5 51q160 0 280 -51t199 -146.5t118.5 -231.5t39.5 -306q0 -176 -37.5 -313.5t-117.5 -233.5t-201 -146.5t-287 -50.5q-317 0 -471.5 192.5t-154.5 545.5zM357.5 1615.5q-1.5 10.5 7.5 26.5q39 78 95 126.5t148 48.5 q39 0 74 -13.5t68.5 -29t66.5 -27.5t66 -12t54 15t42 50q12 23 18.5 25t24.5 -4l102 -35q20 -6 22.5 -15.5t-5.5 -29.5q-39 -86 -95.5 -142.5t-148.5 -56.5q-37 0 -74 13.5t-71.5 28.5t-69.5 28.5t-72 13.5q-55 0 -96 -63q-12 -18 -21.5 -23.5t-25.5 4.5l-90 51 q-18 10 -19.5 20.5zM438 727q0 -109 15.5 -195t51.5 -147t95 -94t150 -33q88 0 147 38t94 100.5t50.5 145.5t15.5 173q0 92 -13.5 176t-48 147.5t-94 101.5t-153.5 38q-78 0 -136.5 -36t-97.5 -97.5t-57.5 -143.5t-18.5 -174z" />
<glyph unicode="&#xd6;" horiz-adv-x="1495" d="M113 715q0 172 44 310t126 233.5t198.5 146.5t263.5 51q160 0 280 -51t199 -146.5t118.5 -231.5t39.5 -306q0 -176 -37.5 -313.5t-117.5 -233.5t-201 -146.5t-287 -50.5q-317 0 -471.5 192.5t-154.5 545.5zM387 1673q0 31 12.5 58.5t34 48t48 33t57.5 12.5t58.5 -12.5 t49 -33t33.5 -48t12 -58.5t-12 -57.5t-33.5 -47t-49.5 -32.5t-58 -12q-31 0 -57.5 12t-48 32.5t-34 47t-12.5 57.5zM438 727q0 -109 15.5 -195t51.5 -147t95 -94t150 -33q88 0 147 38t94 100.5t50.5 145.5t15.5 173q0 92 -13.5 176t-48 147.5t-94 101.5t-153.5 38 q-78 0 -136.5 -36t-97.5 -97.5t-57.5 -143.5t-18.5 -174zM807 1673q0 61 46 106.5t108 45.5q31 0 57 -12.5t47.5 -33t34 -48t12.5 -58.5t-12.5 -57.5t-34 -47t-48 -32.5t-56.5 -12q-31 0 -59 12t-49.5 32.5t-33.5 47t-12 57.5z" />
<glyph unicode="&#xd7;" d="M215 367q-31 29 0 59l279 279l-275 274q-31 31 0 59l113 113q20 20 32.5 19t28.5 -17l275 -276l276 278q29 29 60 0l116 -115q18 -23 17.5 -34t-17.5 -27l-276 -277l272 -272q16 -18 17.5 -30.5t-19.5 -32.5l-110 -113q-31 -29 -60 0l-274 274l-279 -278 q-16 -16 -28.5 -17.5t-32.5 19.5z" />
<glyph unicode="&#xd8;" horiz-adv-x="1495" d="M113 715q0 172 44 310t126 233.5t198.5 146.5t263.5 51q129 0 230.5 -33.5t179.5 -97.5l86 107q25 33 47 10l43 -35q12 -10 14.5 -19.5t-14.5 -25.5l-96 -119q74 -96 110.5 -227t36.5 -295q0 -176 -37.5 -313.5t-117.5 -233.5t-201 -146.5t-287 -50.5q-268 0 -420 140 l-90 -109q-14 -16 -22 -17t-19 9l-45 37q-14 10 -14 18t14 27l99 121q-129 186 -129 512zM438 727q0 -72 7.5 -133.5t25.5 -112.5l487 609q-35 41 -87 64.5t-123 23.5q-78 0 -136.5 -36t-97.5 -97.5t-57.5 -143.5t-18.5 -174zM522 362q37 -51 93.5 -77.5t138.5 -26.5 q88 0 146 38t93 100.5t49.5 145.5t14.5 173q-2 72 -10.5 139.5t-30.5 124.5z" />
<glyph unicode="&#xd9;" horiz-adv-x="1468" d="M152 1391q0 25 12 34t35 9h219q31 0 40 -8.5t9 -34.5v-813q0 -84 14.5 -146.5t51 -103.5t99 -60.5t161.5 -19.5q14 0 38.5 1t54 2t61.5 4t59 9v1127q0 25 11 34t36 9h217q31 0 38 -8.5t7 -34.5v-1192q0 -72 -32 -123t-118 -74q-41 -10 -90 -15t-98 -7.5t-92 -3.5t-70 -1 q-176 0 -302 30t-206 101.5t-116.5 190.5t-36.5 299zM377 1733.5q-2 11.5 10 23.5l141 162q16 16 26.5 12t23.5 -14l331 -258q16 -14 15.5 -22.5t-11.5 -20.5l-77 -94q-10 -10 -19.5 -13.5t-30.5 7.5l-395 202q-12 4 -14 15.5z" />
<glyph unicode="&#xda;" horiz-adv-x="1468" d="M152 1391q0 25 12 34t35 9h219q31 0 40 -8.5t9 -34.5v-813q0 -84 14.5 -146.5t51 -103.5t99 -60.5t161.5 -19.5q14 0 38.5 1t54 2t61.5 4t59 9v1127q0 25 11 34t36 9h217q31 0 38 -8.5t7 -34.5v-1192q0 -72 -32 -123t-118 -74q-41 -10 -90 -15t-98 -7.5t-92 -3.5t-70 -1 q-176 0 -302 30t-206 101.5t-116.5 190.5t-36.5 299zM576.5 1636.5q-1.5 8.5 15.5 22.5l332 258q12 10 22 14t27 -12l141 -162q12 -12 10 -23.5t-14 -15.5l-395 -202q-20 -10 -29.5 -7.5t-19.5 13.5l-78 94q-10 12 -11.5 20.5z" />
<glyph unicode="&#xdb;" horiz-adv-x="1468" d="M152 1391q0 25 12 34t35 9h219q31 0 40 -8.5t9 -34.5v-813q0 -84 14.5 -146.5t51 -103.5t99 -60.5t161.5 -19.5q14 0 38.5 1t54 2t61.5 4t59 9v1127q0 25 11 34t36 9h217q31 0 38 -8.5t7 -34.5v-1192q0 -72 -32 -123t-118 -74q-41 -10 -90 -15t-98 -7.5t-92 -3.5t-70 -1 q-176 0 -302 30t-206 101.5t-116.5 190.5t-36.5 299zM335 1604.5q-1 9.5 13 23.5l273 236q29 25 60.5 39t57.5 14q59 0 125 -53l277 -234q18 -16 18 -27.5t-14 -25.5l-58 -64q-12 -14 -26 -11t-31 14l-291 157l-282 -153q-16 -10 -28.5 -11.5t-27.5 15.5l-53 55 q-12 16 -13 25.5z" />
<glyph unicode="&#xdc;" horiz-adv-x="1468" d="M152 1391q0 25 12 34t35 9h219q31 0 40 -8.5t9 -34.5v-813q0 -84 14.5 -146.5t51 -103.5t99 -60.5t161.5 -19.5q14 0 38.5 1t54 2t61.5 4t59 9v1127q0 25 11 34t36 9h217q31 0 38 -8.5t7 -34.5v-1192q0 -72 -32 -123t-118 -74q-41 -10 -90 -15t-98 -7.5t-92 -3.5t-70 -1 q-176 0 -302 30t-206 101.5t-116.5 190.5t-36.5 299zM387 1663q0 31 12.5 58.5t34 48t48 33t57.5 12.5t58.5 -12.5t49 -33t33.5 -48t12 -58.5t-12 -57.5t-33.5 -47t-49.5 -33t-58 -12.5q-31 0 -57.5 12.5t-48 33t-34 47t-12.5 57.5zM807 1663q0 61 46 106.5t108 45.5 q31 0 57 -12.5t47.5 -33t34 -48t12.5 -58.5t-12.5 -57.5t-34 -47t-48 -33t-56.5 -12.5q-31 0 -59 12.5t-49.5 33t-33.5 47t-12 57.5z" />
<glyph unicode="&#xdd;" horiz-adv-x="1280" d="M19.5 1421.5q5.5 14.5 27.5 14.5h258q29 0 40 -10.5t22 -34.5l137 -285l131 -293h12l135 303l136 281q10 20 21 29.5t34 9.5h260q29 0 30 -12.5t-6 -24.5l-456 -871v-487q0 -23 -8.5 -32t-36.5 -9h-224q-43 0 -43 41v483l-469 873q-6 10 -0.5 24.5zM482.5 1636.5 q-1.5 8.5 15.5 22.5l331 258q12 10 22.5 14t27.5 -12l141 -162q12 -12 10 -23.5t-14 -15.5l-395 -202q-20 -10 -29.5 -7.5t-20.5 13.5l-77 94q-10 12 -11.5 20.5z" />
<glyph unicode="&#xde;" horiz-adv-x="1318" d="M154 39v1366q0 41 41 41h213q29 0 37 -9.5t8 -31.5v-193h325q111 0 199 -33.5t150.5 -93t95 -141.5t32.5 -178q0 -49 -14 -124t-61 -145.5t-134.5 -126t-230.5 -67.5q-53 -6 -110 -6h-238v-258q0 -23 -7 -31t-34 -8h-219q-18 0 -37.5 5t-15.5 34zM467 551h266 q104 0 152.5 55t48.5 137q0 29 -8 63t-31 63.5t-62.5 49t-103.5 19.5h-262v-387z" />
<glyph unicode="&#xdf;" horiz-adv-x="1236" d="M135 49v959q0 113 34 205t96.5 155.5t150.5 98t192 34.5q117 0 204 -29.5t146.5 -82t89 -124t29.5 -153.5q0 -33 -8 -72t-27.5 -78.5t-50 -74.5t-76.5 -58v-8q49 -18 91.5 -53t73 -84t48 -108.5t17.5 -124.5q0 -141 -44 -239.5t-118 -160t-168 -88t-192 -22.5 q-41 2 -49.5 8t-8.5 31v161q0 20 6.5 28.5t30.5 12.5q115 6 173.5 78t58.5 189q0 47 -10.5 91t-34 77.5t-62.5 55t-96 23.5q-43 4 -60.5 19.5t-17.5 52.5v72q0 35 18.5 58.5t59.5 23.5q70 0 108.5 46t38.5 124q0 27 -8 56.5t-28.5 54t-52.5 39.5t-79 15t-80.5 -18t-55 -48 t-32 -69t-10.5 -80v-993q0 -27 -8 -38t-41 -11h-209q-27 0 -33 12.5t-6 36.5z" />
<glyph unicode="&#xe0;" horiz-adv-x="1179" d="M92 319q0 80 26.5 146.5t80 116t134.5 77t191 27.5h226v33q0 29 -6.5 55.5t-26 46t-54 31.5t-92.5 12q-31 0 -69.5 -3t-77.5 -8t-76 -12t-65 -16q-27 -6 -37 0t-15 27l-32 143q-6 23 -1 32t21 15q92 33 193.5 47.5t201.5 14.5q223 0 328 -95.5t105 -281.5v-594 q0 -27 -7.5 -45t-35.5 -35q-47 -23 -101.5 -37t-111 -22t-113.5 -12.5t-109 -4.5q-139 0 -230 27t-146.5 73t-78 108.5t-22.5 133.5zM333 1563.5q3 11.5 19 15.5l213 53q23 4 32 -2t15 -20l142 -359q10 -20 4 -27t-23 -12l-112 -41q-16 -4 -25.5 -0.5t-22.5 19.5l-237 352 q-8 10 -5 21.5zM399 342q0 -72 48.5 -100.5t130.5 -28.5q12 0 32.5 1t44 4t48 8t45.5 14v247h-162q-29 0 -61.5 -4t-60.5 -19t-46.5 -44t-18.5 -78z" />
<glyph unicode="&#xe1;" horiz-adv-x="1179" d="M92 319q0 80 26.5 146.5t80 116t134.5 77t191 27.5h226v33q0 29 -6.5 55.5t-26 46t-54 31.5t-92.5 12q-31 0 -69.5 -3t-77.5 -8t-76 -12t-65 -16q-27 -6 -37 0t-15 27l-32 143q-6 23 -1 32t21 15q92 33 193.5 47.5t201.5 14.5q223 0 328 -95.5t105 -281.5v-594 q0 -27 -7.5 -45t-35.5 -35q-47 -23 -101.5 -37t-111 -22t-113.5 -12.5t-109 -4.5q-139 0 -230 27t-146.5 73t-78 108.5t-22.5 133.5zM399 342q0 -72 48.5 -100.5t130.5 -28.5q12 0 32.5 1t44 4t48 8t45.5 14v247h-162q-29 0 -61.5 -4t-60.5 -19t-46.5 -44t-18.5 -78z M491.5 1225.5q-2.5 9.5 4.5 25.5l143 357q10 29 25.5 28.5t37.5 -6.5l195 -51q33 -8 16 -37l-239 -352q-12 -18 -21.5 -20.5t-25.5 1.5l-115 39q-18 6 -20.5 15.5z" />
<glyph unicode="&#xe2;" horiz-adv-x="1179" d="M92 319q0 80 26.5 146.5t80 116t134.5 77t191 27.5h226v33q0 29 -6.5 55.5t-26 46t-54 31.5t-92.5 12q-31 0 -69.5 -3t-77.5 -8t-76 -12t-65 -16q-27 -6 -37 0t-15 27l-32 143q-6 23 -1 32t21 15q92 33 193.5 47.5t201.5 14.5q223 0 328 -95.5t105 -281.5v-594 q0 -27 -7.5 -45t-35.5 -35q-47 -23 -101.5 -37t-111 -22t-113.5 -12.5t-109 -4.5q-139 0 -230 27t-146.5 73t-78 108.5t-22.5 133.5zM206 1246q1 9 11 26l268 280q29 29 59.5 46.5t61.5 17.5q45 0 74 -14.5t59 -49.5l273 -278q16 -16 15 -27.5t-17 -27.5l-60 -58 q-14 -10 -25.5 -10t-31.5 14l-285 201l-274 -205q-16 -10 -27.5 -10t-27.5 14l-62 58q-12 14 -11 23zM399 342q0 -72 48.5 -100.5t130.5 -28.5q12 0 32.5 1t44 4t48 8t45.5 14v247h-162q-29 0 -61.5 -4t-60.5 -19t-46.5 -44t-18.5 -78z" />
<glyph unicode="&#xe3;" horiz-adv-x="1179" d="M92 319q0 80 26.5 146.5t80 116t134.5 77t191 27.5h226v33q0 29 -6.5 55.5t-26 46t-54 31.5t-92.5 12q-31 0 -69.5 -3t-77.5 -8t-76 -12t-65 -16q-27 -6 -37 0t-15 27l-32 143q-6 23 -1 32t21 15q92 33 193.5 47.5t201.5 14.5q223 0 328 -95.5t105 -281.5v-594 q0 -27 -7.5 -45t-35.5 -35q-47 -23 -101.5 -37t-111 -22t-113.5 -12.5t-109 -4.5q-139 0 -230 27t-146.5 73t-78 108.5t-22.5 133.5zM202 1312.5q-1 10.5 7 26.5q39 78 95 126t149 48q39 0 73.5 -13t68.5 -28.5t66.5 -27.5t65.5 -12t54.5 15t41.5 50q12 23 18.5 25t24.5 -4 l103 -35q20 -6 22 -15.5t-6 -29.5q-39 -86 -95.5 -142.5t-148.5 -56.5q-37 0 -73.5 13.5t-71.5 28.5t-69.5 28.5t-71.5 13.5q-55 0 -97 -63q-12 -18 -21 -23.5t-26 4.5l-90 51q-18 10 -19 20.5zM399 342q0 -72 48.5 -100.5t130.5 -28.5q12 0 32.5 1t44 4t48 8t45.5 14v247 h-162q-29 0 -61.5 -4t-60.5 -19t-46.5 -44t-18.5 -78z" />
<glyph unicode="&#xe4;" horiz-adv-x="1179" d="M92 319q0 80 26.5 146.5t80 116t134.5 77t191 27.5h226v33q0 29 -6.5 55.5t-26 46t-54 31.5t-92.5 12q-31 0 -69.5 -3t-77.5 -8t-76 -12t-65 -16q-27 -6 -37 0t-15 27l-32 143q-6 23 -1 32t21 15q92 33 193.5 47.5t201.5 14.5q223 0 328 -95.5t105 -281.5v-594 q0 -27 -7.5 -45t-35.5 -35q-47 -23 -101.5 -37t-111 -22t-113.5 -12.5t-109 -4.5q-139 0 -230 27t-146.5 73t-78 108.5t-22.5 133.5zM250 1374q0 31 12 58.5t33.5 48t48.5 33t57 12.5q31 0 58.5 -12.5t49 -33t34 -48t12.5 -58.5t-12.5 -57.5t-34 -47t-49 -32.5t-58.5 -12 t-57.5 12t-48 32.5t-33.5 47t-12 57.5zM399 342q0 -72 48.5 -100.5t130.5 -28.5q12 0 32.5 1t44 4t48 8t45.5 14v247h-162q-29 0 -61.5 -4t-60.5 -19t-46.5 -44t-18.5 -78zM670 1374q0 61 46 106.5t107 45.5q31 0 57.5 -12.5t48 -33t34 -48t12.5 -58.5t-12.5 -57.5t-34 -47 t-48 -32.5t-57.5 -12t-58.5 12t-49 32.5t-33.5 47t-12 57.5z" />
<glyph unicode="&#xe5;" horiz-adv-x="1179" d="M92 319q0 80 26.5 146.5t80 116t134.5 77t191 27.5h226v33q0 29 -6.5 55.5t-26 46t-54 31.5t-92.5 12q-31 0 -69.5 -3t-77.5 -8t-76 -12t-65 -16q-27 -6 -37 0t-15 27l-32 143q-6 23 -1 32t21 15q92 33 193.5 47.5t201.5 14.5q223 0 328 -95.5t105 -281.5v-594 q0 -27 -7.5 -45t-35.5 -35q-47 -23 -101.5 -37t-111 -22t-113.5 -12.5t-109 -4.5q-139 0 -230 27t-146.5 73t-78 108.5t-22.5 133.5zM367 1407q0 51 19.5 96t53 77t79.5 50.5t99 18.5t100.5 -17.5t81.5 -50.5t53 -77t19 -97t-19 -97t-53 -77t-81 -50.5t-101 -17.5 q-106 0 -178.5 66.5t-72.5 175.5zM399 342q0 -72 48.5 -100.5t130.5 -28.5q12 0 32.5 1t44 4t48 8t45.5 14v247h-162q-29 0 -61.5 -4t-60.5 -19t-46.5 -44t-18.5 -78zM520 1407q0 -47 27.5 -74.5t70.5 -27.5q41 0 71 27.5t30 74.5q0 43 -28.5 71.5t-72.5 28.5 q-43 0 -70.5 -28.5t-27.5 -71.5z" />
<glyph unicode="&#xe6;" horiz-adv-x="1804" d="M92 311q0 76 24.5 140.5t75 111.5t128 75t186.5 28h233q4 14 6.5 27.5t2.5 23.5q2 145 -187 145q-63 0 -146 -10t-143 -27q-23 -4 -34 -1t-15 26l-33 145q-4 20 0.5 29.5t20.5 15.5q92 33 191.5 48.5t201.5 15.5q225 0 324 -117q61 59 143 88t170 29q236 0 355.5 -121 t119.5 -340q0 -104 -40 -141t-111 -39h-525q2 -74 21.5 -120t52.5 -71.5t77 -34t95 -8.5q59 0 120.5 14.5t115.5 35.5q23 10 33 8t18 -21l63 -147q8 -18 4 -28.5t-20 -20.5q-76 -49 -177.5 -71t-187.5 -22q-100 0 -183 21.5t-144 77.5q-90 -53 -200 -76t-202 -23 q-127 0 -211 28t-133 74t-69.5 106.5t-20.5 125.5zM399 334q0 -66 45 -94.5t127 -28.5q35 0 94.5 8t108.5 35q-37 92 -43 219h-158q-29 0 -59.5 -5t-56 -19.5t-42 -42t-16.5 -72.5zM1047 659h383q-2 35 -10.5 71t-29 64.5t-55.5 46t-88 17.5q-84 0 -138 -54t-62 -145z" />
<glyph unicode="&#xe7;" horiz-adv-x="1046" d="M92 535q0 131 36 236.5t101.5 179t160.5 112.5t212 39q86 0 170 -17.5t154 -52.5q27 -12 29.5 -22.5t-7.5 -34.5l-57 -158q-10 -23 -22.5 -24.5t-41.5 6.5q-53 16 -104 26.5t-98 10.5q-61 0 -103.5 -25t-69 -65.5t-39 -95t-12.5 -115.5q0 -63 10.5 -116.5t37 -92.5 t70.5 -60.5t112 -21.5q66 0 128 15t107 32q27 10 36 7t18 -26l57 -153q10 -20 9 -32.5t-23 -25.5q-80 -45 -173.5 -62t-171.5 -22l-34 -88q76 -4 126 -22.5t80.5 -45t43 -58t12.5 -64.5q0 -41 -15.5 -80t-49 -69.5t-87 -49t-131.5 -18.5q-33 0 -67.5 4t-67.5 10t-61.5 14.5 t-49.5 16.5q-16 6 -17 14t5 29l25 74q8 23 14 23.5t23 -3.5q41 -14 75.5 -21.5t73.5 -7.5q49 0 78 16.5t29 53.5q0 35 -35 49.5t-86 14.5q-35 0 -46.5 1t-21.5 11q-12 10 -10 26.5t8 34.5l55 144q-195 27 -295 164t-100 385z" />
<glyph unicode="&#xe8;" horiz-adv-x="1163" d="M92 532q0 135 36 241t102.5 179.5t159.5 111.5t210 38q240 0 359.5 -120t119.5 -343q0 -106 -41 -145t-112 -39h-525q2 -66 21.5 -109t52.5 -69.5t77 -37t95 -10.5q59 0 120.5 14.5t115.5 37.5q25 8 34 5t17 -20l65 -147q8 -18 3 -28.5t-21 -20.5q-76 -49 -176 -71 t-187 -22q-268 0 -397 133.5t-129 421.5zM300 1563.5q3 11.5 19 15.5l213 53q23 4 32 -2t16 -20l141 -359q10 -20 4 -27t-23 -12l-112 -41q-16 -4 -25.5 -0.5t-21.5 19.5l-238 352q-8 10 -5 21.5zM408 645h383q0 45 -9.5 84t-30 66.5t-55.5 44t-90 16.5q-84 0 -137 -59.5 t-61 -151.5z" />
<glyph unicode="&#xe9;" horiz-adv-x="1163" d="M92 532q0 135 36 241t102.5 179.5t159.5 111.5t210 38q240 0 359.5 -120t119.5 -343q0 -106 -41 -145t-112 -39h-525q2 -66 21.5 -109t52.5 -69.5t77 -37t95 -10.5q59 0 120.5 14.5t115.5 37.5q25 8 34 5t17 -20l65 -147q8 -18 3 -28.5t-21 -20.5q-76 -49 -176 -71 t-187 -22q-268 0 -397 133.5t-129 421.5zM408 645h383q0 45 -9.5 84t-30 66.5t-55.5 44t-90 16.5q-84 0 -137 -59.5t-61 -151.5zM479.5 1225.5q-2.5 9.5 3.5 25.5l144 357q10 29 25.5 28.5t37.5 -6.5l195 -51q33 -8 16 -37l-239 -352q-12 -18 -21.5 -20.5t-26.5 1.5l-114 39 q-18 6 -20.5 15.5z" />
<glyph unicode="&#xea;" horiz-adv-x="1163" d="M92 532q0 135 36 241t102.5 179.5t159.5 111.5t210 38q240 0 359.5 -120t119.5 -343q0 -106 -41 -145t-112 -39h-525q2 -66 21.5 -109t52.5 -69.5t77 -37t95 -10.5q59 0 120.5 14.5t115.5 37.5q25 8 34 5t17 -20l65 -147q8 -18 3 -28.5t-21 -20.5q-76 -49 -176 -71 t-187 -22q-268 0 -397 133.5t-129 421.5zM202 1246q1 9 11 26l268 280q29 29 59.5 46.5t61.5 17.5q45 0 74 -14.5t59 -49.5l273 -278q16 -16 15 -27.5t-17 -27.5l-60 -58q-14 -10 -25.5 -10t-31.5 14l-285 201l-274 -205q-16 -10 -27.5 -10t-28.5 14l-61 58q-12 14 -11 23z M408 645h383q0 45 -9.5 84t-30 66.5t-55.5 44t-90 16.5q-84 0 -137 -59.5t-61 -151.5z" />
<glyph unicode="&#xeb;" horiz-adv-x="1163" d="M92 532q0 135 36 241t102.5 179.5t159.5 111.5t210 38q240 0 359.5 -120t119.5 -343q0 -106 -41 -145t-112 -39h-525q2 -66 21.5 -109t52.5 -69.5t77 -37t95 -10.5q59 0 120.5 14.5t115.5 37.5q25 8 34 5t17 -20l65 -147q8 -18 3 -28.5t-21 -20.5q-76 -49 -176 -71 t-187 -22q-268 0 -397 133.5t-129 421.5zM252 1374q0 31 12 58.5t33.5 48t48.5 33t57 12.5q31 0 58.5 -12.5t49 -33t34 -48t12.5 -58.5t-12.5 -57.5t-34 -47t-49 -32.5t-58.5 -12t-57.5 12t-48 32.5t-33.5 47t-12 57.5zM408 645h383q0 45 -9.5 84t-30 66.5t-55.5 44 t-90 16.5q-84 0 -137 -59.5t-61 -151.5zM672 1374q0 61 46 106.5t107 45.5q31 0 57.5 -12.5t48 -33t34 -48t12.5 -58.5t-12.5 -57.5t-34 -47t-48 -32.5t-57.5 -12t-58.5 12t-49 32.5t-33.5 47t-12 57.5z" />
<glyph unicode="&#xec;" horiz-adv-x="643" d="M26 1563.5q3 11.5 19 15.5l213 53q23 4 32 -2t15 -20l141 -359q10 -20 4 -27t-22 -12l-113 -41q-16 -4 -25 -0.5t-22 19.5l-237 352q-8 10 -5 21.5zM174 37v1001q0 23 10.5 30t32.5 7h211q29 0 36 -7t7 -30v-1001q0 -23 -7 -30t-36 -7h-211q-23 0 -33 7t-10 30z" />
<glyph unicode="&#xed;" horiz-adv-x="643" d="M174 37v1001q0 23 10.5 30t32.5 7h211q29 0 36 -7t7 -30v-1001q0 -23 -7 -30t-36 -7h-211q-23 0 -33 7t-10 30zM203 1225.5q-2 9.5 4 25.5l143 357q10 29 25.5 28.5t38.5 -6.5l194 -51q33 -8 17 -37l-240 -352q-12 -18 -21.5 -20.5t-25.5 1.5l-115 39q-18 6 -20 15.5z " />
<glyph unicode="&#xee;" horiz-adv-x="643" d="M-77 1246q1 9 11 26l269 280q29 29 59.5 46.5t61.5 17.5q45 0 73.5 -14.5t59.5 -49.5l272 -278q16 -16 15 -27.5t-17 -27.5l-59 -58q-14 -10 -25.5 -10t-32.5 14l-284 201l-275 -205q-16 -10 -27.5 -10t-27.5 14l-62 58q-12 14 -11 23zM174 37v1001q0 23 10.5 30t32.5 7 h211q29 0 36 -7t7 -30v-1001q0 -23 -7 -30t-36 -7h-211q-23 0 -33 7t-10 30z" />
<glyph unicode="&#xef;" horiz-adv-x="643" d="M-31 1364q0 31 12.5 58.5t34 48t48 33t57.5 12.5t58.5 -12.5t49 -33t33.5 -48t12 -58.5t-12 -57.5t-33.5 -47t-49 -33t-58.5 -12.5t-57.5 12.5t-48 33t-34 47t-12.5 57.5zM174 37v1001q0 23 10.5 30t32.5 7h211q29 0 36 -7t7 -30v-1001q0 -23 -7 -30t-36 -7h-211 q-23 0 -33 7t-10 30zM389 1364q0 61 46 106.5t108 45.5q31 0 57.5 -12.5t48 -33t33.5 -48t12 -58.5t-12 -57.5t-33.5 -47t-48.5 -33t-57 -12.5q-31 0 -58.5 12.5t-49 33t-34 47t-12.5 57.5z" />
<glyph unicode="&#xf0;" horiz-adv-x="1222" d="M92 471q0 94 27.5 186.5t87 163t149.5 114.5t217 44q45 0 97.5 -7t107.5 -30l10 12q-23 66 -56.5 123.5t-78.5 104.5l-143 -105q-23 -18 -39 6l-33 47q-10 12 -7 19.5t13 17.5l123 93q-35 29 -70.5 55t-76.5 49q-23 14 -25 24.5t6 24.5l56 98q12 20 25.5 21.5t35.5 -8.5 q66 -27 122 -59.5t110 -71.5l137 104q16 12 25.5 12t19.5 -14l35 -45q10 -14 9 -20.5t-13 -16.5l-121 -92q147 -135 217.5 -319.5t70.5 -391.5q0 -63 -8 -135t-29.5 -141.5t-59.5 -133t-97 -112.5t-143 -77.5t-199 -28.5q-147 0 -244.5 43t-155 112.5t-80 157.5t-22.5 176z M399 492q0 -41 5.5 -87.5t26 -84t59 -63.5t104.5 -26t107.5 27t66.5 70t34 98t9 113q0 43 -4 81.5t-8 67.5q-55 31 -104.5 41t-86.5 10q-59 0 -99 -22.5t-64.5 -57t-35 -78.5t-10.5 -89z" />
<glyph unicode="&#xf1;" horiz-adv-x="1247" d="M133 37v878q0 70 24.5 110t102.5 56q20 4 58 7.5t81 6.5t85 5t73 2q143 0 247.5 -29t173.5 -91t102.5 -163.5t33.5 -247.5v-534q0 -23 -7 -30t-36 -7h-213q-23 0 -33 7t-10 30v553q0 68 -11 117t-39 82.5t-76 50t-120 16.5q-20 0 -58 -1t-81 -9v-809q0 -23 -7 -30t-36 -7 h-211q-23 0 -33 7t-10 30zM169 1300.5q-1 10.5 7 26.5q39 78 95.5 126t148.5 48q39 0 73.5 -13t68.5 -28.5t67 -28t65 -12.5q33 0 54.5 15.5t42.5 50.5q12 23 18 24.5t25 -4.5l102 -35q20 -6 22.5 -15t-6.5 -30q-39 -86 -95 -142t-148 -56q-37 0 -74 13t-72 28.5t-69.5 29 t-71.5 13.5q-55 0 -96 -64q-12 -18 -21.5 -23t-25.5 5l-91 51q-18 10 -19 20.5z" />
<glyph unicode="&#xf2;" horiz-adv-x="1218" d="M92 539q0 131 36 236.5t102.5 177t161.5 110.5t216 39q258 0 388 -148.5t130 -410.5q0 -270 -129 -418t-393 -148q-266 0 -389 147.5t-123 414.5zM335 1563.5q3 11.5 19 15.5l213 53q23 4 32 -2t15 -20l142 -359q10 -20 4 -27t-23 -12l-112 -41q-16 -4 -25.5 -0.5 t-21.5 19.5l-238 352q-8 10 -5 21.5zM399 543q0 -154 48.5 -234t158.5 -80q57 0 97 23.5t66 65.5t37 97.5t11 121.5q0 70 -10 127t-34.5 98t-63.5 64.5t-97 23.5q-109 0 -161 -83t-52 -224z" />
<glyph unicode="&#xf3;" horiz-adv-x="1218" d="M92 539q0 131 36 236.5t102.5 177t161.5 110.5t216 39q258 0 388 -148.5t130 -410.5q0 -270 -129 -418t-393 -148q-266 0 -389 147.5t-123 414.5zM399 543q0 -154 48.5 -234t158.5 -80q57 0 97 23.5t66 65.5t37 97.5t11 121.5q0 70 -10 127t-34.5 98t-63.5 64.5t-97 23.5 q-109 0 -161 -83t-52 -224zM483.5 1225.5q-2.5 9.5 3.5 25.5l144 357q10 29 25.5 28.5t37.5 -6.5l195 -51q33 -8 16 -37l-239 -352q-12 -18 -21.5 -20.5t-26.5 1.5l-114 39q-18 6 -20.5 15.5z" />
<glyph unicode="&#xf4;" horiz-adv-x="1218" d="M92 539q0 131 36 236.5t102.5 177t161.5 110.5t216 39q258 0 388 -148.5t130 -410.5q0 -270 -129 -418t-393 -148q-266 0 -389 147.5t-123 414.5zM210 1246q1 9 11 26l268 280q29 29 60 46.5t61 17.5q45 0 74 -14.5t59 -49.5l273 -278q16 -16 15 -27.5t-17 -27.5l-60 -58 q-14 -10 -25 -10t-32 14l-285 201l-274 -205q-16 -10 -27.5 -10t-27.5 14l-62 58q-12 14 -11 23zM399 543q0 -154 48.5 -234t158.5 -80q57 0 97 23.5t66 65.5t37 97.5t11 121.5q0 70 -10 127t-34.5 98t-63.5 64.5t-97 23.5q-109 0 -161 -83t-52 -224z" />
<glyph unicode="&#xf5;" horiz-adv-x="1218" d="M92 539q0 131 36 236.5t102.5 177t161.5 110.5t216 39q258 0 388 -148.5t130 -410.5q0 -270 -129 -418t-393 -148q-266 0 -389 147.5t-123 414.5zM220.5 1312.5q-1.5 10.5 6.5 26.5q39 78 95.5 126t148.5 48q39 0 74 -13t68.5 -28.5t66.5 -27.5t65 -12q33 0 54.5 15 t42.5 50q12 23 18 25t25 -4l102 -35q20 -6 22.5 -15.5t-5.5 -29.5q-39 -86 -95.5 -142.5t-148.5 -56.5q-37 0 -74 13.5t-71.5 28.5t-69.5 28.5t-72 13.5q-55 0 -96 -63q-12 -18 -21.5 -23.5t-25.5 4.5l-90 51q-18 10 -19.5 20.5zM399 543q0 -154 48.5 -234t158.5 -80 q57 0 97 23.5t66 65.5t37 97.5t11 121.5q0 70 -10 127t-34.5 98t-63.5 64.5t-97 23.5q-109 0 -161 -83t-52 -224z" />
<glyph unicode="&#xf6;" horiz-adv-x="1218" d="M92 539q0 131 36 236.5t102.5 177t161.5 110.5t216 39q258 0 388 -148.5t130 -410.5q0 -270 -129 -418t-393 -148q-266 0 -389 147.5t-123 414.5zM246 1374q0 31 12 58.5t33.5 48t48.5 33t57 12.5q31 0 58.5 -12.5t49 -33t34 -48t12.5 -58.5t-12.5 -57.5t-34 -47 t-49 -32.5t-58.5 -12t-57.5 12t-48 32.5t-33.5 47t-12 57.5zM399 543q0 -154 48.5 -234t158.5 -80q57 0 97 23.5t66 65.5t37 97.5t11 121.5q0 70 -10 127t-34.5 98t-63.5 64.5t-97 23.5q-109 0 -161 -83t-52 -224zM666 1374q0 61 46 106.5t107 45.5q31 0 57.5 -12.5t48 -33 t34 -48t12.5 -58.5t-12.5 -57.5t-34 -47t-48 -32.5t-57.5 -12t-58.5 12t-49 32.5t-33.5 47t-12 57.5z" />
<glyph unicode="&#xf7;" d="M150 623v163q0 25 8 33t30 8h961q39 0 39 -41v-161q0 -43 -41 -43h-957q-41 0 -40 41zM485 287q0 37 15.5 70.5t41 58t59.5 39t73 14.5q82 0 136 -52t54 -130q0 -39 -14 -73t-41 -58.5t-61.5 -39t-73.5 -14.5t-73 14.5t-59.5 39t-41 58.5t-15.5 73zM485 1110 q0 76 55.5 128t133.5 52q82 0 136 -51t54 -129t-55 -131t-135 -53q-78 0 -133.5 52t-55.5 132z" />
<glyph unicode="&#xf8;" horiz-adv-x="1218" d="M92 539q0 131 36 236.5t102.5 177t161.5 110.5t216 39q219 0 350 -113l80 92q12 12 19.5 13.5t17.5 -9.5l31 -26q10 -10 11 -17.5t-9 -19.5l-88 -98q106 -143 106 -381q0 -270 -129 -418t-393 -148q-111 0 -195.5 27t-146.5 76l-82 -90q-20 -20 -35 -4l-30 26 q-12 10 -10.5 18.5t12.5 18.5l84 94q-57 72 -83 171.5t-26 224.5zM399 543q0 -92 19 -160l344 391q-47 76 -150 76q-109 0 -161 -83t-52 -224zM457 295q49 -66 149 -66q57 0 97 23.5t66 65.5t37 97.5t11 121.5q0 41 -3 76.5t-13 68.5z" />
<glyph unicode="&#xf9;" horiz-adv-x="1228" d="M133 508v530q0 23 7 31t36 8h213q43 0 43 -39v-549q0 -68 8.5 -117.5t33 -83.5t69 -50.5t116.5 -16.5q20 0 58.5 2t81.5 8v807q0 23 7 31t36 8h211q43 0 43 -39v-874q0 -70 -28 -111t-99 -57q-25 -4 -62 -8t-79 -7.5t-82.5 -4.5t-71.5 -1q-147 0 -251 29t-168.5 92.5 t-93 164.5t-28.5 247zM337 1563.5q3 11.5 19 15.5l213 53q23 4 32 -2t15 -20l142 -359q10 -20 4 -27t-23 -12l-112 -41q-16 -4 -25.5 -0.5t-21.5 19.5l-238 352q-8 10 -5 21.5z" />
<glyph unicode="&#xfa;" horiz-adv-x="1228" d="M133 508v530q0 23 7 31t36 8h213q43 0 43 -39v-549q0 -68 8.5 -117.5t33 -83.5t69 -50.5t116.5 -16.5q20 0 58.5 2t81.5 8v807q0 23 7 31t36 8h211q43 0 43 -39v-874q0 -70 -28 -111t-99 -57q-25 -4 -62 -8t-79 -7.5t-82.5 -4.5t-71.5 -1q-147 0 -251 29t-168.5 92.5 t-93 164.5t-28.5 247zM489.5 1225.5q-2.5 9.5 4.5 25.5l143 357q10 29 25.5 28.5t37.5 -6.5l195 -51q33 -8 16 -37l-239 -352q-12 -18 -21.5 -20.5t-25.5 1.5l-115 39q-18 6 -20.5 15.5z" />
<glyph unicode="&#xfb;" horiz-adv-x="1228" d="M133 508v530q0 23 7 31t36 8h213q43 0 43 -39v-549q0 -68 8.5 -117.5t33 -83.5t69 -50.5t116.5 -16.5q20 0 58.5 2t81.5 8v807q0 23 7 31t36 8h211q43 0 43 -39v-874q0 -70 -28 -111t-99 -57q-25 -4 -62 -8t-79 -7.5t-82.5 -4.5t-71.5 -1q-147 0 -251 29t-168.5 92.5 t-93 164.5t-28.5 247zM226.5 1246q0.5 9 11.5 26l268 280q29 29 59.5 46.5t61.5 17.5q45 0 73.5 -14.5t59.5 -49.5l272 -278q16 -16 15.5 -27.5t-17.5 -27.5l-59 -58q-14 -10 -25.5 -10t-32.5 14l-284 201l-275 -205q-16 -10 -27.5 -10t-27.5 14l-61 58q-12 14 -11.5 23z " />
<glyph unicode="&#xfc;" horiz-adv-x="1228" d="M133 508v530q0 23 7 31t36 8h213q43 0 43 -39v-549q0 -68 8.5 -117.5t33 -83.5t69 -50.5t116.5 -16.5q20 0 58.5 2t81.5 8v807q0 23 7 31t36 8h211q43 0 43 -39v-874q0 -70 -28 -111t-99 -57q-25 -4 -62 -8t-79 -7.5t-82.5 -4.5t-71.5 -1q-147 0 -251 29t-168.5 92.5 t-93 164.5t-28.5 247zM272 1376q0 31 12.5 58.5t34 48t48 33t57.5 12.5t58.5 -12.5t49 -33t34 -48t12.5 -58.5t-12.5 -57.5t-34 -47t-49 -32.5t-58.5 -12t-57.5 12t-48 32.5t-34 47.5t-12.5 57zM692 1376q0 61 46 106.5t108 45.5q31 0 57.5 -12.5t48 -33t33.5 -48t12 -58.5 t-12 -57.5t-33.5 -47t-48 -32.5t-57.5 -12t-58.5 12t-49 32.5t-34 47.5t-12.5 57z" />
<glyph unicode="&#xfd;" horiz-adv-x="1144" d="M25 1036q-8 23 1 31t25 8h240q31 0 42 -7t17 -30l117 -413l96 -357h12l105 363l123 403q6 23 16 32t41 9h244q35 0 22 -33l-413 -1222v2q-47 -141 -135.5 -201.5t-233.5 -60.5q-41 0 -95 6t-108 22q-25 6 -32 14.5t0 30.5l34 162q6 25 14.5 27t30.5 -2q33 -6 55.5 -8 t45.5 -2q72 0 112.5 23.5t63.5 94.5l37 111h-60q-47 0 -67.5 16.5t-38.5 71.5zM481.5 1225.5q-2.5 9.5 3.5 25.5l144 357q10 29 25.5 28.5t37.5 -6.5l195 -51q33 -8 16 -37l-239 -352q-12 -18 -21.5 -20.5t-26.5 1.5l-114 39q-18 6 -20.5 15.5z" />
<glyph unicode="&#xfe;" horiz-adv-x="1236" d="M133 -383v1817q0 23 9.5 32t33.5 9h213q29 0 36 -10.5t7 -32.5v-351q49 8 98.5 12.5t96.5 4.5q145 0 244.5 -44t160 -119t87 -177.5t26.5 -218.5q0 -115 -29 -216.5t-88 -177t-150.5 -119.5t-213.5 -44q-61 0 -113.5 5t-118.5 19v-389q0 -23 -7 -29t-36 -6h-213 q-23 0 -33 6t-10 29zM432 260q53 -14 95 -18t75 -4q102 0 167 69.5t65 237.5q0 84 -16.5 141t-48.5 92t-78 49.5t-103 14.5q-29 0 -75 -6.5t-81 -16.5v-559z" />
<glyph unicode="&#xff;" horiz-adv-x="1144" d="M25 1036q-8 23 1 31t25 8h240q31 0 42 -7t17 -30l117 -413l96 -357h12l105 363l123 403q6 23 16 32t41 9h244q35 0 22 -33l-413 -1222v2q-47 -141 -135.5 -201.5t-233.5 -60.5q-41 0 -95 6t-108 22q-25 6 -32 14.5t0 30.5l34 162q6 25 14.5 27t30.5 -2q33 -6 55.5 -8 t45.5 -2q72 0 112.5 23.5t63.5 94.5l37 111h-60q-47 0 -67.5 16.5t-38.5 71.5zM221 1370q0 31 12.5 58.5t34 48t48 33t57.5 12.5t58.5 -12.5t49 -33t33.5 -48t12 -58.5t-12 -57.5t-33.5 -47t-49.5 -32.5t-58 -12q-31 0 -57.5 12t-48 32.5t-34 47t-12.5 57.5zM641 1370 q0 61 46 106.5t108 45.5q31 0 57.5 -12.5t48 -33t33.5 -48t12 -58.5t-12 -57.5t-33.5 -47t-48.5 -32.5t-57 -12q-31 0 -58.5 12t-49 32.5t-34 47t-12.5 57.5z" />
<glyph unicode="&#x100;" horiz-adv-x="1341" d="M29 41l426 1284q10 35 23.5 56.5t30.5 33.5t40.5 17.5t54.5 5.5h123q35 0 59.5 -3t43 -15.5t31.5 -35t26 -59.5l426 -1284q4 -12 0 -26.5t-27 -14.5h-244q-23 0 -38 5t-21 28l-80 266h-469l-80 -260q-6 -20 -17 -29.5t-40 -9.5h-240q-23 0 -27.5 12.5t-0.5 28.5z M348 1610v123q0 29 9.5 36t31.5 7h555q23 0 32 -7.5t9 -35.5v-123q0 -43 -41 -43h-555q-41 0 -41 43zM508 553h321l-77 260l-76 293h-12l-78 -293z" />
<glyph unicode="&#x101;" horiz-adv-x="1179" d="M92 319q0 80 26.5 146.5t80 116t134.5 77t191 27.5h226v33q0 29 -6.5 55.5t-26 46t-54 31.5t-92.5 12q-31 0 -69.5 -3t-77.5 -8t-76 -12t-65 -16q-27 -6 -37 0t-15 27l-32 143q-6 23 -1 32t21 15q92 33 193.5 47.5t201.5 14.5q223 0 328 -95.5t105 -281.5v-594 q0 -27 -7.5 -45t-35.5 -35q-47 -23 -101.5 -37t-111 -22t-113.5 -12.5t-109 -4.5q-139 0 -230 27t-146.5 73t-78 108.5t-22.5 133.5zM279 1300v123q0 29 9 36t31 7h555q23 0 32 -7t9 -36v-123q0 -43 -41 -43h-555q-41 0 -40 43zM399 342q0 -72 48.5 -100.5t130.5 -28.5 q12 0 32.5 1t44 4t48 8t45.5 14v247h-162q-29 0 -61.5 -4t-60.5 -19t-46.5 -44t-18.5 -78z" />
<glyph unicode="&#x102;" horiz-adv-x="1341" d="M29 41l426 1284q10 35 23.5 56.5t30.5 33.5t40.5 17.5t54.5 5.5h123q35 0 59.5 -3t43 -15.5t31.5 -35t26 -59.5l426 -1284q4 -12 0 -26.5t-27 -14.5h-244q-23 0 -38 5t-21 28l-80 266h-469l-80 -260q-6 -20 -17 -29.5t-40 -9.5h-240q-23 0 -27.5 12.5t-0.5 28.5z M264 1768.5q-4 11.5 15 27.5l79 78q20 16 27.5 11t24.5 -17q66 -66 130 -102.5t124 -36.5q25 0 50 5t56 20t67.5 43t86.5 75q20 16 28.5 15t18.5 -11l78 -68q20 -18 17 -28.5t-9 -18.5q-187 -248 -406 -248q-61 0 -115.5 19.5t-102.5 53.5t-88 76t-73 89q-4 6 -8 17.5z M508 553h321l-77 260l-76 293h-12l-78 -293z" />
<glyph unicode="&#x103;" horiz-adv-x="1179" d="M92 319q0 80 26.5 146.5t80 116t134.5 77t191 27.5h226v33q0 29 -6.5 55.5t-26 46t-54 31.5t-92.5 12q-31 0 -69.5 -3t-77.5 -8t-76 -12t-65 -16q-27 -6 -37 0t-15 27l-32 143q-6 23 -1 32t21 15q92 33 193.5 47.5t201.5 14.5q223 0 328 -95.5t105 -281.5v-594 q0 -27 -7.5 -45t-35.5 -35q-47 -23 -101.5 -37t-111 -22t-113.5 -12.5t-109 -4.5q-139 0 -230 27t-146.5 73t-78 108.5t-22.5 133.5zM201 1440.5q-4 11.5 14 27.5l80 78q20 16 27.5 11t23.5 -17q66 -66 130.5 -102.5t123.5 -36.5q25 0 50.5 5t56 20.5t67.5 43t86 74.5 q20 16 28.5 15.5t18.5 -11.5l78 -67q20 -18 17 -28.5t-9 -18.5q-186 -248 -405 -248q-61 0 -115.5 19.5t-102.5 53t-88 75.5t-73 89q-4 6 -8 17.5zM399 342q0 -72 48.5 -100.5t130.5 -28.5q12 0 32.5 1t44 4t48 8t45.5 14v247h-162q-29 0 -61.5 -4t-60.5 -19t-46.5 -44 t-18.5 -78z" />
<glyph unicode="&#x104;" horiz-adv-x="1341" d="M29 41l426 1284q10 35 23.5 56.5t30.5 33.5t40.5 17.5t54.5 5.5h123q35 0 59.5 -3t43 -15.5t31.5 -35t26 -59.5l426 -1284q4 -12 0 -26.5t-27 -14.5h-153q-68 -68 -96.5 -124t-28.5 -101q0 -82 108 -82q20 0 55 3t64 9q18 4 27.5 2t13.5 -18l20 -76q6 -18 0 -27.5 t-16 -15.5q-61 -25 -129 -35t-127 -10q-123 0 -176 52t-55 128q0 37 14 81t39.5 87t61.5 82t79 68q-4 4 -4 10l-80 266h-469l-80 -260q-6 -20 -17 -29.5t-40 -9.5h-240q-23 0 -27.5 12.5t-0.5 28.5zM508 553h321l-77 260l-76 293h-12l-78 -293z" />
<glyph unicode="&#x105;" horiz-adv-x="1179" d="M92 319q0 80 26.5 146.5t80 116t134.5 77t191 27.5h226v33q0 29 -6.5 55.5t-26 46t-54 31.5t-92.5 12q-31 0 -69.5 -3t-77.5 -8t-76 -12t-65 -16q-27 -6 -37 0t-15 27l-32 143q-6 23 -1 32t21 15q92 33 193.5 47.5t201.5 14.5q223 0 328 -95.5t105 -281.5v-594 q0 -27 -7.5 -45t-35.5 -35q-2 -2 -7 -2q-61 -63 -86.5 -116.5t-25.5 -96.5q0 -82 108 -82q20 0 55 3t64 10q18 4 27.5 2t13.5 -19l21 -76q6 -18 -0.5 -27t-16.5 -16q-61 -25 -128.5 -35t-127.5 -10q-123 0 -176 52.5t-55 128.5q0 49 23.5 108.5t66.5 112.5q-98 -12 -191 -13 q-139 0 -230 27t-146.5 73t-78 108.5t-22.5 133.5zM399 342q0 -72 48.5 -100.5t130.5 -28.5q12 0 32.5 1t44 4t48 8t45.5 14v247h-162q-29 0 -61.5 -4t-60.5 -19t-46.5 -44t-18.5 -78z" />
<glyph unicode="&#x106;" horiz-adv-x="1316" d="M113 709q0 168 48 305t134 235.5t208 151.5t269 53q104 0 204.5 -17.5t197.5 -70.5q23 -12 26.5 -24.5t-10.5 -47.5l-64 -141q-10 -29 -21 -35t-40 4q-74 27 -137.5 40.5t-141.5 13.5q-84 0 -148.5 -36t-108.5 -98.5t-66.5 -147.5t-22.5 -185t17.5 -182.5t59.5 -141.5 t110 -92t168 -33q98 0 173.5 23.5t141.5 48.5q29 12 41 5t23 -30l69 -147q14 -29 10 -43.5t-22 -24.5q-111 -68 -232.5 -91.5t-240.5 -23.5q-168 0 -290 50.5t-201 144.5t-116.5 230.5t-37.5 306.5zM574.5 1646.5q-1.5 8.5 15.5 22.5l332 258q12 10 22 14.5t27 -12.5 l141 -162q12 -12 10 -23t-14 -15l-395 -203q-20 -10 -29.5 -7t-19.5 13l-78 94q-10 12 -11.5 20.5z" />
<glyph unicode="&#x107;" horiz-adv-x="1046" d="M92 535q0 131 36 236.5t101.5 179t160.5 112.5t212 39q86 0 170 -17.5t154 -52.5q27 -12 29.5 -22.5t-7.5 -34.5l-57 -158q-10 -23 -22.5 -24.5t-41.5 6.5q-53 16 -104 26.5t-98 10.5q-61 0 -103.5 -25t-69 -65.5t-39 -95t-12.5 -115.5q0 -63 10.5 -116.5t37 -92.5 t70.5 -60.5t112 -21.5q66 0 128 15t107 32q27 10 36 7t18 -26l57 -153q10 -20 9 -32.5t-23 -25.5q-90 -49 -192.5 -66.5t-186.5 -17.5q-242 0 -367 139.5t-125 418.5zM459 1225.5q-2 9.5 4 25.5l143 357q10 29 25.5 28.5t38.5 -6.5l194 -51q33 -8 17 -37l-240 -352 q-12 -18 -21.5 -20.5t-25.5 1.5l-115 39q-18 6 -20 15.5z" />
<glyph unicode="&#x108;" horiz-adv-x="1316" d="M113 709q0 168 48 305t134 235.5t208 151.5t269 53q104 0 204.5 -17.5t197.5 -70.5q23 -12 26.5 -24.5t-10.5 -47.5l-64 -141q-10 -29 -21 -35t-40 4q-74 27 -137.5 40.5t-141.5 13.5q-84 0 -148.5 -36t-108.5 -98.5t-66.5 -147.5t-22.5 -185t17.5 -182.5t59.5 -141.5 t110 -92t168 -33q98 0 173.5 23.5t141.5 48.5q29 12 41 5t23 -30l69 -147q14 -29 10 -43.5t-22 -24.5q-111 -68 -232.5 -91.5t-240.5 -23.5q-168 0 -290 50.5t-201 144.5t-116.5 230.5t-37.5 306.5zM343 1604.5q-1 9.5 13 23.5l273 236q29 25 60.5 39t58.5 14q59 0 124 -53 l277 -234q18 -16 18 -27.5t-14 -25.5l-57 -64q-12 -14 -26.5 -11t-31.5 14l-290 157l-283 -153q-16 -10 -28.5 -11.5t-26.5 15.5l-54 55q-12 16 -13 25.5z" />
<glyph unicode="&#x109;" horiz-adv-x="1046" d="M92 535q0 131 36 236.5t101.5 179t160.5 112.5t212 39q86 0 170 -17.5t154 -52.5q27 -12 29.5 -22.5t-7.5 -34.5l-57 -158q-10 -23 -22.5 -24.5t-41.5 6.5q-53 16 -104 26.5t-98 10.5q-61 0 -103.5 -25t-69 -65.5t-39 -95t-12.5 -115.5q0 -63 10.5 -116.5t37 -92.5 t70.5 -60.5t112 -21.5q66 0 128 15t107 32q27 10 36 7t18 -26l57 -153q10 -20 9 -32.5t-23 -25.5q-90 -49 -192.5 -66.5t-186.5 -17.5q-242 0 -367 139.5t-125 418.5zM183.5 1248q0.5 9 11.5 26l268 280q29 29 59.5 46.5t61.5 17.5q45 0 73.5 -14.5t59.5 -49.5l272 -278 q16 -16 15.5 -27.5t-17.5 -27.5l-59 -58q-14 -10 -25.5 -10t-32.5 14l-284 201l-275 -205q-16 -10 -27.5 -10t-27.5 14l-61 58q-12 14 -11.5 23z" />
<glyph unicode="&#x10a;" horiz-adv-x="1316" d="M113 709q0 168 48 305t134 235.5t208 151.5t269 53q104 0 204.5 -17.5t197.5 -70.5q23 -12 26.5 -24.5t-10.5 -47.5l-64 -141q-10 -29 -21 -35t-40 4q-74 27 -137.5 40.5t-141.5 13.5q-84 0 -148.5 -36t-108.5 -98.5t-66.5 -147.5t-22.5 -185t17.5 -182.5t59.5 -141.5 t110 -92t168 -33q98 0 173.5 23.5t141.5 48.5q29 12 41 5t23 -30l69 -147q14 -29 10 -43.5t-22 -24.5q-111 -68 -232.5 -91.5t-240.5 -23.5q-168 0 -290 50.5t-201 144.5t-116.5 230.5t-37.5 306.5zM598 1690q0 70 50 119t120 49q68 0 118 -49t50 -119q0 -72 -50 -119 t-118 -47q-70 0 -120 47t-50 119z" />
<glyph unicode="&#x10b;" horiz-adv-x="1046" d="M92 535q0 131 36 236.5t101.5 179t160.5 112.5t212 39q86 0 170 -17.5t154 -52.5q27 -12 29.5 -22.5t-7.5 -34.5l-57 -158q-10 -23 -22.5 -24.5t-41.5 6.5q-53 16 -104 26.5t-98 10.5q-61 0 -103.5 -25t-69 -65.5t-39 -95t-12.5 -115.5q0 -63 10.5 -116.5t37 -92.5 t70.5 -60.5t112 -21.5q66 0 128 15t107 32q27 10 36 7t18 -26l57 -153q10 -20 9 -32.5t-23 -25.5q-90 -49 -192.5 -66.5t-186.5 -17.5q-242 0 -367 139.5t-125 418.5zM422 1378q0 70 50 119t120 49q68 0 118 -49t50 -119q0 -72 -50.5 -119t-117.5 -47q-70 0 -120 47.5 t-50 118.5z" />
<glyph unicode="&#x10c;" horiz-adv-x="1316" d="M113 709q0 168 48 305t134 235.5t208 151.5t269 53q104 0 204.5 -17.5t197.5 -70.5q23 -12 26.5 -24.5t-10.5 -47.5l-64 -141q-10 -29 -21 -35t-40 4q-74 27 -137.5 40.5t-141.5 13.5q-84 0 -148.5 -36t-108.5 -98.5t-66.5 -147.5t-22.5 -185t17.5 -182.5t59.5 -141.5 t110 -92t168 -33q98 0 173.5 23.5t141.5 48.5q29 12 41 5t23 -30l69 -147q14 -29 10 -43.5t-22 -24.5q-111 -68 -232.5 -91.5t-240.5 -23.5q-168 0 -290 50.5t-201 144.5t-116.5 230.5t-37.5 306.5zM344 1819.5q0 9.5 12 21.5l64 70q14 14 24.5 11t26.5 -13l279 -158 l301 164q16 8 26 10t23 -14l61 -66q12 -14 13.5 -21t-17.5 -24l-278 -231q-43 -35 -69 -47.5t-60 -12.5q-20 0 -46 7.5t-49 27.5l-295 254q-16 12 -16 21.5z" />
<glyph unicode="&#x10d;" horiz-adv-x="1046" d="M92 535q0 131 36 236.5t101.5 179t160.5 112.5t212 39q86 0 170 -17.5t154 -52.5q27 -12 29.5 -22.5t-7.5 -34.5l-57 -158q-10 -23 -22.5 -24.5t-41.5 6.5q-53 16 -104 26.5t-98 10.5q-61 0 -103.5 -25t-69 -65.5t-39 -95t-12.5 -115.5q0 -63 10.5 -116.5t37 -92.5 t70.5 -60.5t112 -21.5q66 0 128 15t107 32q27 10 36 7t18 -26l57 -153q10 -20 9 -32.5t-23 -25.5q-90 -49 -192.5 -66.5t-186.5 -17.5q-242 0 -367 139.5t-125 418.5zM178 1511q-20 25 2 48l64 61q14 14 25.5 12t27.5 -14l272 -203l287 203q16 12 25.5 15t25.5 -11l72 -59 q16 -14 13 -26.5t-19 -29.5l-295 -297q-16 -18 -42 -27t-54 -12q-33 -2 -65 8.5t-54 34.5z" />
<glyph unicode="&#x10e;" horiz-adv-x="1427" d="M154 125v1184q0 66 24.5 96.5t97.5 30.5h383q180 0 305.5 -57.5t203 -154t112.5 -226.5t35 -273q0 -141 -31 -272t-104.5 -231.5t-195.5 -161t-302 -60.5h-406q-74 0 -98 29.5t-24 95.5zM223.5 1819.5q-0.5 9.5 12.5 21.5l63 70q14 14 24.5 11t26.5 -13l279 -158l301 164 q16 8 26.5 10t22.5 -14l61 -66q12 -14 13.5 -21t-17.5 -24l-278 -231q-43 -35 -68.5 -47.5t-60.5 -12.5q-20 0 -46 7.5t-48 27.5l-295 254q-16 12 -16.5 21.5zM465 274h166q106 0 177 34t112 93.5t57 142.5t16 181q0 94 -16 174t-58 138.5t-114 92t-180 33.5h-160v-889z" />
<glyph unicode="&#x10f;" horiz-adv-x="1544" d="M92 528q0 115 29 219.5t88 183.5t153.5 125t223.5 46q53 0 103 -4t114 -19v375q0 25 9 33t36 8h209q23 0 34 -7t11 -34v-1261v-46.5t-4 -46.5q-2 -23 -31 -41t-73 -31.5t-98 -23.5t-107.5 -15t-100.5 -8.5t-78 -3.5q-147 0 -246.5 41t-160 115t-86 174t-25.5 221z M401 524q0 -164 64.5 -229.5t179.5 -65.5q29 0 77 6.5t81 18.5v571q-53 12 -94 16.5t-74 4.5q-104 0 -169 -76t-65 -246zM1245 1004l29 407q0 16 8 28.5t35 12.5h207q29 0 36 -12.5t3 -28.5l-136 -403q-8 -23 -15 -32t-30 -9h-92q-49 0 -45 37z" />
<glyph unicode="&#x110;" horiz-adv-x="1427" d="M23 686v86q0 29 6 37t28 8h97v492q0 66 24.5 96.5t97.5 30.5h383q180 0 305.5 -57.5t203 -154t112.5 -226.5t35 -273q0 -141 -31 -272t-104.5 -231.5t-195.5 -161t-302 -60.5h-406q-74 0 -98 29.5t-24 95.5v520h-97q-23 0 -28.5 9.5t-5.5 31.5zM467 274h164q106 0 177 34 t112 93.5t57 142.5t16 181q0 94 -16 174t-58 138.5t-114 92t-180 33.5h-158v-346h244q23 0 28.5 -8t5.5 -37v-86q0 -23 -6 -32t-28 -9h-244v-371z" />
<glyph unicode="&#x111;" horiz-adv-x="1236" d="M92 510q0 113 27.5 211t83 172t141.5 119t203 53q23 2 41 2h39q39 -2 82 -7t94 -16v150h-289q-20 0 -24.5 8t-4.5 31v57q0 27 3.5 35t25.5 8h289v121q0 25 9 33t36 8h209q23 0 34 -7t11 -34v-121h78q23 0 27.5 -8t4.5 -35v-57q0 -23 -6 -31t-26 -8h-78v-1075 q0 -23 -8.5 -38t-36.5 -26l-25 -12q-100 -37 -212.5 -51.5t-209.5 -14.5q-147 0 -246.5 39t-160 110t-86 169t-25.5 215zM401 506q0 -78 16.5 -131t48.5 -86t77 -46.5t102 -13.5q29 0 77 6.5t81 18.5v534q-53 16 -94 19.5t-74 3.5q-102 0 -168 -71.5t-66 -233.5z" />
<glyph unicode="&#x112;" horiz-adv-x="1255" d="M154 377v680q0 74 20.5 141.5t64.5 120.5t115.5 85t175.5 32h588q25 0 32 -10.5t7 -39.5v-174q0 -27 -8 -36t-31 -9h-520q-80 0 -106.5 -36.5t-26.5 -90.5v-157h588q25 0 32 -10.5t7 -38.5v-160q0 -25 -7.5 -36t-31.5 -11h-588v-234q0 -72 33.5 -97.5t99.5 -25.5h541 q27 0 34 -9t7 -40v-174q0 -25 -8.5 -36t-32.5 -11h-607q-115 0 -187.5 33t-115.5 86t-59 120.5t-16 137.5zM403 1616v123q0 29 9.5 36t31.5 7h555q23 0 32 -7.5t9 -35.5v-123q0 -43 -41 -43h-555q-41 0 -41 43z" />
<glyph unicode="&#x113;" horiz-adv-x="1163" d="M92 532q0 135 36 241t102.5 179.5t159.5 111.5t210 38q240 0 359.5 -120t119.5 -343q0 -106 -41 -145t-112 -39h-525q2 -66 21.5 -109t52.5 -69.5t77 -37t95 -10.5q59 0 120.5 14.5t115.5 37.5q25 8 34 5t17 -20l65 -147q8 -18 3 -28.5t-21 -20.5q-76 -49 -176 -71 t-187 -22q-268 0 -397 133.5t-129 421.5zM281 1296v123q0 29 9 36t32 7h555q23 0 32 -7t9 -36v-123q0 -43 -41 -43h-555q-41 0 -41 43zM408 645h383q0 45 -9.5 84t-30 66.5t-55.5 44t-90 16.5q-84 0 -137 -59.5t-61 -151.5z" />
<glyph unicode="&#x114;" horiz-adv-x="1255" d="M154 377v680q0 74 20.5 141.5t64.5 120.5t115.5 85t175.5 32h588q25 0 32 -10.5t7 -39.5v-174q0 -27 -8 -36t-31 -9h-520q-80 0 -106.5 -36.5t-26.5 -90.5v-157h588q25 0 32 -10.5t7 -38.5v-160q0 -25 -7.5 -36t-31.5 -11h-588v-234q0 -72 33.5 -97.5t99.5 -25.5h541 q27 0 34 -9t7 -40v-174q0 -25 -8.5 -36t-32.5 -11h-607q-115 0 -187.5 33t-115.5 86t-59 120.5t-16 137.5zM307 1760.5q-4 11.5 15 27.5l79 78q20 16 27.5 11t24.5 -17q66 -66 130 -103t124 -37q25 0 50 5.5t56 20.5t68 43t86 75q20 16 28.5 15t18.5 -11l78 -68 q20 -18 17 -28.5t-9 -18.5q-187 -248 -406 -248q-61 0 -115.5 19.5t-102.5 53.5t-88 76t-73 89q-4 6 -8 17.5z" />
<glyph unicode="&#x115;" horiz-adv-x="1163" d="M92 532q0 135 36 241t102.5 179.5t159.5 111.5t210 38q240 0 359.5 -120t119.5 -343q0 -106 -41 -145t-112 -39h-525q2 -66 21.5 -109t52.5 -69.5t77 -37t95 -10.5q59 0 120.5 14.5t115.5 37.5q25 8 34 5t17 -20l65 -147q8 -18 3 -28.5t-21 -20.5q-76 -49 -176 -71 t-187 -22q-268 0 -397 133.5t-129 421.5zM186.5 1436.5q-4.5 11.5 14.5 27.5l80 78q20 16 27 11t24 -17q66 -66 130 -102.5t124 -36.5q25 0 50.5 5t56 20.5t67.5 43t86 74.5q20 16 28.5 15t18.5 -11l78 -67q20 -18 17 -28.5t-9 -18.5q-187 -248 -406 -248q-61 0 -115.5 19.5 t-102.5 53t-88 75.5t-72 89q-4 6 -8.5 17.5zM408 645h383q0 45 -9.5 84t-30 66.5t-55.5 44t-90 16.5q-84 0 -137 -59.5t-61 -151.5z" />
<glyph unicode="&#x116;" horiz-adv-x="1255" d="M154 377v680q0 74 20.5 141.5t64.5 120.5t115.5 85t175.5 32h588q25 0 32 -10.5t7 -39.5v-174q0 -27 -8 -36t-31 -9h-520q-80 0 -106.5 -36.5t-26.5 -90.5v-157h588q25 0 32 -10.5t7 -38.5v-160q0 -25 -7.5 -36t-31.5 -11h-588v-234q0 -72 33.5 -97.5t99.5 -25.5h541 q27 0 34 -9t7 -40v-174q0 -25 -8.5 -36t-32.5 -11h-607q-115 0 -187.5 33t-115.5 86t-59 120.5t-16 137.5zM530 1681q0 70 50.5 119t119.5 49q68 0 118 -49t50 -119q0 -72 -50 -118.5t-118 -46.5q-70 0 -120 47t-50 118z" />
<glyph unicode="&#x117;" horiz-adv-x="1163" d="M92 532q0 135 36 241t102.5 179.5t159.5 111.5t210 38q240 0 359.5 -120t119.5 -343q0 -106 -41 -145t-112 -39h-525q2 -66 21.5 -109t52.5 -69.5t77 -37t95 -10.5q59 0 120.5 14.5t115.5 37.5q25 8 34 5t17 -20l65 -147q8 -18 3 -28.5t-21 -20.5q-76 -49 -176 -71 t-187 -22q-268 0 -397 133.5t-129 421.5zM408 645h383q0 45 -9.5 84t-30 66.5t-55.5 44t-90 16.5q-84 0 -137 -59.5t-61 -151.5zM430 1378q0 70 50 119t120 49q68 0 118 -49t50 -119q0 -72 -50 -119t-118 -47q-70 0 -120 47.5t-50 118.5z" />
<glyph unicode="&#x118;" horiz-adv-x="1255" d="M154 377v680q0 74 20.5 141.5t64.5 120.5t115.5 85t175.5 32h588q25 0 32 -10.5t7 -39.5v-174q0 -27 -8 -36t-31 -9h-520q-80 0 -106.5 -36.5t-26.5 -90.5v-157h588q25 0 32 -10.5t7 -38.5v-160q0 -25 -7.5 -36t-31.5 -11h-588v-234q0 -72 33.5 -97.5t99.5 -25.5h541 q27 0 34 -9t7 -40v-174q0 -25 -8.5 -36t-32.5 -11h-6q-66 -66 -92.5 -120t-26.5 -99q0 -82 108 -82q20 0 55 3t64 9q18 4 27.5 2t13.5 -18l21 -76q6 -18 -0.5 -27.5t-16.5 -15.5q-61 -25 -128.5 -35t-127.5 -10q-123 0 -176 52t-55 128q0 68 42 149t113 140h-422 q-115 0 -187.5 33t-115.5 86t-59 120.5t-16 137.5z" />
<glyph unicode="&#x119;" horiz-adv-x="1163" d="M92 532q0 135 36 241t102.5 179.5t159.5 111.5t210 38q240 0 359.5 -120t119.5 -343q0 -106 -41 -145t-112 -39h-525q2 -66 21.5 -109t52.5 -69.5t77 -37t95 -10.5q59 0 120.5 14.5t115.5 37.5q25 8 34 5t17 -20l65 -147q8 -18 3 -28.5t-21 -20.5q-8 -6 -25 -15 q-68 -68 -95 -123t-27 -100q0 -82 108 -82q20 0 55 3t64 9q18 4 27.5 2t13.5 -18l20 -76q6 -18 0 -27.5t-16 -15.5q-61 -25 -129 -35t-127 -10q-123 0 -176 52.5t-56 127.5q0 49 24 108.5t65 113.5q-47 -6 -89 -7q-268 0 -397 133.5t-129 421.5zM408 645h383q0 45 -9.5 84 t-30 66.5t-55.5 44t-90 16.5q-84 0 -137 -59.5t-61 -151.5z" />
<glyph unicode="&#x11a;" horiz-adv-x="1255" d="M154 377v680q0 74 20.5 141.5t64.5 120.5t115.5 85t175.5 32h588q25 0 32 -10.5t7 -39.5v-174q0 -27 -8 -36t-31 -9h-520q-80 0 -106.5 -36.5t-26.5 -90.5v-157h588q25 0 32 -10.5t7 -38.5v-160q0 -25 -7.5 -36t-31.5 -11h-588v-234q0 -72 33.5 -97.5t99.5 -25.5h541 q27 0 34 -9t7 -40v-174q0 -25 -8.5 -36t-32.5 -11h-607q-115 0 -187.5 33t-115.5 86t-59 120.5t-16 137.5zM270.5 1819.5q-0.5 9.5 12.5 21.5l63 70q14 14 24.5 11t26.5 -13l279 -158l301 164q16 8 26.5 10t22.5 -14l61 -66q12 -14 13.5 -21t-17.5 -24l-278 -231 q-43 -35 -68.5 -47.5t-60.5 -12.5q-20 0 -46 7.5t-48 27.5l-295 254q-16 12 -16.5 21.5z" />
<glyph unicode="&#x11b;" horiz-adv-x="1163" d="M92 532q0 135 36 241t102.5 179.5t159.5 111.5t210 38q240 0 359.5 -120t119.5 -343q0 -106 -41 -145t-112 -39h-525q2 -66 21.5 -109t52.5 -69.5t77 -37t95 -10.5q59 0 120.5 14.5t115.5 37.5q25 8 34 5t17 -20l65 -147q8 -18 3 -28.5t-21 -20.5q-76 -49 -176 -71 t-187 -22q-268 0 -397 133.5t-129 421.5zM186 1511q-20 25 2 48l64 61q14 14 25.5 12t27.5 -14l273 -203l286 203q16 12 25.5 15t25.5 -11l72 -59q16 -14 13 -26.5t-19 -29.5l-295 -297q-16 -18 -42 -27t-54 -12q-33 -2 -64.5 8.5t-54.5 34.5zM408 645h383q0 45 -9.5 84 t-30 66.5t-55.5 44t-90 16.5q-84 0 -137 -59.5t-61 -151.5z" />
<glyph unicode="&#x11c;" horiz-adv-x="1417" d="M113 711q0 168 43 305t128 234.5t208.5 150.5t283.5 53q106 0 211 -17.5t201 -70.5q23 -12 27 -24.5t-13 -47.5l-63 -145q-10 -29 -21.5 -35t-40.5 4q-74 27 -142.5 39t-146.5 12q-90 0 -155.5 -34.5t-108.5 -96t-63.5 -145.5t-20.5 -184q0 -102 16.5 -185.5t56.5 -141.5 t106.5 -91t166.5 -33q39 0 98.5 5t114.5 26l2 303q-72 4 -143.5 -8.5t-138.5 -40.5q-29 -10 -40 -10.5t-22 22.5l-53 166q-6 16 -4 28.5t25 22.5q72 35 169 58.5t195 23.5q53 0 98.5 -3t79.5 -11q45 -10 72 -29.5t41 -49.5t18.5 -68t4.5 -83v-430q0 -29 -8.5 -52.5 t-41.5 -43.5q-61 -37 -132.5 -57.5t-140.5 -31.5t-128 -14.5t-94 -3.5q-168 0 -290 50.5t-201 145.5t-116.5 230.5t-37.5 307.5zM333 1604.5q-1 9.5 13 23.5l272 236q29 25 61 39t58 14q59 0 125 -53l277 -234q18 -16 18 -27.5t-14 -25.5l-58 -64q-12 -14 -26.5 -11 t-30.5 14l-291 157l-282 -153q-16 -10 -28.5 -11.5t-27.5 15.5l-53 55q-12 16 -13 25.5z" />
<glyph unicode="&#x11d;" horiz-adv-x="1236" d="M92 539q0 117 32 219t97.5 178t166.5 119t243 43q111 0 224.5 -17.5t207.5 -60.5q27 -14 34 -27.5t7 -36.5v-845q0 -145 -38 -247t-110.5 -169.5t-179 -106.5t-244.5 -57q-23 -4 -30.5 1t-12.5 26l-26 196q-4 23 3 28t23 9q57 10 113.5 24.5t101 40t72 65.5t27.5 99v13 q-53 -16 -115.5 -23.5t-124.5 -7.5q-123 0 -212 39t-146.5 109.5t-85 169t-27.5 219.5zM241 1246q1 9 11 26l268 280q29 29 59.5 46.5t61.5 17.5q45 0 73.5 -14.5t59.5 -49.5l273 -278q16 -16 15 -27.5t-18 -27.5l-59 -58q-14 -10 -25.5 -10t-31.5 14l-285 201l-274 -205 q-16 -10 -27.5 -10t-28.5 14l-61 58q-12 14 -11 23zM401 545q0 -158 60.5 -223.5t167.5 -65.5q25 0 76 5t100 22v540q-41 12 -85 17.5t-73 5.5q-55 0 -101 -16.5t-78 -51.5t-49.5 -92t-17.5 -141z" />
<glyph unicode="&#x11e;" horiz-adv-x="1417" d="M113 711q0 168 43 305t128 234.5t208.5 150.5t283.5 53q106 0 211 -17.5t201 -70.5q23 -12 27 -24.5t-13 -47.5l-63 -145q-10 -29 -21.5 -35t-40.5 4q-74 27 -142.5 39t-146.5 12q-90 0 -155.5 -34.5t-108.5 -96t-63.5 -145.5t-20.5 -184q0 -102 16.5 -185.5t56.5 -141.5 t106.5 -91t166.5 -33q39 0 98.5 5t114.5 26l2 303q-72 4 -143.5 -8.5t-138.5 -40.5q-29 -10 -40 -10.5t-22 22.5l-53 166q-6 16 -4 28.5t25 22.5q72 35 169 58.5t195 23.5q53 0 98.5 -3t79.5 -11q45 -10 72 -29.5t41 -49.5t18.5 -68t4.5 -83v-430q0 -29 -8.5 -52.5 t-41.5 -43.5q-61 -37 -132.5 -57.5t-140.5 -31.5t-128 -14.5t-94 -3.5q-168 0 -290 50.5t-201 145.5t-116.5 230.5t-37.5 307.5zM342 1766.5q-4 11.5 14 27.5l80 78q20 16 27.5 11t23.5 -17q66 -66 130.5 -103t123.5 -37q25 0 50.5 5.5t56.5 20.5t67.5 43t85.5 75 q20 16 28.5 15t19.5 -11l77 -68q20 -18 17.5 -28.5t-8.5 -18.5q-187 -248 -406 -248q-61 0 -115.5 19.5t-102.5 53.5t-88 76t-73 89q-4 6 -8 17.5z" />
<glyph unicode="&#x11f;" horiz-adv-x="1236" d="M92 539q0 117 32 219t97.5 178t166.5 119t243 43q111 0 224.5 -17.5t207.5 -60.5q27 -14 34 -27.5t7 -36.5v-845q0 -145 -38 -247t-110.5 -169.5t-179 -106.5t-244.5 -57q-23 -4 -30.5 1t-12.5 26l-26 196q-4 23 3 28t23 9q57 10 113.5 24.5t101 40t72 65.5t27.5 99v13 q-53 -16 -115.5 -23.5t-124.5 -7.5q-123 0 -212 39t-146.5 109.5t-85 169t-27.5 219.5zM237.5 1442.5q-4.5 11.5 14.5 27.5l80 78q20 16 27.5 11t23.5 -17q66 -66 130.5 -102.5t123.5 -36.5q25 0 50.5 5t56 20.5t67.5 43t86 74.5q20 16 28.5 15.5t18.5 -11.5l78 -67 q20 -18 17 -28.5t-9 -18.5q-186 -248 -405 -248q-61 0 -115.5 19.5t-103 53t-88 75.5t-72.5 89q-4 6 -8.5 17.5zM401 545q0 -158 60.5 -223.5t167.5 -65.5q25 0 76 5t100 22v540q-41 12 -85 17.5t-73 5.5q-55 0 -101 -16.5t-78 -51.5t-49.5 -92t-17.5 -141z" />
<glyph unicode="&#x120;" horiz-adv-x="1417" d="M113 711q0 168 43 305t128 234.5t208.5 150.5t283.5 53q106 0 211 -17.5t201 -70.5q23 -12 27 -24.5t-13 -47.5l-63 -145q-10 -29 -21.5 -35t-40.5 4q-74 27 -142.5 39t-146.5 12q-90 0 -155.5 -34.5t-108.5 -96t-63.5 -145.5t-20.5 -184q0 -102 16.5 -185.5t56.5 -141.5 t106.5 -91t166.5 -33q39 0 98.5 5t114.5 26l2 303q-72 4 -143.5 -8.5t-138.5 -40.5q-29 -10 -40 -10.5t-22 22.5l-53 166q-6 16 -4 28.5t25 22.5q72 35 169 58.5t195 23.5q53 0 98.5 -3t79.5 -11q45 -10 72 -29.5t41 -49.5t18.5 -68t4.5 -83v-430q0 -29 -8.5 -52.5 t-41.5 -43.5q-61 -37 -132.5 -57.5t-140.5 -31.5t-128 -14.5t-94 -3.5q-168 0 -290 50.5t-201 145.5t-116.5 230.5t-37.5 307.5zM584 1683q0 70 50 119t120 49q68 0 118 -49t50 -119q0 -72 -50.5 -118.5t-117.5 -46.5q-70 0 -120 47t-50 118z" />
<glyph unicode="&#x121;" horiz-adv-x="1236" d="M92 539q0 117 32 219t97.5 178t166.5 119t243 43q111 0 224.5 -17.5t207.5 -60.5q27 -14 34 -27.5t7 -36.5v-845q0 -145 -38 -247t-110.5 -169.5t-179 -106.5t-244.5 -57q-23 -4 -30.5 1t-12.5 26l-26 196q-4 23 3 28t23 9q57 10 113.5 24.5t101 40t72 65.5t27.5 99v13 q-53 -16 -115.5 -23.5t-124.5 -7.5q-123 0 -212 39t-146.5 109.5t-85 169t-27.5 219.5zM401 545q0 -158 60.5 -223.5t167.5 -65.5q25 0 76 5t100 22v540q-41 12 -85 17.5t-73 5.5q-55 0 -101 -16.5t-78 -51.5t-49.5 -92t-17.5 -141zM479 1382q0 70 50.5 119t119.5 49 q68 0 118 -49t50 -119q0 -72 -50 -118.5t-118 -46.5q-70 0 -120 47t-50 118z" />
<glyph unicode="&#x122;" horiz-adv-x="1417" d="M113 711q0 168 43 305t128 234.5t208.5 150.5t283.5 53q106 0 211 -17.5t201 -70.5q23 -12 27 -24.5t-13 -47.5l-63 -145q-10 -29 -21.5 -35t-40.5 4q-74 27 -142.5 39t-146.5 12q-90 0 -155.5 -34.5t-108.5 -96t-63.5 -145.5t-20.5 -184q0 -102 16.5 -185.5t56.5 -141.5 t106.5 -91t166.5 -33q39 0 98.5 5t114.5 26l2 303q-72 4 -143.5 -8.5t-138.5 -40.5q-29 -10 -40 -10.5t-22 22.5l-53 166q-6 16 -4 28.5t25 22.5q72 35 169 58.5t195 23.5q53 0 98.5 -3t79.5 -11q45 -10 72 -29.5t41 -49.5t18.5 -68t4.5 -83v-430q0 -29 -8.5 -52.5 t-41.5 -43.5q-61 -37 -132.5 -57.5t-140.5 -31.5t-128 -14.5t-94 -3.5q-168 0 -290 50.5t-201 145.5t-116.5 230.5t-37.5 307.5zM608 -606l29 407q0 16 8 28.5t35 12.5h207q29 0 36 -12t3 -29l-135 -403q-8 -23 -15.5 -32t-30.5 -9h-92q-49 0 -45 37z" />
<glyph unicode="&#x123;" horiz-adv-x="1236" d="M92 539q0 117 32 219t97.5 178t166.5 119t243 43q111 0 224.5 -17.5t207.5 -60.5q27 -14 34 -27.5t7 -36.5v-845q0 -145 -38 -247t-110.5 -169.5t-179 -106.5t-244.5 -57q-23 -4 -30.5 1t-12.5 26l-26 196q-4 23 3 28t23 9q57 10 113.5 24.5t101 40t72 65.5t27.5 99v13 q-53 -16 -115.5 -23.5t-124.5 -7.5q-123 0 -212 39t-146.5 109.5t-85 169t-27.5 219.5zM401 545q0 -158 60.5 -223.5t167.5 -65.5q25 0 76 5t100 22v540q-41 12 -85 17.5t-73 5.5q-55 0 -101 -16.5t-78 -51.5t-49.5 -92t-17.5 -141zM510 1219l123 389q8 23 15 31t30 8h92 q45 0 43 -37l-27 -391q0 -16 -8 -28.5t-33 -12.5h-198q-29 0 -35 13t-2 28z" />
<glyph unicode="&#x124;" horiz-adv-x="1486" d="M154 43v1348q0 25 11 34t36 9h217q31 0 40 -8.5t9 -34.5v-510h555v510q0 25 10 34t37 9h215q31 0 40 -8.5t9 -34.5v-1348q0 -27 -9 -35t-40 -8h-215q-27 0 -37 9t-10 34v573h-555v-573q0 -27 -9 -35t-40 -8h-217q-25 0 -36 9t-11 34zM327 1606.5q-1 9.5 13 23.5l272 236 q29 25 61 39t58 14q59 0 125 -53l277 -234q18 -16 18 -27.5t-14 -25.5l-58 -63q-12 -14 -26.5 -11.5t-30.5 13.5l-291 157l-282 -153q-16 -10 -28.5 -11.5t-27.5 15.5l-53 55q-12 16 -13 25.5z" />
<glyph unicode="&#x125;" horiz-adv-x="1247" d="M-115.5 1604.5q-1.5 9.5 13.5 23.5l272 236q29 25 60.5 39t58.5 14q59 0 125 -53l276 -234q18 -16 18.5 -27.5t-14.5 -25.5l-57 -64q-12 -14 -26.5 -11t-30.5 14l-291 157l-283 -153q-16 -10 -28.5 -11.5t-26.5 15.5l-53 55q-12 16 -13.5 25.5zM133 37v1421q0 39 41 39 h213q29 0 36 -8t7 -31v-387q53 16 122 24.5t118 8.5q223 0 334.5 -119t111.5 -336v-612q0 -25 -8 -31t-37 -6h-213q-23 0 -33 7t-10 30v573q0 53 -9 97.5t-32.5 75t-62.5 48t-99 17.5q-41 0 -92 -6t-90 -21v-784q0 -25 -7 -31t-36 -6h-211q-23 0 -33 7t-10 30z" />
<glyph unicode="&#x126;" horiz-adv-x="1486" d="M31 1108v86q0 33 26 33h97v168q0 39 43 39h227q29 0 36 -8.5t7 -30.5v-168h555v168q0 39 41 39h227q29 0 36 -8.5t7 -30.5v-168h80q27 0 27 -33v-86q0 -23 -5 -29t-22 -6h-80v-1034q0 -23 -7 -31t-36 -8h-227q-41 0 -41 39v584h-555v-584q0 -23 -7 -31t-36 -8h-227 q-43 0 -43 39v1034h-97q-16 0 -21 6t-5 29zM467 885h555v188h-555v-188z" />
<glyph unicode="&#x127;" horiz-adv-x="1247" d="M23 1223v80q0 16 4 21t20 5h86v129q0 39 41 39h213q29 0 36 -8t7 -31v-129h361q25 0 24 -31v-71q0 -20 -6 -25.5t-18 -5.5h-361v-197q53 16 122 25.5t118 9.5q223 0 334.5 -119.5t111.5 -336.5v-541q0 -25 -8 -31t-37 -6h-213q-23 0 -33 7t-10 30v504q0 53 -9 97 t-32.5 74.5t-62.5 48t-99 17.5q-41 0 -92 -6t-90 -22v-713q0 -25 -7 -31t-36 -6h-211q-23 0 -33 7t-10 30v1159h-86q-16 0 -20 5t-4 22z" />
<glyph unicode="&#x128;" horiz-adv-x="673" d="M-68.5 1632q-1.5 10 7.5 27q39 78 95 126t148 48q39 0 74 -13.5t68.5 -28.5t66.5 -27.5t66 -12.5t54 15.5t42 50.5q12 23 18.5 24.5t24.5 -4.5l102 -35q20 -6 22.5 -15t-5.5 -30q-39 -86 -95.5 -142t-148.5 -56q-37 0 -74 13t-71.5 28.5t-69.5 28.5t-72 13q-55 0 -96 -63 q-12 -18 -21.5 -23.5t-25.5 5.5l-90 51q-18 10 -19.5 20zM180 43v1348q0 25 11.5 34t35.5 9h217q31 0 40.5 -8.5t9.5 -34.5v-1348q0 -27 -9.5 -35t-40.5 -8h-217q-25 0 -36 9t-11 34z" />
<glyph unicode="&#x129;" horiz-adv-x="643" d="M-60 1298.5q-1 10.5 7 26.5q39 78 95 126t148 48q39 0 74 -13t69 -28.5t66.5 -28t65.5 -12.5t54.5 15.5t41.5 50.5q12 23 18.5 24.5t24.5 -4.5l103 -35q20 -6 22 -15t-6 -30q-39 -86 -95.5 -142t-148.5 -56q-37 0 -73.5 13t-71.5 28.5t-70 29t-71 13.5q-55 0 -97 -64 q-12 -18 -21 -23t-26 5l-90 51q-18 10 -19 20.5zM174 37v1001q0 23 10.5 30t32.5 7h211q29 0 36 -7t7 -30v-1001q0 -23 -7 -30t-36 -7h-211q-23 0 -33 7t-10 30z" />
<glyph unicode="&#x12a;" horiz-adv-x="673" d="M16 1632v123q0 29 9.5 36t31.5 7h555q23 0 32 -7t9 -36v-123q0 -43 -41 -43h-555q-41 0 -41 43zM180 43v1348q0 25 11.5 34t35.5 9h217q31 0 40.5 -8.5t9.5 -34.5v-1348q0 -27 -9.5 -35t-40.5 -8h-217q-25 0 -36 9t-11 34z" />
<glyph unicode="&#x12b;" horiz-adv-x="643" d="M8 1257v123q0 29 9.5 36t31.5 7h555q23 0 32 -7t9 -36v-123q0 -43 -41 -43h-555q-41 0 -41 43zM174 37v1001q0 23 10.5 30t32.5 7h211q29 0 36 -7t7 -30v-1001q0 -23 -7 -30t-36 -7h-211q-23 0 -33 7t-10 30z" />
<glyph unicode="&#x12c;" horiz-adv-x="673" d="M-59 1756q-4 11 14 28l80 78q20 16 27.5 11t23.5 -18q66 -66 130.5 -102.5t123.5 -36.5q25 0 50.5 5t56 20.5t67.5 43t86 75.5q20 16 28.5 15t18.5 -11l78 -68q20 -18 17 -28.5t-9 -18.5q-186 -248 -405 -248q-61 0 -115.5 19.5t-103 53.5t-88 76t-72.5 89q-4 6 -8 17z M180 43v1348q0 25 11.5 34t35.5 9h217q31 0 40.5 -8.5t9.5 -34.5v-1348q0 -27 -9.5 -35t-40.5 -8h-217q-25 0 -36 9t-11 34z" />
<glyph unicode="&#x12d;" horiz-adv-x="643" d="M-71.5 1434.5q-4.5 11.5 14.5 27.5l80 78q20 16 27 11t24 -17q66 -66 130 -102.5t124 -36.5q25 0 50 5t56 20.5t68 43t86 74.5q20 16 28.5 15t18.5 -11l78 -67q20 -18 17 -28.5t-9 -19.5q-187 -247 -406 -247q-61 0 -115.5 19.5t-102.5 53t-88 75.5t-72 89 q-4 6 -8.5 17.5zM174 37v1001q0 23 10.5 30t32.5 7h211q29 0 36 -7t7 -30v-1001q0 -23 -7 -30t-36 -7h-211q-23 0 -33 7t-10 30z" />
<glyph unicode="&#x12e;" horiz-adv-x="673" d="M115 -289q0 68 42 149t113 140h-43q-25 0 -36 9t-11 34v1348q0 25 11.5 34t35.5 9h217q31 0 40.5 -8.5t9.5 -34.5v-1348q0 -25 -8.5 -34t-36.5 -9q-66 -66 -92.5 -120t-26.5 -99q0 -82 108 -82q20 0 55 3t64 9q18 4 27.5 2t13.5 -18l20 -76q6 -18 0 -27.5t-16 -15.5 q-61 -25 -128.5 -35t-127.5 -10q-123 0 -176 52t-55 128z" />
<glyph unicode="&#x12f;" horiz-adv-x="626" d="M90 -285q0 33 10.5 71t31 76t47 73.5t61.5 64.5h-25q-23 0 -33 7t-10 30v1001q0 23 10.5 30t32.5 7h209q29 0 37 -7t8 -30v-1001q0 -23 -8 -30t-37 -7h-4q-63 -66 -89 -119t-26 -96q0 -82 109 -82q20 0 55 3t63 9q18 4 27.5 2t13.5 -18l21 -76q6 -18 0 -27.5t-16 -15.5 q-61 -25 -129 -35t-127 -10q-123 0 -176.5 52.5t-55.5 127.5zM154 1356q0 37 13 67.5t36.5 53t54.5 36t66 13.5t66.5 -13.5t55 -36t37 -53t13.5 -67.5q0 -72 -50.5 -120t-121.5 -48q-70 0 -120 48t-50 120z" />
<glyph unicode="&#x130;" horiz-adv-x="673" d="M160 1722q0 70 50 119t120 49q68 0 118 -49t50 -119q0 -72 -50.5 -119t-117.5 -47q-70 0 -120 47.5t-50 118.5zM180 43v1348q0 25 11.5 34t35.5 9h217q31 0 40.5 -8.5t9.5 -34.5v-1348q0 -27 -9.5 -35t-40.5 -8h-217q-25 0 -36 9t-11 34z" />
<glyph unicode="&#x131;" horiz-adv-x="643" d="M174 37v1001q0 23 10.5 30t32.5 7h211q29 0 36 -7t7 -30v-1001q0 -23 -7 -30t-36 -7h-211q-23 0 -33 7t-10 30z" />
<glyph unicode="&#x132;" horiz-adv-x="1714" d="M154 43v1348q0 25 11 34t36 9h217q31 0 40 -8.5t9 -34.5v-1348q0 -27 -9 -35t-40 -8h-217q-25 0 -36 9t-11 34zM527.5 100.5q-3.5 8.5 9.5 36.5l73 168q10 23 19.5 24t29.5 -7q70 -29 152 -47.5t164 -18.5q86 0 139 24.5t84 70.5t41 110.5t10 142.5v789q0 29 12.5 35 t34.5 6h217q27 0 37.5 -6.5t10.5 -34.5v-840q0 -133 -30 -238.5t-95.5 -181.5t-172 -116t-262.5 -40q-43 0 -101 5.5t-120.5 17.5t-123 32.5t-109.5 49.5q-16 10 -19.5 18.5z" />
<glyph unicode="&#x133;" horiz-adv-x="1208" d="M143 1356q0 37 13.5 67.5t37 53t54.5 36t65 13.5q35 0 67 -13.5t55.5 -36t36.5 -53t13 -67.5q0 -72 -50 -120t-122 -48q-70 0 -120 48t-50 120zM162 37v1001q0 23 10 30t33 7h209q29 0 37 -7t8 -30v-1001q0 -23 -8.5 -30t-36.5 -7h-209q-23 0 -33 7t-10 30zM510 -222 q6 9 29 21q61 31 100 66t62.5 78t31.5 94t8 117v884q0 23 9.5 30t31.5 7h215q29 0 35 -7t6 -30v-882q0 -147 -30.5 -250t-85 -173.5t-126 -113.5t-151.5 -70q-31 -10 -43 -7t-20 24l-68 176q-10 27 -4 36zM723 1356q0 37 13.5 67.5t37 53t55 36t66.5 13.5q72 0 121 -49 t49 -121t-49 -120t-121 -48t-122 48t-50 120z" />
<glyph unicode="&#x134;" horiz-adv-x="1208" d="M17.5 100.5q-3.5 8.5 9.5 36.5l73 168q10 23 19.5 24t30.5 -7q70 -29 151.5 -47.5t163.5 -18.5q86 0 139 24.5t84 70.5t41 110.5t10 142.5v789q0 29 12.5 35t34.5 6h218q27 0 37 -6.5t10 -34.5v-840q0 -133 -30 -238.5t-95.5 -181.5t-171.5 -116t-262 -40 q-43 0 -101.5 5.5t-121 17.5t-123 32.5t-109.5 49.5q-16 10 -19.5 18.5zM490.5 1604.5q-1.5 9.5 13.5 23.5l272 236q29 25 60.5 39t58.5 14q59 0 125 -53l276 -234q18 -16 18.5 -27.5t-14.5 -25.5l-57 -64q-12 -14 -26.5 -11t-30.5 14l-291 157l-283 -153 q-16 -10 -28.5 -11.5t-26.5 15.5l-53 55q-12 16 -13.5 25.5z" />
<glyph unicode="&#x135;" horiz-adv-x="673" d="M-63 1246q0 9 14 26l266 280q29 29 60.5 46.5t60.5 17.5q45 0 74.5 -14.5t60.5 -49.5l270 -278q16 -16 15.5 -27.5t-17.5 -27.5l-57 -58q-14 -10 -26.5 -10t-32.5 14l-285 201l-274 -205q-16 -10 -26.5 -10t-27.5 14l-61 58q-14 14 -14 23zM-35 -222q6 9 29 21 q61 31 101 66t63.5 78t32 94t8.5 117v884q0 23 9 30t32 7h213q29 0 36 -7t7 -30v-882q0 -147 -32 -250t-85 -173.5t-125 -113.5t-154 -70q-29 -10 -42 -7t-19 24l-70 176q-10 27 -4 36z" />
<glyph unicode="&#x136;" horiz-adv-x="1398" d="M154 43v1348q0 25 11 34t36 9h215q31 0 39 -7.5t8 -35.5v-549l8 -4l193 243l256 320q18 20 36.5 26.5t59.5 6.5h264q18 0 25.5 -11.5t-7.5 -27.5l-405 -482l477 -862q14 -23 8 -37t-28 -14h-238q-43 0 -62.5 5t-39.5 42l-330 612l-217 -260v-356q0 -29 -8.5 -36t-38.5 -7 h-215q-25 0 -36 9t-11 34zM567 -545l29 408q0 16 8 28.5t35 12.5h207q29 0 36 -12.5t3 -28.5l-135 -404q-8 -23 -15.5 -32t-29.5 -9h-93q-49 0 -45 37z" />
<glyph unicode="&#x137;" horiz-adv-x="1130" d="M131 39v1421q0 23 10.5 30t32.5 7h213q29 0 35 -6t6 -31v-758l8 -4l293 349q16 16 27.5 22t40.5 6h250q29 0 31.5 -13t-11.5 -30l-274 -319l317 -672q16 -41 -31 -41h-237q-25 0 -38 7t-24 32l-194 438l-156 -176v-52v-72t-1 -74.5t-1 -63.5q0 -23 -7 -31t-36 -8h-211 q-43 0 -43 39zM393 -606l29 407q0 16 8 28.5t35 12.5h207q29 0 36 -12t3 -29l-136 -403q-8 -23 -15 -32t-30 -9h-92q-49 0 -45 37z" />
<glyph unicode="&#x138;" horiz-adv-x="1126" d="M131 39v999q0 23 10.5 30t32.5 7h213q29 0 35 -7t6 -30v-346q6 0 10 -4q25 29 63 78t79 101.5t78.5 100.5t62.5 76q16 16 27.5 23.5t39.5 7.5h259q29 0 31.5 -13t-11.5 -30l-307 -358l344 -635q18 -39 -31 -39h-235q-25 0 -39.5 7t-24.5 30q-16 31 -45 87t-60.5 117.5 t-60 118t-47.5 86.5l-131 -157v-49v-71t-1 -74t-1 -56q0 -25 -8 -32t-37 -7h-209q-43 0 -43 39z" />
<glyph unicode="&#x139;" horiz-adv-x="1183" d="M154 377v1016q0 25 11 34t36 9h217q31 0 40 -8.5t9 -34.5v-994q0 -78 38 -104.5t99 -26.5h520q23 0 31 -7t8 -36v-182q0 -43 -39 -43h-592q-115 0 -187.5 33t-115.5 86t-59 120.5t-16 137.5zM177 1638.5q-1 8.5 16 22.5l331 258q12 10 22.5 14t26.5 -12l142 -162 q12 -12 10 -23.5t-14 -15.5l-396 -202q-20 -10 -29.5 -7.5t-19.5 13.5l-78 94q-10 12 -11 20.5z" />
<glyph unicode="&#x13a;" horiz-adv-x="675" d="M147 262v1196q0 29 11.5 34t34.5 5h208q23 0 34 -7t11 -30v-1136q0 -51 14.5 -73t61.5 -22q16 0 39 2t37 5q18 2 25.5 -3.5t9.5 -21.5l18 -156q4 -23 -2 -30t-28 -17q-43 -16 -105.5 -23.5t-109.5 -7.5q-61 0 -109.5 13.5t-81.5 45.5t-50.5 87t-17.5 139zM177 1685.5 q-1 8.5 16 22.5l331 258q12 10 22.5 14.5t26.5 -12.5l142 -162q12 -12 10 -23t-14 -16l-396 -202q-20 -10 -29.5 -7t-19.5 13l-78 94q-10 12 -11 20.5z" />
<glyph unicode="&#x13b;" horiz-adv-x="1183" d="M154 377v1016q0 25 11 34t36 9h217q31 0 40 -8.5t9 -34.5v-994q0 -78 38 -104.5t99 -26.5h520q23 0 31 -7t8 -36v-182q0 -43 -39 -43h-592q-115 0 -187.5 33t-115.5 86t-59 120.5t-16 137.5zM463 -606l29 407q0 16 8 28.5t35 12.5h206q29 0 36 -12t3 -29l-135 -403 q-8 -23 -15 -32t-30 -9h-92q-49 0 -45 37z" />
<glyph unicode="&#x13c;" horiz-adv-x="675" d="M147 262v1196q0 29 11.5 34t34.5 5h208q23 0 34 -7t11 -30v-1136q0 -51 14.5 -73t61.5 -22q16 0 39 2t37 5q18 2 25.5 -3.5t9.5 -21.5l18 -156q4 -23 -2 -30t-28 -17q-43 -16 -105.5 -23.5t-109.5 -7.5q-61 0 -109.5 13.5t-81.5 45.5t-50.5 87t-17.5 139zM174 -606 l29 407q0 16 8 28.5t35 12.5h207q29 0 36 -12t3 -29l-136 -403q-8 -23 -15 -32t-30 -9h-92q-49 0 -45 37z" />
<glyph unicode="&#x13d;" horiz-adv-x="1183" d="M154 377v1016q0 25 11 34t36 9h217q31 0 40 -8.5t9 -34.5v-994q0 -78 38 -104.5t99 -26.5h520q23 0 31 -7t8 -36v-182q0 -43 -39 -43h-592q-115 0 -187.5 33t-115.5 86t-59 120.5t-16 137.5zM795 983l28 408q0 16 8.5 28.5t34.5 12.5h207q29 0 36 -12.5t3 -28.5 l-135 -404q-8 -23 -15.5 -32t-29.5 -9h-92q-49 0 -45 37z" />
<glyph unicode="&#x13e;" horiz-adv-x="897" d="M147 262v1196q0 29 11.5 34t34.5 5h208q23 0 34 -7t11 -30v-1136q0 -51 14.5 -73t61.5 -22q16 0 39 2t37 5q18 2 25.5 -3.5t9.5 -21.5l18 -156q4 -23 -2 -30t-28 -17q-43 -16 -105.5 -23.5t-109.5 -7.5q-61 0 -109.5 13.5t-81.5 45.5t-50.5 87t-17.5 139zM598 1004 l29 407q0 16 8 28.5t35 12.5h207q29 0 36 -12.5t2 -28.5l-135 -403q-8 -23 -15 -32t-30 -9h-92q-49 0 -45 37z" />
<glyph unicode="&#x13f;" horiz-adv-x="1183" d="M154 377v1016q0 25 11 34t36 9h217q31 0 40 -8.5t9 -34.5v-994q0 -78 38 -104.5t99 -26.5h520q23 0 31 -7t8 -36v-182q0 -43 -39 -43h-592q-115 0 -187.5 33t-115.5 86t-59 120.5t-16 137.5zM723 788q0 70 50 119t120 49q68 0 118 -49t50 -119q0 -72 -50 -118.5 t-118 -46.5q-70 0 -120 47t-50 118z" />
<glyph unicode="&#x140;" horiz-adv-x="901" d="M147 262v1196q0 29 11.5 34t34.5 5h208q23 0 34 -7t11 -30v-1136q0 -51 14.5 -73t61.5 -22q16 0 39 2t37 5q18 2 25.5 -3.5t9.5 -21.5l18 -156q4 -23 -2 -30t-28 -17q-43 -16 -105.5 -23.5t-109.5 -7.5q-61 0 -109.5 13.5t-81.5 45.5t-50.5 87t-17.5 139zM580 821 q0 70 50 119t120 49q68 0 118 -49t50 -119q0 -72 -50.5 -119t-117.5 -47q-70 0 -120 47.5t-50 118.5z" />
<glyph unicode="&#x141;" horiz-adv-x="1183" d="M-37 585q4 11 25 23l166 97v694q0 39 43 39h225q29 0 37 -8.5t8 -30.5v-514l197 112q18 10 32.5 11.5t28.5 -21.5l39 -67q12 -20 10 -33t-24 -27l-283 -162v-297q0 -78 36 -103.5t101 -25.5h520q23 0 31 -8t8 -37v-182q0 -43 -39 -43h-592q-115 0 -187.5 33t-115.5 86 t-59 120.5t-16 137.5v137l-86 -47q-35 -23 -58 12l-39 70q-12 23 -8 34z" />
<glyph unicode="&#x142;" horiz-adv-x="675" d="M-51 561q4 12 26 23l172 98v774q0 29 11.5 35t34.5 6h208q23 0 34 -6t11 -33v-602l123 70q18 10 32.5 11t27.5 -22l39 -63q12 -23 10 -35t-27 -26l-205 -119v-338q0 -53 14.5 -74.5t61.5 -21.5q16 0 39 2t37 4q18 2 25.5 -3t9.5 -22l18 -164q4 -23 -2 -30t-28 -17 q-43 -16 -105.5 -23.5t-109.5 -7.5q-61 0 -109.5 13.5t-81.5 45.5t-50.5 87t-17.5 139v238l-96 -56q-16 -10 -30.5 -8t-24.5 23l-37 67q-14 23 -10 35z" />
<glyph unicode="&#x143;" horiz-adv-x="1523" d="M154 43v1249q0 80 28.5 112t104.5 32h86q31 0 52 -3t37.5 -13.5t31 -29t32.5 -47.5l348 -530l177 -276h10v856q0 25 9 34t38 9h215q47 0 47 -43v-1252q0 -66 -26.5 -103.5t-106.5 -37.5h-86q-31 0 -52.5 3t-38 13.5t-30.5 27.5t-33 46l-327 496l-197 305h-10v-848 q0 -27 -9.5 -35t-37.5 -8h-215q-25 0 -36 9t-11 34zM619.5 1636.5q-1.5 8.5 15.5 22.5l332 258q12 10 22 14t27 -12l141 -162q12 -12 10 -23.5t-14 -15.5l-395 -202q-20 -10 -29.5 -7.5t-19.5 13.5l-78 94q-10 12 -11.5 20.5z" />
<glyph unicode="&#x144;" horiz-adv-x="1247" d="M133 37v878q0 70 24.5 110t102.5 56q20 4 58 7.5t81 6.5t85 5t73 2q143 0 247.5 -29t173.5 -91t102.5 -163.5t33.5 -247.5v-534q0 -23 -7 -30t-36 -7h-213q-23 0 -33 7t-10 30v553q0 68 -11 117t-39 82.5t-76 50t-120 16.5q-20 0 -58 -1t-81 -9v-809q0 -23 -7 -30t-36 -7 h-211q-23 0 -33 7t-10 30zM446.5 1225.5q-2.5 9.5 4.5 25.5l143 357q10 29 25.5 28.5t37.5 -6.5l195 -51q33 -8 16 -37l-239 -352q-12 -18 -21.5 -20.5t-25.5 1.5l-115 39q-18 6 -20.5 15.5z" />
<glyph unicode="&#x145;" horiz-adv-x="1523" d="M154 43v1249q0 80 28.5 112t104.5 32h86q31 0 52 -3t37.5 -13.5t31 -29t32.5 -47.5l348 -530l177 -276h10v856q0 25 9 34t38 9h215q47 0 47 -43v-1252q0 -66 -26.5 -103.5t-106.5 -37.5h-86q-31 0 -52.5 3t-38 13.5t-30.5 27.5t-33 46l-327 496l-197 305h-10v-848 q0 -27 -9.5 -35t-37.5 -8h-215q-25 0 -36 9t-11 34zM549 -545l29 408q0 16 8 28.5t35 12.5h206q29 0 36 -12.5t3 -28.5l-135 -404q-8 -23 -15 -32t-30 -9h-92q-49 0 -45 37z" />
<glyph unicode="&#x146;" horiz-adv-x="1247" d="M133 37v878q0 70 24.5 110t102.5 56q20 4 58 7.5t81 6.5t85 5t73 2q143 0 247.5 -29t173.5 -91t102.5 -163.5t33.5 -247.5v-534q0 -23 -7 -30t-36 -7h-213q-23 0 -33 7t-10 30v553q0 68 -11 117t-39 82.5t-76 50t-120 16.5q-20 0 -58 -1t-81 -9v-809q0 -23 -7 -30t-36 -7 h-211q-23 0 -33 7t-10 30zM461 -606l28 407q0 16 8.5 28.5t34.5 12.5h207q29 0 36 -12t3 -29l-135 -403q-8 -23 -15 -32t-30 -9h-92q-49 0 -45 37z" />
<glyph unicode="&#x147;" horiz-adv-x="1523" d="M154 43v1249q0 80 28.5 112t104.5 32h86q31 0 52 -3t37.5 -13.5t31 -29t32.5 -47.5l348 -530l177 -276h10v856q0 25 9 34t38 9h215q47 0 47 -43v-1252q0 -66 -26.5 -103.5t-106.5 -37.5h-86q-31 0 -52.5 3t-38 13.5t-30.5 27.5t-33 46l-327 496l-197 305h-10v-848 q0 -27 -9.5 -35t-37.5 -8h-215q-25 0 -36 9t-11 34zM369 1819.5q0 9.5 12 21.5l63 70q14 14 24.5 11t27.5 -13l278 -158l301 164q16 8 26.5 10t22.5 -14l62 -66q12 -14 13 -21t-17 -24l-279 -231q-43 -35 -68.5 -47.5t-60.5 -12.5q-20 0 -46 7.5t-48 27.5l-295 254 q-16 12 -16 21.5z" />
<glyph unicode="&#x148;" horiz-adv-x="1247" d="M133 37v878q0 70 24.5 110t102.5 56q20 4 58 7.5t81 6.5t85 5t73 2q143 0 247.5 -29t173.5 -91t102.5 -163.5t33.5 -247.5v-534q0 -23 -7 -30t-36 -7h-213q-23 0 -33 7t-10 30v553q0 68 -11 117t-39 82.5t-76 50t-120 16.5q-20 0 -58 -1t-81 -9v-809q0 -23 -7 -30t-36 -7 h-211q-23 0 -33 7t-10 30zM211 1509q-20 25 2 47l63 62q14 14 25.5 12t28.5 -14l272 -203l287 203q16 12 25.5 15t25.5 -11l72 -59q16 -14 13 -26.5t-19 -29.5l-295 -297q-16 -18 -42 -27.5t-55 -11.5q-33 -2 -64.5 8.5t-53.5 34.5z" />
<glyph unicode="&#x149;" horiz-adv-x="1392" d="M-10 1034l28 408q0 16 8.5 28.5t34.5 12.5h207q29 0 36 -12.5t3 -28.5l-135 -404q-8 -23 -15 -32t-30 -9h-92q-49 0 -45 37zM279 37v878q0 70 24.5 110t102.5 56q20 4 58 7.5t81 6.5t85 5t72 2q143 0 248 -29t173.5 -91t102.5 -163.5t34 -247.5v-534q0 -23 -7.5 -30 t-35.5 -7h-213q-23 0 -33 7t-10 30v553q0 68 -11.5 117t-39 82.5t-75.5 50t-120 16.5q-20 0 -58.5 -1t-81.5 -9v-809q0 -23 -7 -30t-36 -7h-210q-23 0 -33 7t-10 30z" />
<glyph unicode="&#x14a;" horiz-adv-x="1523" d="M154 39v1264q0 78 29.5 108.5t101.5 30.5h88q35 0 58.5 -4t42 -15.5t34.5 -32t37 -53.5l332 -542l170 -289h14v889q0 23 8 31t35 8h223q25 0 34 -8.5t9 -30.5v-1547q0 -59 -13.5 -111t-47 -91t-89 -62.5t-141.5 -23.5q-61 0 -118.5 10t-94.5 22q-31 10 -35 19.5t3 38.5 l26 112q8 33 19.5 36t40.5 1q18 -2 37.5 -3t35.5 -1q57 0 79 21.5t22 77.5v81l-439 699l-182 299h-10v-934q0 -23 -7 -31t-36 -8h-223q-43 0 -43 39z" />
<glyph unicode="&#x14b;" horiz-adv-x="1247" d="M133 37v878q0 70 27.5 111t99.5 55q20 4 58 7.5t81 6.5t85 5t73 2q143 0 247.5 -29t173.5 -91t102.5 -163.5t33.5 -247.5v-702q0 -59 -13.5 -111.5t-46 -91.5t-89 -62.5t-140.5 -23.5q-61 0 -117.5 9.5t-95.5 23.5q-31 10 -36 19.5t2 37.5l28 129q6 29 19.5 29t36.5 -4 t38 -4h33q47 2 64.5 24.5t17.5 81.5v664q0 68 -11 117t-39 82.5t-76 50t-120 16.5q-20 0 -58 -1t-81 -9v-809q0 -23 -7 -30t-36 -7h-211q-23 0 -33 7t-10 30z" />
<glyph unicode="&#x14c;" horiz-adv-x="1495" d="M113 715q0 172 44 310t126 233.5t198.5 146.5t263.5 51q160 0 280 -51t199 -146.5t118.5 -231.5t39.5 -306q0 -176 -37.5 -313.5t-117.5 -233.5t-201 -146.5t-287 -50.5q-317 0 -471.5 192.5t-154.5 545.5zM428 1626v123q0 29 9 36t32 7h555q23 0 32 -7t9 -36v-123 q0 -43 -41 -43h-555q-41 0 -41 43zM438 727q0 -109 15.5 -195t51.5 -147t95 -94t150 -33q88 0 147 38t94 100.5t50.5 145.5t15.5 173q0 92 -13.5 176t-48 147.5t-94 101.5t-153.5 38q-78 0 -136.5 -36t-97.5 -97.5t-57.5 -143.5t-18.5 -174z" />
<glyph unicode="&#x14d;" horiz-adv-x="1218" d="M92 539q0 131 36 236.5t102.5 177t161.5 110.5t216 39q258 0 388 -148.5t130 -410.5q0 -270 -129 -418t-393 -148q-266 0 -389 147.5t-123 414.5zM283 1245v123q0 29 9 36t32 7h555q23 0 32 -7t9 -36v-123q0 -43 -41 -43h-555q-41 0 -41 43zM399 543q0 -154 48.5 -234 t158.5 -80q57 0 97 23.5t66 65.5t37 97.5t11 121.5q0 70 -10 127t-34.5 98t-63.5 64.5t-97 23.5q-109 0 -161 -83t-52 -224z" />
<glyph unicode="&#x14e;" horiz-adv-x="1495" d="M113 715q0 172 44 310t126 233.5t198.5 146.5t263.5 51q160 0 280 -51t199 -146.5t118.5 -231.5t39.5 -306q0 -176 -37.5 -313.5t-117.5 -233.5t-201 -146.5t-287 -50.5q-317 0 -471.5 192.5t-154.5 545.5zM352 1770.5q-4 11.5 15 27.5l79 78q20 16 27.5 11t24.5 -17 q66 -66 130 -102.5t124 -36.5q25 0 50 5t56 20.5t68 43t86 74.5q20 16 28.5 15t18.5 -11l78 -68q20 -18 17 -28t-9 -19q-187 -247 -406 -247q-61 0 -115.5 19t-102.5 53t-88 76t-73 89q-4 6 -8 17.5zM438 727q0 -109 15.5 -195t51.5 -147t95 -94t150 -33q88 0 147 38 t94 100.5t50.5 145.5t15.5 173q0 92 -13.5 176t-48 147.5t-94 101.5t-153.5 38q-78 0 -136.5 -36t-97.5 -97.5t-57.5 -143.5t-18.5 -174z" />
<glyph unicode="&#x14f;" horiz-adv-x="1218" d="M92 539q0 131 36 236.5t102.5 177t161.5 110.5t216 39q258 0 388 -148.5t130 -410.5q0 -270 -129 -418t-393 -148q-266 0 -389 147.5t-123 414.5zM217 1434.5q-4 11.5 14 27.5l80 78q20 16 27.5 11t23.5 -17q66 -66 130.5 -102.5t123.5 -36.5q25 0 50.5 5t56.5 20.5 t67.5 43t86.5 74.5q20 16 28 15t19 -11l77 -67q20 -18 17.5 -28.5t-8.5 -19.5q-187 -247 -406 -247q-61 0 -115.5 19.5t-102.5 53t-88 75.5t-73 89q-4 6 -8 17.5zM399 543q0 -154 48.5 -234t158.5 -80q57 0 97 23.5t66 65.5t37 97.5t11 121.5q0 70 -10 127t-34.5 98 t-63.5 64.5t-97 23.5q-109 0 -161 -83t-52 -224z" />
<glyph unicode="&#x150;" horiz-adv-x="1495" d="M113 715q0 172 44 310t126 233.5t198.5 146.5t263.5 51q160 0 280 -51t199 -146.5t118.5 -231.5t39.5 -306q0 -176 -37.5 -313.5t-117.5 -233.5t-201 -146.5t-287 -50.5q-317 0 -471.5 192.5t-154.5 545.5zM400 1637.5q0 9.5 16 23.5q20 14 63 50t91 75t92.5 73.5 t64.5 51.5q14 12 23.5 13t25.5 -13l127 -139q23 -27 -2 -41l-371 -195q-29 -16 -51 6l-67 74q-12 12 -12 21.5zM438 727q0 -109 15.5 -195t51.5 -147t95 -94t150 -33q88 0 147 38t94 100.5t50.5 145.5t15.5 173q0 92 -13.5 176t-48 147.5t-94 101.5t-153.5 38 q-78 0 -136.5 -36t-97.5 -97.5t-57.5 -143.5t-18.5 -174zM850 1637.5q0 9.5 16 23.5q20 14 63.5 50t91.5 75t92 73.5t65 51.5q14 12 23 13t26 -13l127 -139q23 -27 -2 -41l-373 -195q-29 -16 -51 6l-66 74q-12 12 -12 21.5z" />
<glyph unicode="&#x151;" horiz-adv-x="1218" d="M92 539q0 131 36 236.5t102.5 177t161.5 110.5t216 39q258 0 388 -148.5t130 -410.5q0 -270 -129 -418t-393 -148q-266 0 -389 147.5t-123 414.5zM326 1224.5q-2 10.5 4 26.5l141 357q14 33 45 24l209 -53q33 -8 14 -37l-237 -352q-12 -18 -21.5 -20.5t-25.5 1.5 q-29 10 -54.5 19.5t-54.5 19.5q-18 4 -20 14.5zM399 543q0 -154 48.5 -234t158.5 -80q57 0 97 23.5t66 65.5t37 97.5t11 121.5q0 70 -10 127t-34.5 98t-63.5 64.5t-97 23.5q-109 0 -161 -83t-52 -224zM668 1224.5q-2 10.5 4 26.5l141 357q14 33 45 24l209 -53q33 -8 14 -37 l-237 -352q-12 -18 -21.5 -20.5t-25.5 1.5q-29 10 -54.5 19.5t-54.5 19.5q-18 4 -20 14.5z" />
<glyph unicode="&#x152;" horiz-adv-x="1955" d="M131 715q0 168 42 305t123 233.5t198.5 149.5t267.5 53q86 0 160.5 -17.5t138.5 -47.5q41 20 90 31.5t111 11.5h565q23 0 29 -8.5t6 -36.5v-183q0 -23 -6.5 -32t-28.5 -9h-492q-84 0 -110.5 -37.5t-26.5 -95.5v-151h563q23 0 30 -8.5t7 -36.5v-168q0 -23 -7 -33t-30 -10 h-563v-228q0 -72 36 -100.5t101 -28.5h512q23 0 29 -7t6 -36v-184q0 -23 -6 -32t-29 -9h-583q-63 0 -111.5 10t-89.5 29q-66 -29 -140.5 -45.5t-164.5 -16.5q-170 0 -289 55.5t-194.5 154t-109.5 233.5t-34 295zM457 723q0 -104 15 -191.5t52 -148.5t96.5 -95t147.5 -34 q74 0 131 35q-10 31 -11 63.5t-1 65.5v639q0 41 10 78q-53 39 -137 39q-76 0 -133.5 -35t-95 -95.5t-56 -143.5t-18.5 -177z" />
<glyph unicode="&#x153;" horiz-adv-x="1896" d="M92 539q0 131 36 236.5t102.5 177t161.5 110.5t216 39q123 0 217.5 -39t153.5 -111q66 72 154.5 111t197.5 39q242 0 360.5 -120t118.5 -343q0 -106 -39.5 -145t-111.5 -39h-524q2 -66 21.5 -109t51 -69.5t75.5 -37t97 -10.5q61 0 131 17.5t111 36.5q23 10 30 4t15 -23 l64 -139q8 -18 7 -29.5t-16 -21.5q-37 -27 -84 -45.5t-96 -29.5t-99 -16.5t-93 -5.5q-127 0 -224.5 34t-156.5 106q-61 -68 -153.5 -104t-211.5 -36q-266 0 -389 147.5t-123 414.5zM399 543q0 -154 48.5 -234t158.5 -80q57 0 97 23.5t66 65.5t37 97.5t11 121.5q0 70 -10 127 t-34.5 98t-63.5 64.5t-97 23.5q-109 0 -161 -83t-52 -224zM1141 645h383q0 45 -9.5 84t-30 66.5t-56.5 44t-89 16.5q-84 0 -138 -59.5t-60 -151.5z" />
<glyph unicode="&#x154;" horiz-adv-x="1370" d="M154 43v1268q0 61 24.5 93t97.5 32h502q223 0 345 -113t122 -303q0 -104 -49 -196.5t-141 -141.5l2 -10q70 -31 98.5 -87.5t46.5 -127.5l105 -410q4 -12 -1.5 -29.5t-29.5 -17.5h-215q-23 0 -47.5 5t-34.5 36l-90 362q-27 100 -79 139.5t-144 39.5h-199v-539 q0 -29 -8 -36t-39 -7h-219q-25 0 -36 9t-11 34zM456 1636.5q-1 8.5 15 22.5l332 258q12 10 22.5 14t26.5 -12l141 -162q12 -12 10 -23.5t-14 -15.5l-395 -202q-20 -10 -29.5 -7.5t-19.5 13.5l-78 94q-10 12 -11 20.5zM469 834h272q90 0 137.5 45.5t47.5 119.5 q0 27 -8.5 55.5t-28 52t-54 39t-87.5 15.5h-279v-327z" />
<glyph unicode="&#x155;" horiz-adv-x="956" d="M147 37v872q0 80 28 122t118 56q37 4 76 7.5t80 3.5q135 0 267 -35t234 -111q16 -12 15.5 -23t-7.5 -24l-106 -170q-12 -20 -22.5 -18t-32.5 16q-57 43 -123 70.5t-148 30.5q-43 0 -82 -7v-790q0 -25 -8 -31t-37 -6h-209q-23 0 -33 7t-10 30zM328 1225.5q-2 9.5 4 25.5 l143 357q10 29 25.5 28.5t38.5 -6.5l194 -51q33 -8 17 -37l-240 -352q-12 -18 -21.5 -20.5t-25.5 1.5l-115 39q-18 6 -20 15.5z" />
<glyph unicode="&#x156;" horiz-adv-x="1370" d="M154 43v1268q0 61 24.5 93t97.5 32h502q223 0 345 -113t122 -303q0 -104 -49 -196.5t-141 -141.5l2 -10q70 -31 98.5 -87.5t46.5 -127.5l105 -410q4 -12 -1.5 -29.5t-29.5 -17.5h-215q-23 0 -47.5 5t-34.5 36l-90 362q-27 100 -79 139.5t-144 39.5h-199v-539 q0 -29 -8 -36t-39 -7h-219q-25 0 -36 9t-11 34zM469 834h272q90 0 137.5 45.5t47.5 119.5q0 27 -8.5 55.5t-28 52t-54 39t-87.5 15.5h-279v-327zM539 -545l28 408q0 16 8.5 28.5t34.5 12.5h207q29 0 36 -12.5t3 -28.5l-135 -404q-8 -23 -15.5 -32t-29.5 -9h-92q-49 0 -45 37 z" />
<glyph unicode="&#x157;" horiz-adv-x="956" d="M127 -606l29 407q0 16 8 28.5t35 12.5h207q29 0 36 -12t2 -29l-135 -403q-8 -23 -15 -32t-30 -9h-92q-49 0 -45 37zM147 37v872q0 80 28 122t118 56q37 4 76 7.5t80 3.5q135 0 267 -35t234 -111q16 -12 15.5 -23t-7.5 -24l-106 -170q-12 -20 -22.5 -18t-32.5 16 q-57 43 -123 70.5t-148 30.5q-43 0 -82 -7v-790q0 -25 -8 -31t-37 -6h-209q-23 0 -33 7t-10 30z" />
<glyph unicode="&#x158;" horiz-adv-x="1370" d="M154 43v1268q0 61 24.5 93t97.5 32h502q223 0 345 -113t122 -303q0 -104 -49 -196.5t-141 -141.5l2 -10q70 -31 98.5 -87.5t46.5 -127.5l105 -410q4 -12 -1.5 -29.5t-29.5 -17.5h-215q-23 0 -47.5 5t-34.5 36l-90 362q-27 100 -79 139.5t-144 39.5h-199v-539 q0 -29 -8 -36t-39 -7h-219q-25 0 -36 9t-11 34zM233.5 1821.5q-0.5 9.5 12.5 21.5l63 70q14 14 24.5 11t26.5 -13l279 -158l301 164q16 8 26.5 10t22.5 -14l62 -66q12 -14 13 -21t-17 -24l-279 -231q-43 -35 -68.5 -47.5t-60.5 -12.5q-20 0 -46 7.5t-48 27.5l-295 254 q-16 12 -16.5 21.5zM469 834h272q90 0 137.5 45.5t47.5 119.5q0 27 -8.5 55.5t-28 52t-54 39t-87.5 15.5h-279v-327z" />
<glyph unicode="&#x159;" horiz-adv-x="956" d="M53 1509q-20 25 2 47l64 62q14 14 25.5 12t27.5 -14l272 -203l287 203q16 12 25.5 15t25.5 -11l72 -59q16 -14 13 -26.5t-19 -29.5l-295 -297q-16 -18 -42 -27.5t-54 -11.5q-33 -2 -65 8.5t-54 34.5zM147 37v872q0 80 28 122t118 56q37 4 76 7.5t80 3.5q135 0 267 -35 t234 -111q16 -12 15.5 -23t-7.5 -24l-106 -170q-12 -20 -22.5 -18t-32.5 16q-57 43 -123 70.5t-148 30.5q-43 0 -82 -7v-790q0 -25 -8 -31t-37 -6h-209q-23 0 -33 7t-10 30z" />
<glyph unicode="&#x15a;" horiz-adv-x="1228" d="M71 128.5q-3 12.5 7 39.5l69 164q10 25 22.5 29t35.5 -7q41 -16 90 -33.5t101.5 -31t106.5 -22.5t107 -9q63 0 106.5 12.5t70 32t37 45t10.5 53.5q0 31 -11.5 55.5t-37 48t-69.5 45t-110 46.5q-109 41 -196.5 84t-151 95t-97.5 116.5t-34 150.5t29.5 162t89 132.5 t151.5 89t217 32.5q57 0 120 -6t123.5 -18.5t115.5 -30t100 -39.5q25 -12 28 -23.5t-7 -42.5l-54 -153q-10 -29 -20 -33t-35 2q-96 29 -191.5 47.5t-179.5 18.5q-90 0 -126.5 -33t-36.5 -80q0 -27 12 -49.5t39.5 -44t74 -44t113.5 -48.5q104 -41 192.5 -83t151 -95.5 t98 -125t35.5 -171.5q0 -109 -38.5 -189t-108.5 -133t-169 -80t-218 -27q-66 0 -137.5 7.5t-142 23t-138.5 40t-125 58.5q-16 10 -19 22.5zM433 1650.5q-1 8.5 16 22.5l331 258q12 10 22.5 14.5t26.5 -12.5l142 -161q12 -12 10 -23.5t-14 -15.5l-396 -203q-20 -10 -29.5 -7 t-19.5 13l-78 94q-10 12 -11 20.5z" />
<glyph unicode="&#x15b;" horiz-adv-x="1017" d="M66.5 99.5q-3.5 11.5 7.5 31.5l59 141q10 23 21.5 28t33.5 -5q33 -14 74 -27.5t85 -24t85 -16.5t74 -6q74 0 103.5 25.5t29.5 64.5q0 41 -42 70t-144 68q-82 31 -144.5 63.5t-105.5 70.5t-65.5 86t-22.5 111q0 68 24.5 126.5t73.5 101.5t124 68.5t177 25.5 q92 0 187.5 -17.5t172.5 -52.5q23 -10 25 -21.5t-6 -35.5l-51 -131q-8 -23 -18.5 -26t-32.5 5q-76 23 -139.5 35t-131.5 12q-55 0 -79.5 -25.5t-24.5 -51.5q0 -41 38 -68t132 -61q74 -29 139.5 -59t113.5 -69.5t76.5 -95t28.5 -133.5q0 -166 -117.5 -248t-308.5 -82 q-106 0 -224 24t-208 77q-16 10 -19.5 21.5zM352.5 1225.5q-2.5 9.5 3.5 25.5l144 357q10 29 25.5 28.5t37.5 -6.5l195 -51q33 -8 16 -37l-239 -352q-12 -18 -21.5 -20.5t-26.5 1.5l-114 39q-18 6 -20.5 15.5z" />
<glyph unicode="&#x15c;" horiz-adv-x="1228" d="M71 128.5q-3 12.5 7 39.5l69 164q10 25 22.5 29t35.5 -7q41 -16 90 -33.5t101.5 -31t106.5 -22.5t107 -9q63 0 106.5 12.5t70 32t37 45t10.5 53.5q0 31 -11.5 55.5t-37 48t-69.5 45t-110 46.5q-109 41 -196.5 84t-151 95t-97.5 116.5t-34 150.5t29.5 162t89 132.5 t151.5 89t217 32.5q57 0 120 -6t123.5 -18.5t115.5 -30t100 -39.5q25 -12 28 -23.5t-7 -42.5l-54 -153q-10 -29 -20 -33t-35 2q-96 29 -191.5 47.5t-179.5 18.5q-90 0 -126.5 -33t-36.5 -80q0 -27 12 -49.5t39.5 -44t74 -44t113.5 -48.5q104 -41 192.5 -83t151 -95.5 t98 -125t35.5 -171.5q0 -109 -38.5 -189t-108.5 -133t-169 -80t-218 -27q-66 0 -137.5 7.5t-142 23t-138.5 40t-125 58.5q-16 10 -19 22.5zM220 1610.5q-1 9.5 13 23.5l273 236q29 25 60.5 39t58.5 14q59 0 125 -53l276 -234q18 -16 18 -27.5t-14 -25.5l-57 -63 q-12 -14 -26.5 -11.5t-31.5 13.5l-290 157l-283 -153q-16 -10 -28.5 -11.5t-26.5 15.5l-54 55q-12 16 -13 25.5z" />
<glyph unicode="&#x15d;" horiz-adv-x="1017" d="M66.5 99.5q-3.5 11.5 7.5 31.5l59 141q10 23 21.5 28t33.5 -5q33 -14 74 -27.5t85 -24t85 -16.5t74 -6q74 0 103.5 25.5t29.5 64.5q0 41 -42 70t-144 68q-82 31 -144.5 63.5t-105.5 70.5t-65.5 86t-22.5 111q0 68 24.5 126.5t73.5 101.5t124 68.5t177 25.5 q92 0 187.5 -17.5t172.5 -52.5q23 -10 25 -21.5t-6 -35.5l-51 -131q-8 -23 -18.5 -26t-32.5 5q-76 23 -139.5 35t-131.5 12q-55 0 -79.5 -25.5t-24.5 -51.5q0 -41 38 -68t132 -61q74 -29 139.5 -59t113.5 -69.5t76.5 -95t28.5 -133.5q0 -166 -117.5 -248t-308.5 -82 q-106 0 -224 24t-208 77q-16 10 -19.5 21.5zM95 1252.5q1 9.5 11 25.5l269 281q29 29 59.5 46t61.5 17q45 0 73.5 -14.5t59.5 -48.5l272 -279q16 -16 15 -27.5t-17 -27.5l-59 -58q-14 -10 -25.5 -10t-32.5 14l-284 201l-275 -205q-16 -10 -27.5 -10t-27.5 14l-62 58 q-12 14 -11 23.5z" />
<glyph unicode="&#x15e;" horiz-adv-x="1228" d="M71 128.5q-3 12.5 7 39.5l69 164q10 25 22.5 29t35.5 -7q41 -16 90 -33.5t101.5 -31t106.5 -22.5t107 -9q63 0 106.5 12.5t70 32t37 45t10.5 53.5q0 31 -11.5 55.5t-37 48t-69.5 45t-110 46.5q-109 41 -196.5 84t-151 95t-97.5 116.5t-34 150.5t29.5 162t89 132.5 t151.5 89t217 32.5q57 0 120 -6t123.5 -18.5t115.5 -30t100 -39.5q25 -12 28 -23.5t-7 -42.5l-54 -153q-10 -29 -20 -33t-35 2q-96 29 -191.5 47.5t-179.5 18.5q-90 0 -126.5 -33t-36.5 -80q0 -27 12 -49.5t39.5 -44t74 -44t113.5 -48.5q104 -41 192.5 -83t151 -95.5 t98 -125t35.5 -171.5q0 -106 -37.5 -186.5t-106.5 -133.5t-166 -79.5t-214 -29.5l-35 -88q76 -4 126 -22.5t81 -45t43 -58t12 -64.5q0 -41 -15 -80t-49 -69.5t-87 -49t-131 -18.5q-33 0 -68 4t-67.5 10t-61.5 14.5t-49 16.5q-16 6 -17 14t5 29l24 74q8 23 14.5 23.5 t22.5 -3.5q41 -14 76 -21.5t74 -7.5q49 0 77.5 16.5t28.5 53.5q0 35 -34.5 49.5t-86.5 14.5q-35 0 -46 1t-21 11q-12 10 -10 26.5t8 34.5l53 142q-111 10 -219.5 38.5t-200.5 83.5q-16 10 -19 22.5z" />
<glyph unicode="&#x15f;" horiz-adv-x="1017" d="M66.5 99.5q-3.5 11.5 7.5 31.5l59 141q10 23 21.5 28t33.5 -5q33 -14 74 -27.5t85 -24t85 -16.5t74 -6q74 0 103.5 25.5t29.5 64.5q0 41 -42 70t-144 68q-82 31 -144.5 63.5t-105.5 70.5t-65.5 86t-22.5 111q0 68 24.5 126.5t73.5 101.5t124 68.5t177 25.5 q92 0 187.5 -17.5t172.5 -52.5q23 -10 25 -21.5t-6 -35.5l-51 -131q-8 -23 -18.5 -26t-32.5 5q-76 23 -139.5 35t-131.5 12q-55 0 -79.5 -25.5t-24.5 -51.5q0 -41 38 -68t132 -61q74 -29 139.5 -59t113.5 -69.5t76.5 -95t28.5 -133.5q0 -164 -114.5 -245.5t-301.5 -84.5 l-34 -88q76 -4 126 -22.5t80.5 -45t43 -58t12.5 -64.5q0 -41 -15.5 -80t-49.5 -69.5t-87 -49t-131 -18.5q-33 0 -67.5 4t-67.5 10t-61.5 14.5t-49.5 16.5q-16 6 -17 14t5 29l25 74q8 23 14 23.5t22 -3.5q41 -14 76 -21.5t74 -7.5q49 0 77.5 16.5t28.5 53.5q0 35 -34.5 49.5 t-85.5 14.5q-35 0 -46.5 1t-21.5 11q-12 10 -10 26.5t8 34.5l55 142q-84 10 -164.5 31.5t-146.5 62.5q-16 10 -19.5 21.5z" />
<glyph unicode="&#x160;" horiz-adv-x="1228" d="M71 128.5q-3 12.5 7 39.5l69 164q10 25 22.5 29t35.5 -7q41 -16 90 -33.5t101.5 -31t106.5 -22.5t107 -9q63 0 106.5 12.5t70 32t37 45t10.5 53.5q0 31 -11.5 55.5t-37 48t-69.5 45t-110 46.5q-109 41 -196.5 84t-151 95t-97.5 116.5t-34 150.5t29.5 162t89 132.5 t151.5 89t217 32.5q57 0 120 -6t123.5 -18.5t115.5 -30t100 -39.5q25 -12 28 -23.5t-7 -42.5l-54 -153q-10 -29 -20 -33t-35 2q-96 29 -191.5 47.5t-179.5 18.5q-90 0 -126.5 -33t-36.5 -80q0 -27 12 -49.5t39.5 -44t74 -44t113.5 -48.5q104 -41 192.5 -83t151 -95.5 t98 -125t35.5 -171.5q0 -109 -38.5 -189t-108.5 -133t-169 -80t-218 -27q-66 0 -137.5 7.5t-142 23t-138.5 40t-125 58.5q-16 10 -19 22.5zM229.5 1819.5q-0.5 9.5 12.5 21.5l63 70q14 14 24.5 11t26.5 -13l279 -158l301 164q16 8 26.5 10t22.5 -14l62 -66q12 -14 13 -21 t-18 -24l-278 -231q-43 -35 -68.5 -47.5t-60.5 -12.5q-20 0 -46 7.5t-48 27.5l-295 254q-16 12 -16.5 21.5z" />
<glyph unicode="&#x161;" horiz-adv-x="1017" d="M66.5 99.5q-3.5 11.5 7.5 31.5l59 141q10 23 21.5 28t33.5 -5q33 -14 74 -27.5t85 -24t85 -16.5t74 -6q74 0 103.5 25.5t29.5 64.5q0 41 -42 70t-144 68q-82 31 -144.5 63.5t-105.5 70.5t-65.5 86t-22.5 111q0 68 24.5 126.5t73.5 101.5t124 68.5t177 25.5 q92 0 187.5 -17.5t172.5 -52.5q23 -10 25 -21.5t-6 -35.5l-51 -131q-8 -23 -18.5 -26t-32.5 5q-76 23 -139.5 35t-131.5 12q-55 0 -79.5 -25.5t-24.5 -51.5q0 -41 38 -68t132 -61q74 -29 139.5 -59t113.5 -69.5t76.5 -95t28.5 -133.5q0 -166 -117.5 -248t-308.5 -82 q-106 0 -224 24t-208 77q-16 10 -19.5 21.5zM109 1513q-20 25 2 48l63 61q14 14 25.5 12t27.5 -14l273 -203l286 203q16 12 25.5 15t26.5 -11l71 -59q16 -14 13.5 -26.5t-19.5 -29.5l-295 -297q-16 -18 -41.5 -27t-54.5 -11q-33 -2 -64.5 8t-54.5 35z" />
<glyph unicode="&#x162;" horiz-adv-x="1175" d="M25 1208v183q0 27 8 35t30 8h1049q25 0 33 -8.5t8 -34.5v-183q0 -41 -41 -41h-371v-1124q0 -27 -9 -35t-40 -8h-219q-25 0 -36 9t-11 34v1124h-363q-39 0 -38 41zM420 -606l29 407q0 16 8 28.5t35 12.5h206q29 0 36 -12t3 -29l-135 -403q-8 -23 -15 -32t-30 -9h-92 q-49 0 -45 37z" />
<glyph unicode="&#x163;" horiz-adv-x="862" d="M31 895v111q0 20 5 27t27 14l152 34l14 193q2 25 13.5 35t33.5 16l189 61q18 4 29.5 -4t11.5 -32v-275h225q23 0 28 -9t5 -26v-145q0 -20 -4 -29.5t-29 -9.5h-225v-520q0 -59 29.5 -82t89.5 -23q14 0 34.5 2.5t42 4.5t42 4t34.5 4q33 6 35 -21l25 -172q2 -14 2 -23.5 t-23 -17.5q-76 -23 -151.5 -29t-128.5 -6q-176 0 -252 75t-76 220v584h-143q-23 0 -29 11.5t-6 27.5zM256 -606l29 407q0 16 8 28.5t35 12.5h207q29 0 36 -12t2 -29l-135 -403q-8 -23 -15 -32t-30 -9h-92q-49 0 -45 37z" />
<glyph unicode="&#x164;" horiz-adv-x="1175" d="M25 1208v183q0 27 8 35t30 8h1049q25 0 33 -8.5t8 -34.5v-183q0 -41 -41 -41h-371v-1124q0 -27 -9 -35t-40 -8h-219q-25 0 -36 9t-11 34v1124h-363q-39 0 -38 41zM172 1819.5q0 9.5 12 21.5l64 70q14 14 24.5 11t26.5 -13l279 -158l301 164q16 8 26 10t23 -14l61 -66 q12 -14 13.5 -21t-17.5 -24l-278 -231q-43 -35 -69 -47.5t-60 -12.5q-20 0 -46 7.5t-49 27.5l-295 254q-16 12 -16 21.5z" />
<glyph unicode="&#x165;" horiz-adv-x="1009" d="M31 895v111q0 20 5 27t27 14l152 34l14 193q2 25 13.5 35t33.5 16l189 61q18 4 29.5 -4t11.5 -32v-275h225q23 0 28 -9t5 -26v-145q0 -20 -4 -29.5t-29 -9.5h-225v-520q0 -59 29.5 -82t89.5 -23q14 0 34.5 2.5t42 4.5t42 4t34.5 4q33 6 35 -21l25 -172q2 -14 2 -23.5 t-23 -17.5q-76 -23 -151.5 -29t-128.5 -6q-176 0 -252 75t-76 220v584h-143q-23 0 -29 11.5t-6 27.5zM739 1212l29 408q0 16 8 28.5t35 12.5h207q29 0 36 -12.5t3 -28.5l-135 -403q-8 -23 -15.5 -32t-29.5 -9h-93q-49 0 -45 36z" />
<glyph unicode="&#x166;" horiz-adv-x="1175" d="M25 1208v183q0 27 8 35t30 8h1049q25 0 33 -8.5t8 -34.5v-183q0 -41 -41 -41h-373v-327h328q27 0 27 -33v-107q0 -23 -5.5 -28.5t-21.5 -5.5h-328v-627q0 -23 -7 -31t-36 -8h-227q-43 0 -43 39v627h-309q-18 0 -22.5 6t-4.5 28v107q0 16 5 24.5t22 8.5h309v327h-363 q-39 0 -38 41z" />
<glyph unicode="&#x167;" horiz-adv-x="862" d="M31 895v111q0 20 5 27t27 14l152 34l14 193q2 25 13.5 35t33.5 16l189 61q18 4 29.5 -4t11.5 -32v-275h225q23 0 28 -9t5 -26v-145q0 -20 -4 -29.5t-29 -9.5h-225v-176h219q27 0 27 -35v-100q0 -20 -5.5 -26.5t-21.5 -6.5h-219v-168q0 -59 29.5 -81.5t89.5 -22.5 q29 0 74.5 5t78.5 9q33 6 35 -21l25 -180q2 -14 2 -23.5t-23 -17.5q-76 -23 -151.5 -29t-128.5 -6q-176 0 -252 75t-76 220v240h-125q-16 0 -21.5 6t-5.5 27v100q0 35 27 35h125v176h-143q-23 0 -29 11.5t-6 27.5z" />
<glyph unicode="&#x168;" horiz-adv-x="1468" d="M152 1391q0 25 12 34t35 9h219q31 0 40 -8.5t9 -34.5v-813q0 -84 14.5 -146.5t51 -103.5t99 -60.5t161.5 -19.5q14 0 38.5 1t54 2t61.5 4t59 9v1127q0 25 11 34t36 9h217q31 0 38 -8.5t7 -34.5v-1192q0 -72 -32 -123t-118 -74q-41 -10 -90 -15t-98 -7.5t-92 -3.5t-70 -1 q-176 0 -302 30t-206 101.5t-116.5 190.5t-36.5 299zM351.5 1626q-1.5 10 6.5 27q39 78 95.5 126t148.5 48q39 0 74 -13.5t68.5 -29t66.5 -27.5t66 -12t54 15.5t42 49.5q12 23 18 25t25 -4l102 -35q20 -6 22.5 -15t-5.5 -30q-39 -86 -95.5 -142.5t-148.5 -56.5 q-37 0 -74 13.5t-71.5 29t-69.5 28.5t-72 13q-55 0 -96 -63q-12 -18 -21.5 -23.5t-25.5 4.5l-90 52q-18 10 -19.5 20z" />
<glyph unicode="&#x169;" horiz-adv-x="1228" d="M133 508v530q0 23 7 31t36 8h213q43 0 43 -39v-549q0 -68 8.5 -117.5t33 -83.5t69 -50.5t116.5 -16.5q20 0 58.5 2t81.5 8v807q0 23 7 31t36 8h211q43 0 43 -39v-874q0 -70 -28 -111t-99 -57q-25 -4 -62 -8t-79 -7.5t-82.5 -4.5t-71.5 -1q-147 0 -251 29t-168.5 92.5 t-93 164.5t-28.5 247zM222.5 1290q-1.5 10 6.5 27q39 78 95.5 126t148.5 48q39 0 74 -13.5t68.5 -28.5t66.5 -27.5t66 -12.5t54 15.5t42 50.5q12 23 18 24.5t25 -4.5l102 -35q20 -6 22.5 -15t-5.5 -30q-39 -86 -95.5 -142t-148.5 -56q-37 0 -74 13t-71.5 28.5t-69.5 28.5 t-72 13q-55 0 -96 -63q-12 -18 -21.5 -23.5t-25.5 5.5l-90 51q-18 10 -19.5 20z" />
<glyph unicode="&#x16a;" horiz-adv-x="1468" d="M152 1391q0 25 12 34t35 9h219q31 0 40 -8.5t9 -34.5v-813q0 -84 14.5 -146.5t51 -103.5t99 -60.5t161.5 -19.5q14 0 38.5 1t54 2t61.5 4t59 9v1127q0 25 11 34t36 9h217q31 0 38 -8.5t7 -34.5v-1192q0 -72 -32 -123t-118 -74q-41 -10 -90 -15t-98 -7.5t-92 -3.5t-70 -1 q-176 0 -302 30t-206 101.5t-116.5 190.5t-36.5 299zM420 1622v123q0 29 9 36t32 7h555q23 0 32 -7t9 -36v-123q0 -43 -41 -43h-555q-41 0 -41 43z" />
<glyph unicode="&#x16b;" horiz-adv-x="1228" d="M133 508v530q0 23 7 31t36 8h213q43 0 43 -39v-549q0 -68 8.5 -117.5t33 -83.5t69 -50.5t116.5 -16.5q20 0 58.5 2t81.5 8v807q0 23 7 31t36 8h211q43 0 43 -39v-874q0 -70 -28 -111t-99 -57q-25 -4 -62 -8t-79 -7.5t-82.5 -4.5t-71.5 -1q-147 0 -251 29t-168.5 92.5 t-93 164.5t-28.5 247zM293 1268v123q0 29 9 36t32 7h555q23 0 32 -7.5t9 -35.5v-123q0 -43 -41 -43h-555q-41 0 -41 43z" />
<glyph unicode="&#x16c;" horiz-adv-x="1468" d="M152 1391q0 25 12 34t35 9h219q31 0 40 -8.5t9 -34.5v-813q0 -84 14.5 -146.5t51 -103.5t99 -60.5t161.5 -19.5q14 0 38.5 1t54 2t61.5 4t59 9v1127q0 25 11 34t36 9h217q31 0 38 -8.5t7 -34.5v-1192q0 -72 -32 -123t-118 -74q-41 -10 -90 -15t-98 -7.5t-92 -3.5t-70 -1 q-176 0 -302 30t-206 101.5t-116.5 190.5t-36.5 299zM342 1776.5q-4 11.5 14 27.5l80 78q20 16 27.5 11t23.5 -17q66 -66 130.5 -102.5t123.5 -36.5q25 0 50.5 5t56.5 20.5t67.5 43t85.5 74.5q20 16 28.5 15t19.5 -11l77 -67q20 -18 17.5 -28.5t-8.5 -19.5 q-187 -247 -406 -247q-61 0 -115.5 19.5t-102.5 53t-88 75.5t-73 89q-4 6 -8 17.5z" />
<glyph unicode="&#x16d;" horiz-adv-x="1228" d="M133 508v530q0 23 7 31t36 8h213q43 0 43 -39v-549q0 -68 8.5 -117.5t33 -83.5t69 -50.5t116.5 -16.5q20 0 58.5 2t81.5 8v807q0 23 7 31t36 8h211q43 0 43 -39v-874q0 -70 -28 -111t-99 -57q-25 -4 -62 -8t-79 -7.5t-82.5 -4.5t-71.5 -1q-147 0 -251 29t-168.5 92.5 t-93 164.5t-28.5 247zM209 1434.5q-4 11.5 14 27.5l80 78q20 16 27.5 11t23.5 -17q66 -66 130.5 -102.5t123.5 -36.5q25 0 50.5 5t56 20.5t67.5 43t86 74.5q20 16 28.5 15t18.5 -11l78 -67q20 -18 17.5 -28.5t-9.5 -19.5q-186 -247 -405 -247q-61 0 -115.5 19.5t-102.5 53 t-88 75.5t-73 89q-4 6 -8 17.5z" />
<glyph unicode="&#x16e;" horiz-adv-x="1468" d="M152 1391q0 25 12 34t35 9h219q31 0 40 -8.5t9 -34.5v-813q0 -84 14.5 -146.5t51 -103.5t99 -60.5t161.5 -19.5q14 0 38.5 1t54 2t61.5 4t59 9v1127q0 25 11 34t36 9h217q31 0 38 -8.5t7 -34.5v-1192q0 -72 -32 -123t-118 -74q-41 -10 -90 -15t-98 -7.5t-92 -3.5t-70 -1 q-176 0 -302 30t-206 101.5t-116.5 190.5t-36.5 299zM494 1733q0 51 19 96t53 76.5t80 50t99 18.5t100.5 -17.5t81.5 -50t53 -76.5t19 -97t-19 -97.5t-53 -77t-81 -50t-101 -17.5q-106 0 -178.5 66.5t-72.5 175.5zM647 1733q0 -47 27.5 -75t70.5 -28q41 0 71 28t30 75 q0 43 -29 71.5t-72 28.5t-70.5 -28.5t-27.5 -71.5z" />
<glyph unicode="&#x16f;" horiz-adv-x="1228" d="M133 508v530q0 23 7 31t36 8h213q43 0 43 -39v-549q0 -68 8.5 -117.5t33 -83.5t69 -50.5t116.5 -16.5q20 0 58.5 2t81.5 8v807q0 23 7 31t36 8h211q43 0 43 -39v-874q0 -70 -28 -111t-99 -57q-25 -4 -62 -8t-79 -7.5t-82.5 -4.5t-71.5 -1q-147 0 -251 29t-168.5 92.5 t-93 164.5t-28.5 247zM373 1407q0 51 19.5 96t53 77t79.5 50.5t100 18.5q53 0 100 -17.5t81 -50.5t53.5 -77t19.5 -97t-19.5 -97t-53.5 -77t-81 -50.5t-100 -17.5q-106 0 -179 66.5t-73 175.5zM526 1407q0 -47 28 -74.5t71 -27.5q41 0 70.5 27.5t29.5 74.5q0 43 -28.5 71.5 t-71.5 28.5t-71 -28.5t-28 -71.5z" />
<glyph unicode="&#x170;" horiz-adv-x="1468" d="M152 1391q0 25 12 34t35 9h219q31 0 40 -8.5t9 -34.5v-813q0 -84 14.5 -146.5t51 -103.5t99 -60.5t161.5 -19.5q14 0 38.5 1t54 2t61.5 4t59 9v1127q0 25 11 34t36 9h217q31 0 38 -8.5t7 -34.5v-1192q0 -72 -32 -123t-118 -74q-41 -10 -90 -15t-98 -7.5t-92 -3.5t-70 -1 q-176 0 -302 30t-206 101.5t-116.5 190.5t-36.5 299zM367 1637.5q0 9.5 16 23.5q20 14 63 50t91.5 75t92.5 73.5t64 51.5q14 12 23.5 13t25.5 -13l127 -139q23 -27 -2 -41l-370 -195q-29 -16 -52 6l-67 74q-12 12 -12 21.5zM817.5 1637.5q0.5 9.5 16.5 23.5q20 14 63 50 t91 75t92 73.5t65 51.5q14 12 23.5 13t25.5 -13l127 -139q23 -27 -2 -41l-373 -195q-29 -16 -51 6l-66 74q-12 12 -11.5 21.5z" />
<glyph unicode="&#x171;" horiz-adv-x="1228" d="M133 508v530q0 23 7 31t36 8h213q43 0 43 -39v-549q0 -68 8.5 -117.5t33 -83.5t69 -50.5t116.5 -16.5q20 0 58.5 2t81.5 8v807q0 23 7 31t36 8h211q43 0 43 -39v-874q0 -70 -28 -111t-99 -57q-25 -4 -62 -8t-79 -7.5t-82.5 -4.5t-71.5 -1q-147 0 -251 29t-168.5 92.5 t-93 164.5t-28.5 247zM315.5 1224.5q-2.5 10.5 3.5 26.5l142 357q14 33 45 24l209 -53q33 -8 14 -37l-237 -352q-12 -18 -22 -20.5t-26 1.5q-29 10 -54 19.5t-54 19.5q-18 4 -20.5 14.5zM657.5 1224.5q-2.5 10.5 4.5 26.5l141 357q14 33 45 24l209 -53q33 -8 14 -37 l-237 -352q-12 -18 -22 -20.5t-26 1.5q-29 10 -54 19.5t-54 19.5q-18 4 -20.5 14.5z" />
<glyph unicode="&#x172;" horiz-adv-x="1468" d="M152 1391q0 25 12 34t35 9h219q31 0 40 -8.5t9 -34.5v-813q0 -84 14.5 -146.5t51 -103.5t99 -60.5t161.5 -19.5q14 0 38.5 1t54 2t61.5 4t59 9v1127q0 25 11 34t36 9h217q31 0 38 -8.5t7 -34.5v-1192q0 -72 -32 -123t-118 -74q-72 -16 -161 -20.5t-152 -6.5 q-49 -55 -70.5 -102t-21.5 -88q0 -82 108 -82q20 0 55 3t64 9q18 4 27.5 2t13.5 -18l21 -76q6 -18 -0.5 -27.5t-16.5 -15.5q-61 -25 -128.5 -35t-127.5 -10q-123 0 -176 52.5t-55 127.5q0 59 34.5 133t94.5 134q-139 10 -237.5 47t-161 109.5t-92 185t-29.5 272.5z" />
<glyph unicode="&#x173;" horiz-adv-x="1228" d="M133 508v530q0 23 7 31t36 8h213q43 0 43 -39v-549q0 -68 8.5 -117.5t33 -83.5t69 -50.5t116.5 -16.5q20 0 58.5 2t81.5 8v807q0 23 7 31t36 8h211q43 0 43 -39v-874q0 -59 -19.5 -98t-68.5 -60q-61 -63 -87 -115.5t-26 -95.5q0 -82 109 -82q20 0 55 3t63 10q18 4 27.5 2 t13.5 -19l21 -76q6 -18 0 -27t-17 -16q-61 -25 -128.5 -35t-127.5 -10q-123 0 -176 52.5t-55 128.5q0 57 31.5 125.5t85.5 128.5q-35 -2 -67 -3.5t-56 -1.5q-147 0 -251 29t-168.5 92.5t-93 164.5t-28.5 247z" />
<glyph unicode="&#x174;" horiz-adv-x="1851" d="M29 1397q-6 29 2 35t30 6h250q29 0 44.5 -7.5t21.5 -37.5l102 -594l62 -367h14l78 371l110 516q16 66 43 91.5t93 25.5h118q61 0 83 -26t36 -83l115 -539l74 -348h12l57 348l105 601q4 31 15 39t38 8h264q18 0 26.5 -7.5t0.5 -33.5l-291 -1291q-10 -39 -21.5 -60 t-28 -32.5t-39 -13.5t-50.5 -2h-113q-31 0 -53.5 3t-39 15.5t-28.5 35t-22 59.5l-119 544l-80 377h-12l-86 -377l-125 -544q-16 -72 -46 -92.5t-91 -20.5h-119q-29 0 -51.5 2t-39 12t-28.5 30.5t-21 59.5zM517 1604.5q-1 9.5 13 23.5l273 236q29 25 60.5 39t58.5 14 q59 0 125 -53l276 -234q18 -16 18 -27.5t-14 -25.5l-57 -64q-12 -14 -26.5 -11t-31.5 14l-290 157l-283 -153q-16 -10 -28.5 -11.5t-26.5 15.5l-54 55q-12 16 -13 25.5z" />
<glyph unicode="&#x175;" horiz-adv-x="1626" d="M31 1040q-6 23 2 30t28 7h232q25 0 36 -4t17 -29l70 -364l55 -332h12l72 258l92 320q16 51 41 74.5t82 23.5h107q53 0 71.5 -26.5t34.5 -71.5l94 -316l74 -264h12l49 326l68 370q4 23 12 28t33 5l240 2q20 0 27 -7t3 -30l-235 -940q-18 -70 -49 -90t-80 -20h-107 q-29 0 -48 3t-34.5 14t-26.5 32.5t-24 56.5l-90 295l-80 279h-10l-84 -283l-92 -291q-25 -66 -50.5 -86t-80.5 -20h-113q-49 0 -78.5 20.5t-48.5 89.5zM407 1246q1 9 11 26l268 280q29 29 59.5 46.5t61.5 17.5q45 0 73.5 -14.5t59.5 -49.5l272 -278q16 -16 15.5 -27.5 t-17.5 -27.5l-59 -58q-14 -10 -25.5 -10t-31.5 14l-285 201l-274 -205q-16 -10 -27.5 -10t-28.5 14l-61 58q-12 14 -11 23z" />
<glyph unicode="&#x176;" horiz-adv-x="1280" d="M19.5 1421.5q5.5 14.5 27.5 14.5h258q29 0 40 -10.5t22 -34.5l137 -285l131 -293h12l135 303l136 281q10 20 21 29.5t34 9.5h260q29 0 30 -12.5t-6 -24.5l-456 -871v-487q0 -23 -8.5 -32t-36.5 -9h-224q-43 0 -43 41v483l-469 873q-6 10 -0.5 24.5zM226.5 1604.5 q-1.5 9.5 13.5 23.5l272 236q29 25 60.5 39t58.5 14q59 0 125 -53l276 -234q18 -16 18.5 -27.5t-14.5 -25.5l-57 -64q-12 -14 -26.5 -11t-30.5 14l-291 157l-283 -153q-16 -10 -28.5 -11.5t-26.5 15.5l-53 55q-12 16 -13.5 25.5z" />
<glyph unicode="&#x177;" horiz-adv-x="1144" d="M25 1036q-8 23 1 31t25 8h240q31 0 42 -7t17 -30l117 -413l96 -357h12l105 363l123 403q6 23 16 32t41 9h244q35 0 22 -33l-413 -1222v2q-47 -141 -135.5 -201.5t-233.5 -60.5q-41 0 -95 6t-108 22q-25 6 -32 14.5t0 30.5l34 162q6 25 14.5 27t30.5 -2q33 -6 55.5 -8 t45.5 -2q72 0 112.5 23.5t63.5 94.5l37 111h-60q-47 0 -67.5 16.5t-38.5 71.5zM171 1248q1 9 11 26l269 280q29 29 59.5 46.5t60.5 17.5q45 0 74 -14.5t60 -49.5l272 -278q16 -16 15 -27.5t-17 -27.5l-60 -58q-14 -10 -25 -10t-32 14l-285 201l-274 -205q-16 -10 -27.5 -10 t-27.5 14l-62 58q-12 14 -11 23z" />
<glyph unicode="&#x178;" horiz-adv-x="1280" d="M19.5 1421.5q5.5 14.5 27.5 14.5h258q29 0 40 -10.5t22 -34.5l137 -285l131 -293h12l135 303l136 281q10 20 21 29.5t34 9.5h260q29 0 30 -12.5t-6 -24.5l-456 -871v-487q0 -23 -8.5 -32t-36.5 -9h-224q-43 0 -43 41v483l-469 873q-6 10 -0.5 24.5zM276 1677 q0 31 12.5 58.5t34 48t48 33t57.5 12.5t58.5 -12.5t49 -33t34 -48t12.5 -58.5t-12.5 -57.5t-34 -47t-49 -32.5t-58.5 -12t-57.5 12t-48 32.5t-34 47.5t-12.5 57zM696 1677q0 61 46 106.5t108 45.5q31 0 57.5 -12.5t48 -33t33.5 -48t12 -58.5t-12 -57.5t-33.5 -47t-48 -32.5 t-57.5 -12t-58.5 12t-49 32.5t-34 47.5t-12.5 57z" />
<glyph unicode="&#x179;" horiz-adv-x="1288" d="M61 111v49q0 49 17.5 85t48.5 72l692 840l-2 12h-622q-39 0 -39 43v179q0 29 7 37t32 8h895q66 0 94 -25t28 -92v-68q0 -47 -22.5 -87t-48.5 -72l-668 -811l4 -15h705q23 0 30 -8t7 -37v-178q0 -25 -7.5 -34t-29.5 -9h-1002q-59 0 -89 25.5t-30 85.5zM503 1636.5 q-1 8.5 15 22.5l332 258q12 10 22.5 14t26.5 -12l141 -162q12 -12 10.5 -23.5t-14.5 -15.5l-395 -202q-20 -10 -29.5 -7.5t-19.5 13.5l-78 94q-10 12 -11 20.5z" />
<glyph unicode="&#x17a;" horiz-adv-x="1032" d="M47 88v62q0 31 9.5 61.5t39.5 64.5l490 553l-4 9h-447q-25 0 -31 8t-6 31v159q0 39 39 39h729q51 0 77 -15.5t26 -66.5v-71q0 -31 -9.5 -61t-31.5 -56l-492 -553l4 -10h500q23 0 31 -7.5t8 -29.5v-166q0 -23 -7 -31t-30 -8h-797q-51 0 -74.5 23.5t-23.5 64.5zM410 1225.5 q-2 9.5 4 25.5l143 357q10 29 25.5 28.5t38.5 -6.5l194 -51q33 -8 16 -37l-239 -352q-12 -18 -21.5 -20.5t-25.5 1.5l-115 39q-18 6 -20 15.5z" />
<glyph unicode="&#x17b;" horiz-adv-x="1288" d="M61 111v49q0 49 17.5 85t48.5 72l692 840l-2 12h-622q-39 0 -39 43v179q0 29 7 37t32 8h895q66 0 94 -25t28 -92v-68q0 -47 -22.5 -87t-48.5 -72l-668 -811l4 -15h705q23 0 30 -8t7 -37v-178q0 -25 -7.5 -34t-29.5 -9h-1002q-59 0 -89 25.5t-30 85.5zM537 1692 q0 70 50 119t120 49q68 0 117.5 -49t49.5 -119q0 -72 -50 -119t-117 -47q-70 0 -120 47t-50 119z" />
<glyph unicode="&#x17c;" horiz-adv-x="1032" d="M47 88v62q0 31 9.5 61.5t39.5 64.5l490 553l-4 9h-447q-25 0 -31 8t-6 31v159q0 39 39 39h729q51 0 77 -15.5t26 -66.5v-71q0 -31 -9.5 -61t-31.5 -56l-492 -553l4 -10h500q23 0 31 -7.5t8 -29.5v-166q0 -23 -7 -31t-30 -8h-797q-51 0 -74.5 23.5t-23.5 64.5zM379 1384 q0 70 50 119t120 49q68 0 118 -49t50 -119q0 -72 -50.5 -118.5t-117.5 -46.5q-70 0 -120 47t-50 118z" />
<glyph unicode="&#x17d;" horiz-adv-x="1288" d="M61 111v49q0 49 17.5 85t48.5 72l692 840l-2 12h-622q-39 0 -39 43v179q0 29 7 37t32 8h895q66 0 94 -25t28 -92v-68q0 -47 -22.5 -87t-48.5 -72l-668 -811l4 -15h705q23 0 30 -8t7 -37v-178q0 -25 -7.5 -34t-29.5 -9h-1002q-59 0 -89 25.5t-30 85.5zM289 1819.5 q0 9.5 12 21.5l64 70q14 14 24 11t27 -13l278 -158l301 164q16 8 26.5 10t22.5 -14l62 -66q12 -14 13 -21t-17 -24l-279 -231q-43 -35 -68.5 -47.5t-60.5 -12.5q-20 0 -45.5 7.5t-48.5 27.5l-295 254q-16 12 -16 21.5z" />
<glyph unicode="&#x17e;" horiz-adv-x="1032" d="M47 88v62q0 31 9.5 61.5t39.5 64.5l490 553l-4 9h-447q-25 0 -31 8t-6 31v159q0 39 39 39h729q51 0 77 -15.5t26 -66.5v-71q0 -31 -9.5 -61t-31.5 -56l-492 -553l4 -10h500q23 0 31 -7.5t8 -29.5v-166q0 -23 -7 -31t-30 -8h-797q-51 0 -74.5 23.5t-23.5 64.5zM139 1513 q-20 25 2 48l64 61q14 14 25.5 12t27.5 -14l272 -203l287 203q16 12 25.5 15t25.5 -11l72 -59q16 -14 13 -26.5t-19 -29.5l-295 -297q-16 -18 -42 -27t-54 -11q-33 -2 -65 8t-54 35z" />
<glyph unicode="&#x192;" d="M126 -180.5q-1 8.5 5 26.5l39 140q6 20 16.5 24t26.5 0q29 -4 52.5 -7t45.5 -3q68 2 99.5 51t54.5 142q29 131 46 255.5t34 233.5h-164q-27 0 -30 12.5t-1 30.5v123q0 41 39 41h186q4 31 11.5 77t13.5 78q12 63 34.5 134t65.5 128.5t113 95.5t174 38q33 0 97.5 -4 t129.5 -23q23 -8 25 -18.5t-2 -28.5l-27 -137q-4 -16 -14 -21.5t-39 -1.5q-68 12 -115 13q-72 0 -111.5 -41t-60.5 -144q-8 -43 -12 -73.5t-12 -69.5h211q23 0 29 -6t6 -29l-2 -129q0 -23 -5.5 -34t-31.5 -11h-238q-8 -55 -17.5 -118.5t-19.5 -129t-20 -129t-21 -117.5 q-20 -92 -44.5 -169.5t-66.5 -134t-107.5 -88.5t-170.5 -32q-20 0 -47 2.5t-55.5 6.5t-56 12t-48.5 18q-14 8 -15 16.5z" />
<glyph unicode="&#x1a0;" horiz-adv-x="1626" d="M113 715q0 172 44 310t126 233.5t198.5 146.5t263.5 51t259 -43t190 -125q84 8 126 57.5t42 176.5v82q0 27 11 32.5t30 5.5h149q20 0 28.5 -8t8.5 -30v-117q0 -147 -66.5 -255t-203.5 -138q63 -162 63 -373q0 -176 -37.5 -313.5t-117.5 -233.5t-201 -146.5t-287 -50.5 q-317 0 -471.5 192.5t-154.5 545.5zM438 727q0 -109 15.5 -195t51.5 -147t95 -94t150 -33q88 0 147 38t94 100.5t50.5 145.5t15.5 173q0 92 -13.5 176t-48 147.5t-94 101.5t-153.5 38q-78 0 -136.5 -36t-97.5 -97.5t-57.5 -143.5t-18.5 -174z" />
<glyph unicode="&#x1a1;" horiz-adv-x="1386" d="M92 539q0 131 36 236.5t102.5 177t161.5 110.5t216 39q135 0 233.5 -43t164.5 -121q70 12 101.5 61.5t31.5 161.5v84q0 27 12 33t31 6h147q20 0 28.5 -8t8.5 -31v-117q0 -147 -63.5 -252.5t-198.5 -138.5q22 -90 22 -194q0 -270 -129 -418t-393 -148q-266 0 -389 147.5 t-123 414.5zM399 543q0 -154 48.5 -234t158.5 -80q57 0 97 23.5t66 65.5t37 97.5t11 121.5q0 70 -10 127t-34.5 98t-63.5 64.5t-97 23.5q-109 0 -161 -83t-52 -224z" />
<glyph unicode="&#x1af;" horiz-adv-x="1675" d="M154 573v820q0 41 32 41h240q25 0 32 -8.5t7 -32.5v-760q0 -82 6 -146q10 -125 82 -183t238 -58q29 0 94 3t119 13v1131q0 41 38 41h234q25 0 31 -8.5t6 -32.5v-113h20q45 0 73 12.5t42 39t18 64.5t4 91v112q0 27 11.5 33t29.5 6h148q20 0 28.5 -8t8.5 -31v-108 q0 -84 -10.5 -160t-46 -133t-105.5 -92t-188 -35h-33v-872q0 -63 -23.5 -110.5t-83.5 -72.5q-16 -10 -34.5 -12t-41.5 -6q-41 -6 -86 -10t-88 -7.5t-80.5 -4.5t-62.5 -1q-164 0 -282.5 25t-198.5 84t-123 158.5t-53 249.5q0 20 -1 39.5t-1 41.5z" />
<glyph unicode="&#x1b0;" horiz-adv-x="1470" d="M133 508v530q0 23 7 31t36 8h213q43 0 43 -39v-549q0 -68 8.5 -117.5t33 -83.5t69 -50.5t116.5 -16.5q20 0 58.5 2t81.5 8v807q0 23 7 31t36 8h211q43 0 43 -39v-106h18q43 0 69.5 12t41 38t18.5 64.5t4 90.5v114q0 27 11.5 33t29.5 6h150q20 0 28.5 -8t8.5 -31v-145 q0 -80 -15.5 -149.5t-55.5 -122t-106.5 -82t-169.5 -29.5h-32v-559q0 -70 -28 -111t-99 -57q-25 -4 -62 -8t-79 -7.5t-82.5 -4.5t-71.5 -1q-147 0 -251 29t-168.5 92.5t-93 164.5t-28.5 247z" />
<glyph unicode="&#x1fc;" horiz-adv-x="1894" d="M32 10q-9 10 1 31l377 1108q27 80 62.5 134t85.5 88t115.5 49.5t151.5 15.5h942q23 0 30 -8.5t7 -36.5v-183q0 -23 -7 -32t-30 -9h-483q-82 0 -109.5 -37.5t-27.5 -95.5v-151h559q23 0 30 -8.5t7 -36.5v-168q0 -23 -7 -33t-30 -10h-559v-228q0 -72 36 -100.5t101 -28.5 h508q23 0 30 -8t7 -37v-182q0 -23 -7 -33t-30 -10h-594q-94 0 -159.5 17.5t-107.5 54.5t-64.5 94t-28.5 135h-394l-86 -262q-6 -20 -16 -29.5t-37 -9.5h-248q-16 0 -25 10zM516 545h322v514q0 35 3 68.5t13 56.5q-84 0 -118 -28t-48 -71l-72 -217zM953.5 1636.5 q-1.5 8.5 15.5 22.5l331 258q12 10 22.5 14t27.5 -12l141 -162q12 -12 10 -23.5t-14 -15.5l-395 -202q-20 -10 -29.5 -7.5t-20.5 13.5l-77 94q-10 12 -11.5 20.5z" />
<glyph unicode="&#x1fd;" horiz-adv-x="1804" d="M92 311q0 76 24.5 140.5t75 111.5t128 75t186.5 28h233q4 14 6.5 27.5t2.5 23.5q2 145 -187 145q-63 0 -146 -10t-143 -27q-23 -4 -34 -1t-15 26l-33 145q-4 20 0.5 29.5t20.5 15.5q92 33 191.5 48.5t201.5 15.5q225 0 324 -117q61 59 143 88t170 29q236 0 355.5 -121 t119.5 -340q0 -104 -40 -141t-111 -39h-525q2 -74 21.5 -120t52.5 -71.5t77 -34t95 -8.5q59 0 120.5 14.5t115.5 35.5q23 10 33 8t18 -21l63 -147q8 -18 4 -28.5t-20 -20.5q-76 -49 -177.5 -71t-187.5 -22q-100 0 -183 21.5t-144 77.5q-90 -53 -200 -76t-202 -23 q-127 0 -211 28t-133 74t-69.5 106.5t-20.5 125.5zM399 334q0 -66 45 -94.5t127 -28.5q35 0 94.5 8t108.5 35q-37 92 -43 219h-158q-29 0 -59.5 -5t-56 -19.5t-42 -42t-16.5 -72.5zM815.5 1225.5q-2.5 9.5 3.5 25.5l144 357q10 29 25.5 28.5t37.5 -6.5l195 -51q33 -8 16 -37 l-240 -352q-12 -18 -21 -20.5t-26 1.5l-114 39q-18 6 -20.5 15.5zM1047 659h383q-2 35 -10.5 71t-29 64.5t-55.5 46t-88 17.5q-84 0 -138 -54t-62 -145z" />
<glyph unicode="&#x1fe;" horiz-adv-x="1495" d="M113 715q0 172 44 310t126 233.5t198.5 146.5t263.5 51q129 0 230.5 -33.5t179.5 -97.5l86 107q25 33 47 10l43 -35q12 -10 14.5 -19.5t-14.5 -25.5l-96 -119q74 -96 110.5 -227t36.5 -295q0 -176 -37.5 -313.5t-117.5 -233.5t-201 -146.5t-287 -50.5q-268 0 -420 140 l-90 -109q-14 -16 -22 -17t-19 9l-45 37q-14 10 -14 18t14 27l99 121q-129 186 -129 512zM438 727q0 -72 7.5 -133.5t25.5 -112.5l487 609q-35 41 -87 64.5t-123 23.5q-78 0 -136.5 -36t-97.5 -97.5t-57.5 -143.5t-18.5 -174zM522 362q37 -51 93.5 -77.5t138.5 -26.5 q88 0 146 38t93 100.5t49.5 145.5t14.5 173q-2 72 -10.5 139.5t-30.5 124.5zM622 1636.5q-1 8.5 15 22.5l332 258q12 10 22 14t27 -12l141 -162q12 -12 10 -23.5t-14 -15.5l-395 -202q-20 -10 -29.5 -7.5t-19.5 13.5l-78 94q-10 12 -11 20.5z" />
<glyph unicode="&#x1ff;" horiz-adv-x="1218" d="M92 539q0 131 36 236.5t102.5 177t161.5 110.5t216 39q219 0 350 -113l80 92q12 12 19.5 13.5t17.5 -9.5l31 -26q10 -10 11 -17.5t-9 -19.5l-88 -98q106 -143 106 -381q0 -270 -129 -418t-393 -148q-111 0 -195.5 27t-146.5 76l-82 -90q-20 -20 -35 -4l-30 26 q-12 10 -10.5 18.5t12.5 18.5l84 94q-57 72 -83 171.5t-26 224.5zM399 543q0 -92 19 -160l344 391q-47 76 -150 76q-109 0 -161 -83t-52 -224zM457 295q49 -66 149 -66q57 0 97 23.5t66 65.5t37 97.5t11 121.5q0 41 -3 76.5t-13 68.5zM494 1225.5q-2 9.5 4 25.5l143 357 q10 29 25.5 28.5t38.5 -6.5l194 -51q33 -8 16 -37l-239 -352q-12 -18 -21.5 -20.5t-25.5 1.5l-115 39q-18 6 -20 15.5z" />
<glyph unicode="&#x218;" horiz-adv-x="1228" d="M71 128.5q-3 12.5 7 39.5l69 164q10 25 22.5 29t35.5 -7q41 -16 90 -33.5t101.5 -31t106.5 -22.5t107 -9q63 0 106.5 12.5t70 32t37 45t10.5 53.5q0 31 -11.5 55.5t-37 48t-69.5 45t-110 46.5q-109 41 -196.5 84t-151 95t-97.5 116.5t-34 150.5t29.5 162t89 132.5 t151.5 89t217 32.5q57 0 120 -6t123.5 -18.5t115.5 -30t100 -39.5q25 -12 28 -23.5t-7 -42.5l-54 -153q-10 -29 -20 -33t-35 2q-96 29 -191.5 47.5t-179.5 18.5q-90 0 -126.5 -33t-36.5 -80q0 -27 12 -49.5t39.5 -44t74 -44t113.5 -48.5q104 -41 192.5 -83t151 -95.5 t98 -125t35.5 -171.5q0 -109 -38.5 -189t-108.5 -133t-169 -80t-218 -27q-66 0 -137.5 7.5t-142 23t-138.5 40t-125 58.5q-16 10 -19 22.5zM489 -606l29 407q0 16 8.5 28.5t34.5 12.5h207q29 0 36 -12t3 -29l-135 -403q-8 -23 -15.5 -32t-29.5 -9h-92q-49 0 -46 37z" />
<glyph unicode="&#x219;" horiz-adv-x="1017" d="M66.5 99.5q-3.5 11.5 7.5 31.5l59 141q10 23 21.5 28t33.5 -5q33 -14 74 -27.5t85 -24t85 -16.5t74 -6q74 0 103.5 25.5t29.5 64.5q0 41 -42 70t-144 68q-82 31 -144.5 63.5t-105.5 70.5t-65.5 86t-22.5 111q0 68 24.5 126.5t73.5 101.5t124 68.5t177 25.5 q92 0 187.5 -17.5t172.5 -52.5q23 -10 25 -21.5t-6 -35.5l-51 -131q-8 -23 -18.5 -26t-32.5 5q-76 23 -139.5 35t-131.5 12q-55 0 -79.5 -25.5t-24.5 -51.5q0 -41 38 -68t132 -61q74 -29 139.5 -59t113.5 -69.5t76.5 -95t28.5 -133.5q0 -166 -117.5 -248t-308.5 -82 q-106 0 -224 24t-208 77q-16 10 -19.5 21.5zM354 -606l29 407q0 16 8 28.5t35 12.5h207q29 0 36 -12t3 -29l-135 -403q-8 -23 -15.5 -32t-29.5 -9h-93q-49 0 -45 37z" />
<glyph unicode="&#x2c6;" horiz-adv-x="1200" d="M192 1246q1 9 11 26l268 280q29 29 59.5 46.5t61.5 17.5q45 0 73.5 -14.5t59.5 -49.5l272 -278q16 -16 15.5 -27.5t-17.5 -27.5l-59 -58q-14 -10 -25.5 -10t-31.5 14l-285 201l-275 -205q-16 -10 -27 -10t-28 14l-61 58q-12 14 -11 23z" />
<glyph unicode="&#x2c7;" horiz-adv-x="1189" d="M201 1509q-20 25 2 47l63 62q14 14 25.5 12t27.5 -14l273 -203l287 203q16 12 25 15t26 -11l71 -59q16 -14 13.5 -26.5t-19.5 -29.5l-295 -297q-16 -18 -41.5 -27.5t-54.5 -11.5q-33 -2 -64.5 8.5t-54.5 34.5z" />
<glyph unicode="&#x2d8;" horiz-adv-x="1173" d="M190.5 1434.5q-4.5 11.5 14.5 27.5l80 78q20 16 27 11t24 -17q66 -66 130 -102.5t124 -36.5q25 0 50.5 5t56 20.5t67.5 43t86 74.5q20 16 28.5 15t18.5 -11l78 -67q20 -18 17 -28.5t-9 -19.5q-186 -247 -405 -247q-61 0 -115.5 19.5t-103 53t-88.5 75.5t-72 89 q-4 6 -8.5 17.5z" />
<glyph unicode="&#x2d9;" horiz-adv-x="1136" d="M401 1378q0 70 50.5 119t119.5 49q68 0 118 -49t50 -119q0 -72 -50 -119t-118 -47q-70 0 -120 47.5t-50 118.5z" />
<glyph unicode="&#x2da;" horiz-adv-x="1157" d="M367 1407q0 51 19.5 96t53 77t80.5 50.5t101 18.5q53 0 99 -17.5t80 -50.5t53 -77t19 -97t-19 -97t-53 -77t-80 -50.5t-99 -17.5q-109 0 -181.5 66.5t-72.5 175.5zM520 1407q0 -47 27.5 -74.5t73.5 -27.5q41 0 69.5 27.5t28.5 74.5q0 43 -28.5 71.5t-69.5 28.5 q-45 0 -73 -28.5t-28 -71.5z" />
<glyph unicode="&#x2db;" horiz-adv-x="1007" d="M287 -285q0 39 14 83t41 88t63.5 83t81.5 68q10 6 15.5 9t15.5 3l119 4q16 -2 17 -9t-9 -17q-78 -74 -110.5 -134.5t-32.5 -107.5q0 -82 108 -82q20 0 55 3t64 9q18 4 27.5 2t13.5 -18l21 -76q6 -18 -0.5 -27.5t-16.5 -15.5q-61 -25 -128.5 -35t-127.5 -10 q-123 0 -176 52.5t-55 127.5z" />
<glyph unicode="&#x2dc;" horiz-adv-x="1189" d="M202 1290q-1 10 7 27q39 78 95 126t149 48q39 0 73.5 -13.5t68.5 -28.5t66.5 -27.5t65.5 -12.5t54.5 15.5t41.5 50.5q12 23 18.5 24.5t24.5 -4.5l103 -35q20 -6 22 -15t-6 -30q-39 -86 -95.5 -142t-148.5 -56q-37 0 -73.5 13t-71.5 28.5t-69.5 28.5t-71.5 13 q-55 0 -97 -63q-12 -18 -21 -23.5t-26 5.5l-90 51q-18 10 -19 20z" />
<glyph unicode="&#x2dd;" horiz-adv-x="1169" d="M276.5 1224.5q-2.5 10.5 4.5 26.5l141 357q14 33 45 24l209 -53q33 -8 14 -37l-237 -352q-12 -18 -21.5 -20.5t-25.5 1.5q-29 10 -54.5 19.5t-54.5 19.5q-18 4 -20.5 14.5zM618.5 1224.5q-2.5 10.5 4.5 26.5l141 357q14 33 45 24l209 -53q33 -8 14 -37l-237 -352 q-12 -18 -21.5 -20.5t-25.5 1.5q-29 10 -54.5 19.5t-54.5 19.5q-18 4 -20.5 14.5z" />
<glyph unicode="&#x401;" horiz-adv-x="1255" d="M154 377v680q0 74 20.5 141.5t64.5 120.5t115.5 85t175.5 32h588q25 0 32 -10.5t7 -39.5v-174q0 -27 -8 -36t-31 -9h-520q-80 0 -106.5 -36.5t-26.5 -90.5v-157h588q25 0 32 -10.5t7 -38.5v-160q0 -25 -7.5 -36t-31.5 -11h-588v-234q0 -72 33.5 -97.5t99.5 -25.5h541 q27 0 34 -9t7 -40v-174q0 -25 -8.5 -36t-32.5 -11h-607q-115 0 -187.5 33t-115.5 86t-59 120.5t-16 137.5zM346 1673q0 31 12.5 58.5t34 48t48 33t57.5 12.5t58.5 -12.5t49 -33t33.5 -48t12 -58.5t-12 -57.5t-33.5 -47t-49.5 -32.5t-58 -12q-31 0 -57.5 12t-48 32.5t-34 47 t-12.5 57.5zM766 1673q0 61 46 106.5t108 45.5q31 0 57.5 -12.5t48 -33t33.5 -48t12 -58.5t-12 -57.5t-33.5 -47t-48.5 -32.5t-57 -12q-31 0 -58.5 12t-49 32.5t-34 47t-12.5 57.5z" />
<glyph unicode="&#x402;" horiz-adv-x="1650" d="M25 1208v183q0 27 8 35t30 8h1123q23 0 31 -7.5t8 -35.5v-183q0 -41 -39 -41h-461v-278q84 23 173 36t171 13q111 0 202 -33t156.5 -96.5t101.5 -159.5t36 -221q0 -80 -18.5 -165t-56.5 -165t-98.5 -151.5t-142.5 -126.5q-23 -12 -33 -12.5t-26 18.5l-113 127 q-20 27 2 51q96 86 140.5 190.5t44.5 227.5q0 121 -65.5 191.5t-197.5 70.5q-72 0 -139 -12.5t-137 -34.5v-598q0 -23 -7 -31t-36 -8h-229q-43 0 -43 39v1128h-347q-39 0 -38 41z" />
<glyph unicode="&#x403;" horiz-adv-x="1179" d="M154 43v1014q0 74 19.5 141.5t63.5 120.5t115.5 85t177.5 32h590q27 0 34 -10.5t7 -39.5v-174q0 -27 -8 -36t-33 -9h-522q-80 0 -106.5 -35.5t-26.5 -91.5v-997q0 -29 -8 -36t-39 -7h-217q-25 0 -36 9t-11 34zM480.5 1636.5q-1.5 8.5 15.5 22.5l331 258q12 10 22.5 14 t27.5 -12l141 -162q12 -12 10 -23.5t-14 -15.5l-396 -202q-20 -10 -29 -7.5t-20 13.5l-77 94q-10 12 -11.5 20.5z" />
<glyph unicode="&#x404;" horiz-adv-x="1316" d="M113 713q0 166 48 303t134 234.5t208 150.5t269 53q104 0 204.5 -17.5t197.5 -70.5q23 -12 26.5 -24.5t-10.5 -47.5l-64 -141q-10 -29 -21 -35t-40 4q-74 27 -137.5 40.5t-141.5 13.5q-135 0 -220 -85t-109 -223h471q23 0 31 -8t8 -31v-174q0 -25 -8.5 -31t-30.5 -6h-484 q6 -82 29 -148.5t64 -112.5t104.5 -71.5t153.5 -25.5q98 0 173.5 23.5t141.5 48.5q29 12 41 5t23 -30l69 -147q14 -29 10 -43.5t-22 -24.5q-111 -68 -232.5 -91.5t-240.5 -23.5q-168 0 -290 51.5t-201 146.5t-116.5 231.5t-37.5 306.5z" />
<glyph unicode="&#x405;" horiz-adv-x="1228" d="M71 128.5q-3 12.5 7 39.5l69 164q10 25 22.5 29t35.5 -7q41 -16 90 -33.5t101.5 -31t106.5 -22.5t107 -9q63 0 106.5 12.5t70 32t37 45t10.5 53.5q0 31 -11.5 55.5t-37 48t-69.5 45t-110 46.5q-109 41 -196.5 84t-151 95t-97.5 116.5t-34 150.5t29.5 162t89 132.5 t151.5 89t217 32.5q57 0 120 -6t123.5 -18.5t115.5 -30t100 -39.5q25 -12 28 -23.5t-7 -42.5l-54 -153q-10 -29 -20 -33t-35 2q-96 29 -191.5 47.5t-179.5 18.5q-90 0 -126.5 -33t-36.5 -80q0 -27 12 -49.5t39.5 -44t74 -44t113.5 -48.5q104 -41 192.5 -83t151 -95.5 t98 -125t35.5 -171.5q0 -109 -38.5 -189t-108.5 -133t-169 -80t-218 -27q-66 0 -137.5 7.5t-142 23t-138.5 40t-125 58.5q-16 10 -19 22.5z" />
<glyph unicode="&#x406;" horiz-adv-x="673" d="M180 43v1348q0 25 11.5 34t35.5 9h217q31 0 40.5 -8.5t9.5 -34.5v-1348q0 -27 -9.5 -35t-40.5 -8h-217q-25 0 -36 9t-11 34z" />
<glyph unicode="&#x407;" horiz-adv-x="673" d="M-33 1679q0 31 12.5 58.5t34 48t48 33t57.5 12.5t58.5 -12.5t49 -33t33.5 -48t12 -58.5t-12 -57.5t-33.5 -47t-49 -32.5t-58.5 -12t-57.5 12t-48 32.5t-34 47.5t-12.5 57zM180 43v1348q0 25 11.5 34t35.5 9h217q31 0 40.5 -8.5t9.5 -34.5v-1348q0 -27 -9.5 -35t-40.5 -8 h-217q-25 0 -36 9t-11 34zM387 1679q0 61 46 106.5t108 45.5q31 0 57.5 -12.5t48 -33t33.5 -48t12 -58.5t-12 -57.5t-33.5 -47t-48.5 -32.5t-57 -12q-31 0 -58.5 12t-49 32.5t-34 47.5t-12.5 57z" />
<glyph unicode="&#x408;" horiz-adv-x="1208" d="M17.5 100.5q-3.5 8.5 9.5 36.5l73 168q10 23 19.5 24t30.5 -7q70 -29 151.5 -47.5t163.5 -18.5q86 0 139 24.5t84 70.5t41 110.5t10 142.5v789q0 29 12.5 35t34.5 6h218q27 0 37 -6.5t10 -34.5v-840q0 -133 -30 -238.5t-95.5 -181.5t-171.5 -116t-262 -40 q-43 0 -101.5 5.5t-121 17.5t-123 32.5t-109.5 49.5q-16 10 -19.5 18.5z" />
<glyph unicode="&#x409;" horiz-adv-x="2123" d="M21 169.5q4 16.5 26 27.5q80 39 128 92t76 141t41 222t25 333l19 313q4 72 30.5 105t100.5 33h629q74 0 102.5 -34t28.5 -106v-381h301q182 0 286.5 -52t155.5 -125.5t63.5 -151.5t12.5 -129q0 -98 -38 -182.5t-104.5 -144.5t-155.5 -95t-192 -35h-518q-74 0 -98.5 29.5 t-24.5 95.5v1038h-292l-9 -143q-16 -227 -32.5 -403.5t-59.5 -306.5t-128 -217t-236 -136q-23 -8 -38.5 -4t-25.5 29l-69 153q-8 18 -4 34.5zM1227 274h297q57 0 96 19.5t62.5 48.5t32.5 62.5t9 62.5q0 82 -50 135t-146 53h-301v-381z" />
<glyph unicode="&#x40a;" horiz-adv-x="2154" d="M154 39v1356q0 39 43 39h227q29 0 36 -8.5t7 -30.5v-494h477v496q0 39 43 39h227q29 0 36 -8.5t7 -30.5v-492h299q123 0 209 -23.5t143.5 -62.5t91.5 -89t51 -100t21.5 -97.5t4.5 -81.5q0 -98 -38 -180.5t-104.5 -142.5t-155.5 -94t-192 -34h-518q-74 0 -98.5 29.5 t-24.5 95.5q0 16 -1 83.5t-1 149.5v162v123h-477v-604q0 -23 -7 -31t-36 -8h-227q-43 0 -43 39zM1257 274h297q57 0 96.5 18.5t63 47.5t32.5 61.5t9 61.5q0 82 -50 132t-149 50h-299v-371z" />
<glyph unicode="&#x40b;" horiz-adv-x="1638" d="M25 1208v183q0 27 8 35t30 8h1117q23 0 31 -8.5t8 -34.5v-183q0 -41 -39 -41h-455v-278q78 18 165 32.5t185 14.5q231 0 346 -120t115 -345v-420q0 -33 -12.5 -42t-42.5 -9h-201q-55 0 -55 51v400q0 51 -12.5 94t-40 73.5t-72.5 48t-113 17.5q-55 0 -125.5 -13.5 t-136.5 -35.5v-596q0 -23 -7 -31t-36 -8h-227q-43 0 -43 39v1128h-349q-39 0 -38 41z" />
<glyph unicode="&#x40c;" horiz-adv-x="1380" d="M154 33v1368q0 23 9 28t27 5h240q20 0 28.5 -5.5t4.5 -27.5v-522h164q31 0 64.5 5t66.5 23.5t60.5 55t43.5 100.5l92 346q4 20 17.5 24.5t23.5 4.5h230q27 0 29.5 -15.5t-1.5 -25.5l-94 -367q-41 -176 -174 -256v-10q53 -18 88 -42t57.5 -54.5t36 -68.5t25.5 -83 l127 -475q4 -10 1 -25.5t-30 -15.5h-237q-10 0 -22.5 4t-18.5 25l-125 440q-16 53 -38 87t-52.5 52.5t-71.5 25.5t-94 7h-168l2 -608q0 -23 -8 -28t-29 -5h-238q-18 0 -27 5t-9 28zM507 1642.5q-1 8.5 15 22.5l332 258q12 10 22.5 14.5t26.5 -12.5l141 -162q12 -12 10.5 -23 t-14.5 -16l-395 -202q-20 -10 -29.5 -7t-19.5 13l-78 94q-10 12 -11 20.5z" />
<glyph unicode="&#x40e;" horiz-adv-x="1241" d="M31 1401q-10 20 0 29.5t28 9.5h238q35 0 47 -8.5t21 -32.5l151 -416l115 -338h14l109 354l129 398q10 27 20 35t43 8h248q39 0 25 -35l-420 -1165q-29 -78 -65 -131.5t-84 -85t-109.5 -46t-141.5 -14.5q-41 0 -92 6t-104 23q-27 8 -34 15t-3 30l33 170q4 23 14 24.5 t33 -2.5q35 -4 60.5 -6t51.5 -2q35 0 60.5 3t46 14.5t35 31t26.5 54.5l33 92h-53q-49 0 -70.5 16.5t-44.5 71.5zM235.5 1748q-4.5 11 14.5 28l80 77q20 16 27.5 11.5t23.5 -17.5q66 -66 130 -102.5t124 -36.5q25 0 50.5 5t56 20.5t67.5 43t86 74.5q20 16 28.5 15.5 t18.5 -11.5l78 -67q20 -18 17 -28.5t-9 -18.5q-186 -248 -405 -248q-61 0 -115.5 19.5t-103 53t-88.5 75.5t-72 90q-4 6 -8.5 17z" />
<glyph unicode="&#x40f;" horiz-adv-x="1484" d="M154 137v1258q0 39 43 39h225q29 0 36 -7.5t7 -31.5v-1127h555v1127q0 39 41 39h225q29 0 37 -7.5t8 -31.5v-1258q0 -70 -28.5 -103.5t-102.5 -33.5h-309l-14 -307q0 -39 -39 -39h-174q-23 0 -31 9t-10 32q0 20 -2.5 63t-5.5 90.5t-5 89.5t-4 62h-321q-72 0 -101.5 34 t-29.5 103z" />
<glyph unicode="&#x410;" horiz-adv-x="1341" d="M29 41l426 1284q10 35 23.5 56.5t30.5 33.5t40.5 17.5t54.5 5.5h123q35 0 59.5 -3t43 -15.5t31.5 -35t26 -59.5l426 -1284q4 -12 0 -26.5t-27 -14.5h-244q-23 0 -38 5t-21 28l-80 266h-469l-80 -260q-6 -20 -17 -29.5t-40 -9.5h-240q-23 0 -27.5 12.5t-0.5 28.5zM508 553 h321l-77 260l-76 293h-12l-78 -293z" />
<glyph unicode="&#x411;" horiz-adv-x="1361" d="M154 123v1171q0 72 28.5 106t102.5 34h798q23 0 30 -9.5t7 -35.5v-183q0 -23 -7 -31t-30 -8h-618v-254h299q121 0 207 -24.5t144.5 -64.5t92 -90t50 -101t21.5 -99.5t5 -82.5q0 -98 -38 -180.5t-104.5 -142.5t-155.5 -94t-193 -34h-517q-76 0 -99 28.5t-23 94.5zM465 272 h297q57 0 96 19.5t61.5 48.5t32 63.5t9.5 63.5q0 80 -50.5 133t-146.5 53h-299v-381z" />
<glyph unicode="&#x412;" horiz-adv-x="1392" d="M154 125v1184q0 66 24.5 96.5t97.5 30.5h502q92 0 173 -20.5t140.5 -64.5t93.5 -113t34 -165q0 -86 -44.5 -160.5t-113.5 -113.5v-15q57 -23 99 -60.5t68.5 -83.5t39 -99.5t12.5 -104.5q0 -98 -38 -178t-104.5 -137.5t-155.5 -89t-191 -31.5h-515q-74 0 -98 29.5 t-24 95.5zM465 274h295q57 0 96 17.5t61.5 44t31.5 59.5t9 62q0 82 -50 133t-148 51h-295v-367zM465 891h278q25 0 52.5 6t50 21.5t37 43t14.5 70.5q0 61 -39 96t-104 35h-289v-272z" />
<glyph unicode="&#x413;" horiz-adv-x="1179" d="M154 43v1014q0 74 19.5 141.5t63.5 120.5t115.5 85t177.5 32h590q27 0 34 -10.5t7 -39.5v-174q0 -27 -8 -36t-33 -9h-522q-80 0 -106.5 -35.5t-26.5 -91.5v-997q0 -29 -8 -36t-39 -7h-217q-25 0 -36 9t-11 34z" />
<glyph unicode="&#x414;" horiz-adv-x="1599" d="M27 160q0 41 14 66.5t61 35.5l74 6q41 41 67.5 88t42 99.5t24.5 105.5t16 107l71 567q6 45 13.5 82t25 62.5t48 40t79.5 14.5h674q80 0 107.5 -34t27.5 -104v-1028l86 -6q47 -4 62.5 -25.5t13.5 -54.5l-27 -479q-2 -20 -9 -30.5t-28 -10.5h-176q-39 0 -39 43l-10 295 h-923q-4 -74 -10.5 -147.5t-12.5 -147.5q-2 -43 -45 -43h-166q-35 0 -39 41zM526 266h535v897h-379q-25 -219 -43 -370.5t-35.5 -255t-36 -167t-41.5 -104.5z" />
<glyph unicode="&#x415;" horiz-adv-x="1255" d="M154 377v680q0 74 20.5 141.5t64.5 120.5t115.5 85t175.5 32h588q25 0 32 -10.5t7 -39.5v-174q0 -27 -8 -36t-31 -9h-520q-80 0 -106.5 -36.5t-26.5 -90.5v-157h588q25 0 32 -10.5t7 -38.5v-160q0 -25 -7.5 -36t-31.5 -11h-588v-234q0 -72 33.5 -97.5t99.5 -25.5h541 q27 0 34 -9t7 -40v-174q0 -25 -8.5 -36t-32.5 -11h-607q-115 0 -187.5 33t-115.5 86t-59 120.5t-16 137.5z" />
<glyph unicode="&#x416;" horiz-adv-x="2072" d="M52 15.5q-3 15.5 1 25.5l127 475q12 41 25.5 79t36 69.5t57.5 56t88 43.5v10q-72 37 -111.5 103.5t-60.5 152.5l-94 367q-4 10 -1 25.5t30 15.5h229q10 0 23.5 -4t17.5 -25l92 -346q16 -63 42 -100t55.5 -55.5t62.5 -23.5t63 -5h148v522q-4 23 4 28t28 5h238 q18 0 27.5 -5.5t9.5 -27.5v-522h145q31 0 64 5t62.5 23.5t55 55t42.5 100.5l92 346q4 20 17 24.5t24 4.5h231q27 0 30 -15.5t-1 -25.5l-92 -367q-41 -176 -174 -256v-10q53 -18 87.5 -42t57 -54.5t36 -68.5t25.5 -83l127 -475q4 -10 1 -25.5t-29 -15.5h-246q-10 0 -22.5 4 t-18.5 25l-119 440q-16 53 -35.5 87t-48 52.5t-68.5 25.5t-94 7h-149v-608q0 -23 -9.5 -28t-27.5 -5h-233q-20 0 -28.5 5t-8.5 28v608h-150q-53 0 -93 -7t-69.5 -25.5t-50 -52.5t-35.5 -87l-118 -440q-6 -20 -18.5 -24.5t-22.5 -4.5h-244q-27 0 -30 15.5z" />
<glyph unicode="&#x417;" horiz-adv-x="1284" d="M42 121.5q-3 13.5 11 42.5l74 145q10 23 22.5 30t43.5 -5q37 -16 81.5 -30.5t94 -26t99.5 -18.5t97 -7q152 0 224.5 58.5t72.5 152.5q0 70 -59.5 120t-196.5 54h-98q-43 0 -62.5 12.5t-19.5 59.5v90q0 41 15.5 59.5t56.5 18.5h114q104 2 158.5 46t54.5 117 q0 76 -63.5 110t-157.5 34q-88 0 -176 -20.5t-164 -49.5q-35 -12 -47 -5t-22 36l-54 133q-16 35 -13 46t28 28q92 53 221 79.5t256 26.5q98 0 192.5 -19.5t166 -64.5t115.5 -115.5t44 -175.5q0 -98 -57.5 -183t-155.5 -130v-10q117 -35 184.5 -125t67.5 -201 q0 -106 -46 -190t-126 -142.5t-188.5 -90t-231.5 -34.5q-59 0 -129 6.5t-141.5 19.5t-140 35.5t-124.5 57.5q-18 12 -21 25.5z" />
<glyph unicode="&#x418;" horiz-adv-x="1521" d="M154 141v1256q0 39 43 39h219q29 0 36 -8.5t7 -30.5v-922h12l174 287l354 581q18 29 33 47.5t31 29t36.5 13.5t51.5 3h84q76 0 104.5 -32t28.5 -112v-1253q0 -39 -43 -39h-219q-29 0 -37 8t-8 31v919h-10l-183 -307l-346 -561q-18 -29 -32.5 -46t-31 -27.5t-38 -13.5 t-51.5 -3h-82q-80 0 -106.5 38t-26.5 103z" />
<glyph unicode="&#x419;" horiz-adv-x="1521" d="M154 141v1256q0 39 43 39h219q29 0 36 -8.5t7 -30.5v-922h12l174 287l354 581q18 29 33 47.5t31 29t36.5 13.5t51.5 3h84q76 0 104.5 -32t28.5 -112v-1253q0 -39 -43 -39h-219q-29 0 -37 8t-8 31v919h-10l-183 -307l-346 -561q-18 -29 -32.5 -46t-31 -27.5t-38 -13.5 t-51.5 -3h-82q-80 0 -106.5 38t-26.5 103zM362.5 1741.5q-4.5 11.5 14.5 27.5l80 78q20 16 27.5 11t23.5 -17q66 -66 130 -102.5t124 -36.5q25 0 50.5 5t56 20.5t67.5 43t86 74.5q20 16 28.5 15.5t18.5 -11.5l78 -67q20 -18 17 -28.5t-9 -18.5q-186 -248 -405 -248 q-61 0 -115.5 19.5t-103 53t-88.5 75.5t-72 89q-4 6 -8.5 17.5z" />
<glyph unicode="&#x41a;" horiz-adv-x="1380" d="M154 33v1368q0 23 9 28t27 5h240q20 0 28.5 -5.5t4.5 -27.5v-522h164q31 0 64.5 5t66.5 23.5t60.5 55t43.5 100.5l92 346q4 20 17.5 24.5t23.5 4.5h230q27 0 29.5 -15.5t-1.5 -25.5l-94 -367q-41 -176 -174 -256v-10q53 -18 88 -42t57.5 -54.5t36 -68.5t25.5 -83 l127 -475q4 -10 1 -25.5t-30 -15.5h-237q-10 0 -22.5 4t-18.5 25l-125 440q-16 53 -38 87t-52.5 52.5t-71.5 25.5t-94 7h-168l2 -608q0 -23 -8 -28t-29 -5h-238q-18 0 -27 5t-9 28z" />
<glyph unicode="&#x41b;" horiz-adv-x="1488" d="M21 169.5q4 16.5 26 27.5q80 39 128 92t76 141t41 222t25 333l19 311q4 72 30.5 105t100.5 33h735q74 0 102.5 -34t28.5 -104v-1259q0 -23 -7 -30t-36 -7h-227q-23 0 -32 7t-9 30v1126h-399l-9 -143q-16 -227 -32.5 -403.5t-59.5 -306.5t-128 -217t-236 -136 q-23 -8 -38.5 -4t-25.5 29l-69 153q-8 18 -4 34.5z" />
<glyph unicode="&#x41c;" horiz-adv-x="1781" d="M154 41v1251q0 78 29.5 111t101.5 33h118q57 0 85 -21.5t53 -75.5l223 -499l127 -291h8l139 319l209 467q25 55 54.5 78t95.5 23h100q66 0 98.5 -28t32.5 -105v-1262q0 -29 -10 -35t-37 -6h-203q-23 0 -34 6t-11 35v784h-12l-84 -190l-170 -377q-23 -53 -46.5 -71.5 t-70.5 -18.5h-112q-51 0 -70.5 18.5t-44.5 71.5l-127 266l-127 277h-12v-760q0 -29 -10.5 -35t-36.5 -6h-209q-23 0 -35 6t-12 35z" />
<glyph unicode="&#x41d;" horiz-adv-x="1486" d="M154 43v1348q0 25 11 34t36 9h217q31 0 40 -8.5t9 -34.5v-510h555v510q0 25 10 34t37 9h215q31 0 40 -8.5t9 -34.5v-1348q0 -27 -9 -35t-40 -8h-215q-27 0 -37 9t-10 34v573h-555v-573q0 -27 -9 -35t-40 -8h-217q-25 0 -36 9t-11 34z" />
<glyph unicode="&#x41e;" horiz-adv-x="1495" d="M113 715q0 172 44 310t126 233.5t198.5 146.5t263.5 51q160 0 280 -51t199 -146.5t118.5 -231.5t39.5 -306q0 -176 -37.5 -313.5t-117.5 -233.5t-201 -146.5t-287 -50.5q-317 0 -471.5 192.5t-154.5 545.5zM438 727q0 -109 15.5 -195t51.5 -147t95 -94t150 -33 q88 0 147 38t94 100.5t50.5 145.5t15.5 173q0 92 -13.5 176t-48 147.5t-94 101.5t-153.5 38q-78 0 -136.5 -36t-97.5 -97.5t-57.5 -143.5t-18.5 -174z" />
<glyph unicode="&#x41f;" horiz-adv-x="1484" d="M154 39v1257q0 72 29.5 106t101.5 34h915q74 0 102.5 -34t28.5 -106v-1257q0 -23 -8 -31t-37 -8h-223q-43 0 -43 39v1124h-553v-1124q0 -23 -8 -31t-37 -8h-225q-43 0 -43 39z" />
<glyph unicode="&#x420;" horiz-adv-x="1318" d="M154 43v1268q0 57 24.5 91t97.5 34h502q111 0 200 -34t151.5 -93.5t95 -141.5t32.5 -180q0 -53 -16 -132t-70.5 -153.5t-158 -128t-275.5 -53.5h-272v-477q0 -29 -9.5 -36t-39.5 -7h-215q-25 0 -36 9t-11 34zM465 772h268q104 0 153.5 56.5t49.5 138.5q0 29 -8 62.5 t-32 63t-63.5 49t-101.5 19.5h-266v-389z" />
<glyph unicode="&#x421;" horiz-adv-x="1316" d="M113 709q0 168 48 305t134 235.5t208 151.5t269 53q104 0 204.5 -17.5t197.5 -70.5q23 -12 26.5 -24.5t-10.5 -47.5l-64 -141q-10 -29 -21 -35t-40 4q-74 27 -137.5 40.5t-141.5 13.5q-84 0 -148.5 -36t-108.5 -98.5t-66.5 -147.5t-22.5 -185t17.5 -182.5t59.5 -141.5 t110 -92t168 -33q98 0 173.5 23.5t141.5 48.5q29 12 41 5t23 -30l69 -147q14 -29 10 -43.5t-22 -24.5q-111 -68 -232.5 -91.5t-240.5 -23.5q-168 0 -290 50.5t-201 144.5t-116.5 230.5t-37.5 306.5z" />
<glyph unicode="&#x422;" horiz-adv-x="1175" d="M25 1208v183q0 27 8 35t30 8h1049q25 0 33 -8.5t8 -34.5v-183q0 -41 -41 -41h-371v-1124q0 -27 -9 -35t-40 -8h-219q-25 0 -36 9t-11 34v1124h-363q-39 0 -38 41z" />
<glyph unicode="&#x423;" horiz-adv-x="1241" d="M31 1401q-10 20 0 29.5t28 9.5h238q35 0 47 -8.5t21 -32.5l151 -416l115 -338h14l109 354l129 398q10 27 20 35t43 8h248q39 0 25 -35l-420 -1165q-29 -78 -65 -131.5t-84 -85t-109.5 -46t-141.5 -14.5q-41 0 -92 6t-104 23q-27 8 -34 15t-3 30l33 170q4 23 14 24.5 t33 -2.5q35 -4 60.5 -6t51.5 -2q35 0 60.5 3t46 14.5t35 31t26.5 54.5l33 92h-53q-49 0 -70.5 16.5t-44.5 71.5z" />
<glyph unicode="&#x424;" horiz-adv-x="1777" d="M111 725q0 125 44 232.5t124.5 188.5t194.5 134t253 72v43q0 39 43 39h225q29 0 36 -8.5t7 -30.5v-43q303 -35 466 -195t163 -424q0 -131 -45 -239.5t-127 -188.5t-197.5 -130t-259.5 -64v-72q0 -23 -7 -31t-36 -8h-225q-43 0 -43 39v74q-301 29 -458.5 188.5 t-157.5 423.5zM416 733q0 -72 17.5 -135t54 -113.5t96 -84t143.5 -46.5v752q-78 -12 -136.5 -49t-97 -88t-58 -112.5t-19.5 -123.5zM1036 354q88 14 151.5 50t102.5 88.5t57.5 114.5t18.5 128q0 63 -17.5 125t-56.5 112t-101.5 87t-154.5 49v-754z" />
<glyph unicode="&#x425;" horiz-adv-x="1265" d="M17.5 13.5q-5.5 13.5 2.5 27.5l437 704l-400 652q-10 12 -4 25.5t29 13.5h240q41 0 56 -8.5t32 -36.5l225 -400l223 400q16 29 31.5 37t56.5 8h236q23 0 27.5 -13.5t-5.5 -27.5l-395 -647l436 -707q8 -14 2 -27.5t-22 -13.5h-256q-37 0 -54.5 9t-33.5 38l-250 445 l-248 -445q-18 -29 -34.5 -38t-55.5 -9h-252q-18 0 -23.5 13.5z" />
<glyph unicode="&#x426;" horiz-adv-x="1564" d="M154 137v1260q0 39 43 39h225q29 0 37 -8.5t8 -30.5v-1129h553v1129q0 39 41 39h225q29 0 37 -8.5t8 -30.5v-1123l103 -10q55 -4 67 -28.5t10 -61.5l-22 -473q-4 -41 -39 -41h-172q-39 0 -41 43l-12 297h-940q-72 0 -101.5 34t-29.5 103z" />
<glyph unicode="&#x427;" horiz-adv-x="1370" d="M84 997v400q0 39 43 39h225q27 0 35 -8.5t8 -30.5v-369q0 -145 75 -206.5t232 -61.5q49 0 101.5 4t101.5 14v619q0 23 9.5 31t33.5 8h223q29 0 37.5 -8.5t8.5 -30.5v-1358q0 -23 -8.5 -31t-37.5 -8h-223q-25 0 -34 8t-9 31v465q-59 -10 -121.5 -14.5t-121.5 -4.5 q-160 0 -270.5 36t-178.5 102.5t-98.5 161t-30.5 212.5z" />
<glyph unicode="&#x428;" horiz-adv-x="2072" d="M154 137v1260q0 39 43 39h229q29 0 36 -8.5t7 -30.5v-1127h416v1127q0 39 43 39h223q29 0 37 -8.5t8 -30.5v-1127h412v1127q0 23 7 31t36 8h227q41 0 41 -39v-1260q0 -70 -28.5 -103.5t-98.5 -33.5h-1511q-70 0 -98.5 34t-28.5 103z" />
<glyph unicode="&#x429;" horiz-adv-x="2152" d="M154 137v1260q0 39 43 39h229q29 0 36 -8.5t7 -30.5v-1129h416v1129q0 39 43 39h223q29 0 37 -8.5t8 -30.5v-1129h412v1129q0 39 41 39h227q29 0 36 -8.5t7 -30.5v-1123l102 -8q53 -4 66.5 -28.5t11.5 -63.5l-22 -473q-2 -39 -39 -39h-172q-23 0 -31 9.5t-10 31.5 l-13 297h-1531q-70 0 -98.5 34t-28.5 103z" />
<glyph unicode="&#x42a;" horiz-adv-x="1726" d="M23 1208v183q0 29 6 36t30 7h641q74 0 104 -34t30 -102v-383h299q121 0 206.5 -24.5t143 -63.5t90.5 -89t50 -101t21.5 -98t4.5 -82q0 -98 -38 -182.5t-104.5 -144.5t-155.5 -95t-192 -35h-516q-74 0 -98.5 29.5t-24.5 95.5v1044h-461q-23 0 -29.5 8.5t-6.5 30.5z M834 274h294q57 0 96.5 19.5t62 48.5t31.5 62.5t9 62.5q0 82 -50 135t-147 53h-296v-381z" />
<glyph unicode="&#x42b;" horiz-adv-x="1884" d="M154 125v1272q0 39 41 39h227q29 0 36 -8.5t7 -30.5v-482h301q182 0 286.5 -52t156 -125.5t63.5 -151.5t12 -129q0 -98 -38 -182.5t-104.5 -144.5t-155.5 -95t-191 -35h-519q-74 0 -98 29.5t-24 95.5zM465 274h297q57 0 96 19.5t62.5 48.5t33 62.5t9.5 62.5 q0 82 -50.5 135t-148.5 53h-299v-381zM1417 39v1356q0 39 43 39h228q29 0 36 -8.5t7 -30.5v-1356q0 -23 -7.5 -31t-35.5 -8h-228q-43 0 -43 39z" />
<glyph unicode="&#x42c;" horiz-adv-x="1361" d="M154 125v1272q0 39 41 39h227q29 0 36 -8.5t7 -30.5v-482h301q182 0 286.5 -52t156 -125.5t63.5 -151.5t12 -129q0 -98 -38 -182.5t-104.5 -144.5t-155.5 -95t-191 -35h-519q-74 0 -98 29.5t-24 95.5zM465 274h297q57 0 96 19.5t62.5 48.5t33 62.5t9.5 62.5 q0 82 -50.5 135t-148.5 53h-299v-381z" />
<glyph unicode="&#x42d;" horiz-adv-x="1320" d="M61.5 116.5q-4.5 14.5 10.5 43.5l69 147q10 23 22.5 30t41.5 -5q68 -25 145.5 -48.5t175.5 -23.5q88 0 149.5 25.5t103.5 71.5t64.5 113t30.5 148h-481q-23 0 -31 7.5t-8 29.5v174q0 25 8.5 33t30.5 8h477q-16 147 -99 226.5t-224 79.5q-78 0 -143.5 -13.5t-139.5 -40.5 q-29 -10 -41 -4t-22 35l-56 141q-14 35 -11 47.5t28 24.5q96 49 202.5 68.5t210.5 19.5q303 0 468 -181t165 -523q0 -174 -39 -316.5t-117.5 -244t-200.5 -157t-288 -55.5q-121 0 -244.5 24t-234.5 91q-18 10 -22.5 24.5z" />
<glyph unicode="&#x42e;" horiz-adv-x="2009" d="M154 39v1356q0 39 43 39h223q29 0 37 -8.5t8 -30.5v-516h219q18 131 67.5 237.5t126 182t180 116.5t230.5 41q152 0 266.5 -53t190.5 -150.5t113.5 -233.5t37.5 -302q0 -168 -37.5 -304.5t-114.5 -233.5t-192.5 -149.5t-273.5 -52.5q-152 0 -260.5 49.5t-181 135.5 t-110.5 202.5t-48 251.5h-213v-577q0 -23 -8 -31t-37 -8h-223q-43 0 -43 39zM991 723q0 -104 16.5 -190.5t51.5 -147.5t92 -95t137 -34t135.5 36t89 98.5t49 146.5t15.5 180q0 98 -13.5 182t-47 145.5t-89 96.5t-139.5 35q-76 0 -131 -34t-92 -94.5t-55.5 -143.5t-18.5 -181 z" />
<glyph unicode="&#x42f;" horiz-adv-x="1382" d="M68 23q0 8 4 24l104 397q18 78 57 131.5t129 79.5v4q-121 41 -174 137.5t-53 213.5q0 94 32 172t91 134t147.5 87t198.5 31h500q74 0 98.5 -32t24.5 -93v-1274q0 -23 -10.5 -29t-32.5 -6h-228q-29 0 -37 6t-8 29v545h-190q-94 0 -145.5 -39t-77.5 -140q-8 -29 -20.5 -78 t-27 -102t-26.5 -102t-18 -78q-8 -31 -34 -36t-48 -5h-226q-31 0 -30 23zM455 995q0 -74 46 -119t138 -45h272v328h-278q-53 0 -88 -15.5t-54.5 -40t-27.5 -53t-8 -55.5z" />
<glyph unicode="&#x430;" horiz-adv-x="1179" d="M92 319q0 80 26.5 146.5t80 116t134.5 77t191 27.5h226v33q0 29 -6.5 55.5t-26 46t-54 31.5t-92.5 12q-31 0 -69.5 -3t-77.5 -8t-76 -12t-65 -16q-27 -6 -37 0t-15 27l-32 143q-6 23 -1 32t21 15q92 33 193.5 47.5t201.5 14.5q223 0 328 -95.5t105 -281.5v-594 q0 -27 -7.5 -45t-35.5 -35q-47 -23 -101.5 -37t-111 -22t-113.5 -12.5t-109 -4.5q-139 0 -230 27t-146.5 73t-78 108.5t-22.5 133.5zM399 342q0 -72 48.5 -100.5t130.5 -28.5q12 0 32.5 1t44 4t48 8t45.5 14v247h-162q-29 0 -61.5 -4t-60.5 -19t-46.5 -44t-18.5 -78z" />
<glyph unicode="&#x431;" horiz-adv-x="1210" d="M84 553q0 170 16.5 313.5t66.5 255t141 189.5t241 116q72 20 171 40t212 42q16 4 27.5 2t15.5 -24l43 -172q8 -27 -2 -34t-21 -11q-72 -18 -125 -28.5t-106 -22.5q-96 -20 -157.5 -44t-99.5 -57t-56.5 -81t-24.5 -117q2 0 4 -2l4 -5q72 47 146.5 65.5t142.5 18.5 q115 0 192.5 -38.5t127 -106.5t71 -158t21.5 -190q0 -98 -28 -191.5t-91.5 -167t-164.5 -119.5t-251 -49q-168 0 -269.5 48.5t-156.5 128t-72.5 183t-17.5 216.5zM399 489q0 -55 9.5 -103t32 -84t61.5 -56.5t100 -20.5q66 0 109 23.5t67.5 62.5t34.5 86t10 97q0 45 -8 91 t-29.5 83t-58.5 60.5t-96 23.5q-53 0 -112.5 -16.5t-106.5 -45.5q-8 -66 -10.5 -109.5t-2.5 -91.5z" />
<glyph unicode="&#x432;" horiz-adv-x="1214" d="M133 104v857q0 53 21.5 83.5t93.5 30.5h477q72 0 135.5 -14t111.5 -47t75.5 -84t27.5 -127q0 -59 -30.5 -115.5t-90.5 -89.5v-12q94 -37 131 -107.5t37 -146.5q0 -74 -29.5 -135.5t-82 -105.5t-125 -67.5t-156.5 -23.5h-473q-72 0 -97.5 25.5t-25.5 78.5zM426 231h258 q39 0 64.5 12.5t41 31t20.5 40t5 39.5q0 53 -31.5 86t-97.5 33h-260v-242zM426 670h248q33 0 62.5 20.5t29.5 69.5q0 35 -22.5 60.5t-63.5 25.5h-254v-176z" />
<glyph unicode="&#x433;" horiz-adv-x="1001" d="M133 41v717q0 61 13.5 119.5t49 102.5t99 69.5t166.5 25.5h481q25 0 32 -9t7 -38v-147q0 -25 -8 -36t-31 -11h-393q-72 0 -95.5 -29t-23.5 -82v-682q0 -27 -8 -34t-39 -7h-203q-47 0 -47 41z" />
<glyph unicode="&#x434;" horiz-adv-x="1335" d="M16 143q0 35 14.5 57.5t55.5 26.5l66 6q57 53 81.5 140.5t34.5 195.5l56 389q8 53 35.5 85t109.5 32h539q78 0 101.5 -31.5t23.5 -93.5v-717l69 -6q41 -4 54.5 -26.5t13.5 -55.5l-25 -430q0 -31 -33 -30h-180q-18 0 -24.5 8t-8.5 24l-12 283h-686q-4 -72 -8 -141.5 t-8 -141.5q-2 -18 -8.5 -25t-26.5 -7h-178q-31 0 -31 30zM459 231h375v600h-254q-29 -252 -57.5 -396t-63.5 -204z" />
<glyph unicode="&#x435;" horiz-adv-x="1163" d="M92 532q0 135 36 241t102.5 179.5t159.5 111.5t210 38q240 0 359.5 -120t119.5 -343q0 -106 -41 -145t-112 -39h-525q2 -66 21.5 -109t52.5 -69.5t77 -37t95 -10.5q59 0 120.5 14.5t115.5 37.5q25 8 34 5t17 -20l65 -147q8 -18 3 -28.5t-21 -20.5q-76 -49 -176 -71 t-187 -22q-268 0 -397 133.5t-129 421.5zM408 645h383q0 45 -9.5 84t-30 66.5t-55.5 44t-90 16.5q-84 0 -137 -59.5t-61 -151.5z" />
<glyph unicode="&#x436;" horiz-adv-x="1689" d="M47 13.5q-2 13.5 0 23.5l105 354q10 33 22 62.5t31.5 53t48.5 42t74 31.5l-2 4q-61 25 -95 75t-51 113l-76 268q-2 10 1.5 22.5t23.5 12.5h229q10 0 19.5 -4t15.5 -22l70 -226q29 -86 73 -113.5t99 -27.5h61v360q0 23 8.5 28t28.5 5h223q18 0 27.5 -5t9.5 -28v-360h62 q55 0 99 27.5t73 113.5l69 226q6 18 15.5 22t19.5 4h230q20 0 23 -12t1 -23l-76 -268q-16 -63 -50 -113.5t-95 -74.5l-2 -4q45 -12 73.5 -31t48 -42.5t32 -53t22.5 -62.5l104 -354q2 -10 0 -23.5t-26 -13.5h-238q-8 0 -19 4t-16 21l-94 315q-20 66 -65 94.5t-109 28.5h-82 v-430q0 -23 -9 -28t-28 -5h-223q-20 0 -28.5 5t-8.5 28v430h-82q-63 0 -108 -28.5t-64 -94.5l-96 -315q-4 -16 -15.5 -20.5t-19.5 -4.5h-237q-25 0 -27 13.5z" />
<glyph unicode="&#x437;" horiz-adv-x="1044" d="M48 73.5q-1 12.5 3 28.5l53 150q6 16 16.5 20t39.5 -4q74 -23 156.5 -36t136.5 -13q119 0 166 41t47 92q0 53 -54.5 82t-181.5 31q-39 2 -58.5 16.5t-19.5 48.5v62q0 35 21.5 48t58.5 15q102 6 149.5 34t47.5 75q0 53 -48 71.5t-122 18.5q-41 0 -113 -12.5t-137 -32.5 q-25 -10 -35 -6t-16 18l-49 137q-10 25 -9.5 36.5t25.5 21.5q78 39 183.5 61.5t209.5 22.5q190 0 303 -71t113 -218q0 -76 -45 -137.5t-111 -98.5v-8q88 -29 138.5 -93t50.5 -150t-39 -150.5t-104.5 -107.5t-153.5 -64.5t-187 -21.5q-49 0 -103 4t-108.5 12t-105.5 22.5 t-94 32.5q-23 10 -24 22.5z" />
<glyph unicode="&#x438;" horiz-adv-x="1280" d="M133 115v927q0 33 37 33h219q25 0 32 -6t7 -27v-626h10q39 66 64.5 107.5t42 69.5t29 46t24.5 39q39 59 88 139t117 191q14 20 26.5 33.5t25.5 20.5t30.5 10t44.5 3h100q57 0 86 -23.5t29 -90.5v-928q0 -20 -8.5 -26.5t-28.5 -6.5h-221q-23 0 -31 5t-8 28v614h-10 q-47 -72 -89 -142.5t-87 -139.5q-47 -74 -94.5 -149t-96.5 -148q-29 -43 -53.5 -55.5t-73.5 -12.5h-96q-72 0 -93.5 28.5t-21.5 86.5z" />
<glyph unicode="&#x439;" horiz-adv-x="1280" d="M133 115v927q0 33 37 33h219q25 0 32 -6t7 -27v-626h10q39 66 64.5 107.5t42 69.5t29 46t24.5 39q39 59 88 139t117 191q14 20 26.5 33.5t25.5 20.5t30.5 10t44.5 3h100q57 0 86 -23.5t29 -90.5v-928q0 -20 -8.5 -26.5t-28.5 -6.5h-221q-23 0 -31 5t-8 28v614h-10 q-47 -72 -89 -142.5t-87 -139.5q-47 -74 -94.5 -149t-96.5 -148q-29 -43 -53.5 -55.5t-73.5 -12.5h-96q-72 0 -93.5 28.5t-21.5 86.5zM244 1430.5q-4 11.5 14 27.5l80 78q20 16 27.5 11t23.5 -17q66 -66 130.5 -102.5t123.5 -36.5q25 0 50.5 5t56 20.5t67.5 43t86 74.5 q20 16 28.5 15t18.5 -11l78 -68q20 -18 17 -28t-9 -19q-186 -247 -405 -247q-61 0 -115.5 19t-102.5 53t-88 76t-73 89q-4 6 -8 17.5z" />
<glyph unicode="&#x43a;" horiz-adv-x="1177" d="M133 33v1009q0 23 9.5 28t27.5 5h223q20 0 28.5 -5t8.5 -28v-356h96q53 0 97.5 25.5t72.5 111.5l72 226q4 18 14.5 22t20.5 4h227q20 0 23.5 -12t1.5 -23l-76 -268q-16 -63 -50 -113.5t-95 -74.5l-3 -4q45 -12 74 -31t48.5 -42.5t31.5 -53t23 -62.5l104 -354 q2 -10 0 -23.5t-27 -13.5h-235q-8 0 -19.5 4t-15.5 21l-96 315q-20 66 -64.5 91.5t-107.5 25.5h-117v-424q0 -23 -8 -28t-29 -5h-223q-18 0 -27.5 5t-9.5 28z" />
<glyph unicode="&#x43b;" horiz-adv-x="1220" d="M22 159q3 11 29 25q55 25 89 55.5t55.5 88t34 152.5t22.5 251l14 223q4 68 32 94.5t95 26.5h572q72 0 97 -29.5t25 -95.5v-911q0 -25 -9 -32t-38 -7h-206q-29 0 -38.5 9t-9.5 32v793h-251l-7 -107q-10 -178 -26.5 -307t-55 -220t-110.5 -148.5t-191 -94.5q-29 -10 -41 -3 t-20 28l-55 139q-10 27 -7 38z" />
<glyph unicode="&#x43c;" horiz-adv-x="1550" d="M133 39v917q0 119 123 119h127q43 0 74.5 -14t56.5 -68l148 -311l104 -236h12l117 256l137 281q25 53 55.5 72.5t90.5 19.5h116q123 0 123 -114v-922q0 -27 -9 -33t-36 -6h-201q-23 0 -34 6t-11 33v571h-10l-84 -196l-100 -217q-18 -41 -43 -55.5t-66 -14.5h-100 q-47 0 -68.5 14.5t-40.5 55.5l-98 213l-82 188h-8v-559q0 -27 -10 -33t-35 -6h-203q-23 0 -34 6t-11 33z" />
<glyph unicode="&#x43d;" horiz-adv-x="1241" d="M133 41v995q0 39 45 39h205q29 0 38 -7t9 -32v-350h383v350q0 39 45 39h205q29 0 37 -7t8 -32v-995q0 -27 -8 -34t-37 -7h-205q-45 0 -45 41v412h-383v-412q0 -27 -9 -34t-38 -7h-205q-45 0 -45 41z" />
<glyph unicode="&#x43e;" horiz-adv-x="1218" d="M92 539q0 131 36 236.5t102.5 177t161.5 110.5t216 39q258 0 388 -148.5t130 -410.5q0 -270 -129 -418t-393 -148q-266 0 -389 147.5t-123 414.5zM399 543q0 -154 48.5 -234t158.5 -80q57 0 97 23.5t66 65.5t37 97.5t11 121.5q0 70 -10 127t-34.5 98t-63.5 64.5t-97 23.5 q-109 0 -161 -83t-52 -224z" />
<glyph unicode="&#x43f;" horiz-adv-x="1257" d="M133 39v922q0 49 22.5 81.5t94.5 32.5h758q72 0 94 -32.5t22 -81.5v-922q0 -23 -8 -31t-37 -8h-213q-43 0 -43 39v795h-393v-795q0 -23 -7 -31t-36 -8h-211q-43 0 -43 39z" />
<glyph unicode="&#x440;" horiz-adv-x="1236" d="M133 -383v1335q0 23 7 36t34 28q98 45 220 63.5t233 18.5q145 0 244.5 -44t160 -119t87 -177.5t26.5 -218.5q0 -115 -29 -216.5t-88 -177t-150.5 -119.5t-213.5 -44q-61 0 -113.5 5t-118.5 19v-389q0 -23 -7 -29t-36 -6h-213q-23 0 -33 6t-10 29zM432 260q53 -14 95 -18 t75 -4q102 0 167 69.5t65 237.5q0 84 -16.5 141t-48.5 92t-78 49.5t-103 14.5q-29 0 -75 -6.5t-81 -16.5v-559z" />
<glyph unicode="&#x441;" horiz-adv-x="1046" d="M92 535q0 131 36 236.5t101.5 179t160.5 112.5t212 39q86 0 170 -17.5t154 -52.5q27 -12 29.5 -22.5t-7.5 -34.5l-57 -158q-10 -23 -22.5 -24.5t-41.5 6.5q-53 16 -104 26.5t-98 10.5q-61 0 -103.5 -25t-69 -65.5t-39 -95t-12.5 -115.5q0 -63 10.5 -116.5t37 -92.5 t70.5 -60.5t112 -21.5q66 0 128 15t107 32q27 10 36 7t18 -26l57 -153q10 -20 9 -32.5t-23 -25.5q-90 -49 -192.5 -66.5t-186.5 -17.5q-242 0 -367 139.5t-125 418.5z" />
<glyph unicode="&#x442;" horiz-adv-x="1007" d="M20 879v149q0 29 7.5 38t33.5 9h885q25 0 33 -9t8 -38v-149q0 -45 -41 -45h-297v-793q0 -27 -9 -34t-38 -7h-203q-47 0 -47 41v793h-291q-41 0 -41 45z" />
<glyph unicode="&#x443;" horiz-adv-x="1144" d="M25 1036q-8 23 1 31t25 8h240q31 0 42 -7t17 -30l117 -413l96 -357h12l105 363l123 403q6 23 16 32t41 9h244q35 0 22 -33l-413 -1222v2q-47 -141 -135.5 -201.5t-233.5 -60.5q-41 0 -95 6t-108 22q-25 6 -32 14.5t0 30.5l34 162q6 25 14.5 27t30.5 -2q33 -6 55.5 -8 t45.5 -2q72 0 112.5 23.5t63.5 94.5l37 111h-60q-47 0 -67.5 16.5t-38.5 71.5z" />
<glyph unicode="&#x444;" horiz-adv-x="1574" d="M92 543q0 131 44 232.5t119 172t174 108.5t212 42v362q0 23 9 30t32 7h213q29 0 36 -6t7 -31v-366q117 -4 216 -41t172 -108t115 -172t42 -230q0 -119 -35 -219.5t-103.5 -175t-170 -119.5t-236.5 -54v-352q0 -23 -7 -30t-36 -7h-213q-23 0 -32 7.5t-9 29.5v354 q-133 8 -235.5 53.5t-172 119t-105.5 174t-36 219.5zM385 530q0 -61 15.5 -116.5t47 -100.5t79.5 -73.5t114 -34.5v643q-125 -10 -190.5 -93.5t-65.5 -224.5zM938 205q68 8 116 36.5t78.5 71.5t45 98.5t14.5 116.5q0 141 -62.5 223.5t-191.5 92.5v-639z" />
<glyph unicode="&#x445;" horiz-adv-x="1071" d="M16 12.5q-6 12.5 7 32.5l346 522l-310 471q-8 10 -5 23.5t24 13.5h246q29 0 44 -8t25 -31l144 -264l145 264q12 23 26.5 31t43.5 8h241q23 0 25 -12t-2 -23l-316 -469l349 -528q10 -16 6 -29.5t-29 -13.5h-240q-35 0 -48 11.5t-25 33.5l-178 315l-183 -315 q-12 -23 -27.5 -34t-45.5 -11h-234q-23 0 -29 12.5z" />
<glyph unicode="&#x446;" horiz-adv-x="1329" d="M133 129v909q0 37 43 37h213q29 0 35 -7t6 -30v-800h385v800q0 37 43 37h215q25 0 33 -7t8 -30v-798l96 -9q43 -4 55.5 -26.5t10.5 -54.5l-23 -435q0 -31 -30 -30h-183q-18 0 -24 8t-8 24l-11 283h-743q-72 0 -96.5 36t-24.5 93z" />
<glyph unicode="&#x447;" horiz-adv-x="1179" d="M84 772v270q0 33 37 33h223q23 0 30 -6t7 -27v-241q0 -61 10 -100t32.5 -62t61.5 -32t95 -9q39 0 83 5t87 18v421q0 33 36 33h222q23 0 31 -6t8 -27v-1009q0 -20 -8.5 -26.5t-30.5 -6.5h-222q-37 0 -36 33v350q-53 -10 -109.5 -17.5t-105.5 -7.5q-127 0 -214.5 29 t-139.5 82t-74.5 130t-22.5 173z" />
<glyph unicode="&#x448;" horiz-adv-x="1810" d="M133 129v909q0 37 43 37h213q29 0 35 -7t6 -30v-800h330v800q0 37 41 37h215q27 0 35 -7t8 -30v-800h321v800q0 23 8.5 30t34.5 7h213q41 0 41 -37v-909q0 -57 -23.5 -93t-99.5 -36h-1300q-72 0 -96.5 36t-24.5 93z" />
<glyph unicode="&#x449;" horiz-adv-x="1890" d="M133 129v909q0 37 43 37h213q29 0 35 -7t6 -30v-800h330v800q0 37 41 37h215q27 0 35 -7t8 -30v-800h321v800q0 37 43 37h211q25 0 33 -7t8 -30v-800l97 -9q43 -4 56 -26.5t11 -55.5l-22 -432q-4 -31 -33 -30h-180q-20 0 -26.5 8t-8.5 24l-10 283h-1305q-72 0 -96.5 36 t-24.5 93z" />
<glyph unicode="&#x44a;" horiz-adv-x="1447" d="M20 881v151q0 27 7.5 35t29.5 8h510q63 0 89 -26.5t26 -79.5l-2 -230h254q150 0 236.5 -42t132 -101t56.5 -121.5t11 -103.5q0 -80 -30.5 -147.5t-85 -117t-128 -78t-159.5 -28.5h-455q-78 0 -103.5 31.5t-25.5 87.5v715h-326q-23 0 -30 11t-7 36zM680 233h240 q45 0 72.5 14.5t44 36t22.5 46.5t6 45q0 57 -36 97t-107 40h-242v-279z" />
<glyph unicode="&#x44b;" horiz-adv-x="1662" d="M133 119v917q0 39 45 39h207q29 0 37 -7t8 -32v-297h254q150 0 237 -42t132 -101t56 -121.5t11 -103.5q0 -80 -30.5 -147.5t-85 -117t-128 -78t-159.5 -28.5h-455q-80 0 -104.5 31.5t-24.5 87.5zM430 233h240q43 0 71.5 14.5t45 36t22.5 46.5t6 45q0 57 -36 97t-107 40 h-242v-279zM1235 41v995q0 39 45 39h205q29 0 37 -7t8 -32v-995q0 -27 -8.5 -34t-36.5 -7h-205q-45 0 -45 41z" />
<glyph unicode="&#x44c;" horiz-adv-x="1196" d="M133 119v917q0 39 45 39h205q29 0 38 -7t9 -32v-297h254q150 0 237 -42t132 -101t56 -121.5t11 -103.5q0 -80 -30.5 -147.5t-85 -117t-128 -78t-159.5 -28.5h-455q-80 0 -104.5 31.5t-24.5 87.5zM430 233h240q43 0 71.5 14.5t45 36t22.5 46.5t6 45q0 57 -36 97t-107 40 h-242v-279z" />
<glyph unicode="&#x44d;" horiz-adv-x="1046" d="M56 81.5q-1 12.5 7 35.5l62 155q8 23 17.5 25t33.5 -6q47 -16 108.5 -31.5t127.5 -15.5q111 0 164 54t63 155h-299q-10 0 -18.5 5t-8.5 21v158q0 10 5.5 17.5t21.5 7.5h293q-10 84 -60.5 129t-142.5 45q-47 0 -101.5 -10.5t-107.5 -26.5q-29 -8 -41 -6t-22 24l-49 158 q-8 25 -6.5 35t30.5 22q70 33 156 51.5t172 18.5q236 0 365.5 -138.5t129.5 -400.5q0 -287 -128 -436.5t-375 -149.5q-86 0 -183.5 15.5t-189.5 66.5q-23 10 -24 22.5z" />
<glyph unicode="&#x44e;" horiz-adv-x="1677" d="M133 41v995q0 39 45 39h205q31 0 39 -7t8 -32v-356h156q35 199 161.5 311.5t333.5 112.5q125 0 220.5 -39t158 -111.5t94 -176t31.5 -234.5q0 -264 -125 -415t-383 -151q-240 0 -359.5 124t-137.5 348h-150v-408q0 -27 -8 -34t-39 -7h-205q-45 0 -45 41zM885 543 q0 -154 45 -233t149 -79q51 0 88 22.5t60.5 63.5t35 97.5t11.5 124.5q0 141 -44 226t-147 85q-96 0 -147 -81t-51 -226z" />
<glyph unicode="&#x44f;" horiz-adv-x="1212" d="M63 20v9q0 6 3 8q23 70 45 139.5t45 138.5q16 49 46.5 95.5t110.5 68.5v4q-106 35 -145 108t-39 163q0 68 25.5 127t73.5 102t118 67.5t156 24.5h459q53 0 81.5 -21.5t32.5 -58.5q2 -18 2 -36.5v-36.5v-889q0 -33 -41 -33h-211q-27 0 -34 7t-7 26v375h-159 q-72 0 -117 -24t-68 -97q-16 -59 -35.5 -121t-37.5 -123q-8 -29 -28 -36t-40 -7h-205q-31 0 -31 20zM426 727q0 -55 36 -88t109 -33h213v242h-219q-41 0 -67.5 -11.5t-42 -30t-22.5 -40t-7 -39.5z" />
<glyph unicode="&#x451;" horiz-adv-x="1163" d="M92 532q0 135 36 241t102.5 179.5t159.5 111.5t210 38q240 0 359.5 -120t119.5 -343q0 -106 -41 -145t-112 -39h-525q2 -66 21.5 -109t52.5 -69.5t77 -37t95 -10.5q59 0 120.5 14.5t115.5 37.5q25 8 34 5t17 -20l65 -147q8 -18 3 -28.5t-21 -20.5q-76 -49 -176 -71 t-187 -22q-268 0 -397 133.5t-129 421.5zM238 1370q0 31 12 58.5t33.5 48t48 33t57.5 12.5t58.5 -12.5t49 -33t34 -48t12.5 -58.5t-12.5 -57.5t-34 -47t-49 -32.5t-58.5 -12t-57.5 12t-48 32.5t-33.5 47t-12 57.5zM408 645h383q0 45 -9.5 84t-30 66.5t-55.5 44t-90 16.5 q-84 0 -137 -59.5t-61 -151.5zM657 1370q0 61 46.5 106.5t107.5 45.5q31 0 57.5 -12.5t48 -33t34 -48t12.5 -58.5t-12.5 -57.5t-34 -47t-48 -32.5t-57.5 -12t-58.5 12t-49 32.5t-34 47t-12.5 57.5z" />
</font>
</defs>
</svg>
